%TF.GenerationSoftware,KiCad,Pcbnew,7.0.1*%
%TF.CreationDate,2023-05-03T15:07:35-05:00*%
%TF.ProjectId,V1,56312e6b-6963-4616-945f-706362585858,rev?*%
%TF.SameCoordinates,Original*%
%TF.FileFunction,Copper,L2,Bot*%
%TF.FilePolarity,Positive*%
%FSLAX46Y46*%
G04 Gerber Fmt 4.6, Leading zero omitted, Abs format (unit mm)*
G04 Created by KiCad (PCBNEW 7.0.1) date 2023-05-03 15:07:35*
%MOMM*%
%LPD*%
G01*
G04 APERTURE LIST*
%ADD10C,0.500000*%
%TA.AperFunction,NonConductor*%
%ADD11C,0.500000*%
%TD*%
%TA.AperFunction,ComponentPad*%
%ADD12R,1.350000X1.350000*%
%TD*%
%TA.AperFunction,ComponentPad*%
%ADD13O,1.350000X1.350000*%
%TD*%
%TA.AperFunction,ComponentPad*%
%ADD14R,2.600000X2.600000*%
%TD*%
%TA.AperFunction,ComponentPad*%
%ADD15C,2.600000*%
%TD*%
%TA.AperFunction,ComponentPad*%
%ADD16R,1.600000X1.600000*%
%TD*%
%TA.AperFunction,ComponentPad*%
%ADD17O,1.600000X1.600000*%
%TD*%
%TA.AperFunction,ComponentPad*%
%ADD18R,2.000000X2.000000*%
%TD*%
%TA.AperFunction,ComponentPad*%
%ADD19C,2.000000*%
%TD*%
%TA.AperFunction,ComponentPad*%
%ADD20R,2.540000X2.540000*%
%TD*%
%TA.AperFunction,ComponentPad*%
%ADD21C,2.540000*%
%TD*%
%TA.AperFunction,ComponentPad*%
%ADD22R,1.530000X1.530000*%
%TD*%
%TA.AperFunction,ComponentPad*%
%ADD23C,1.530000*%
%TD*%
%TA.AperFunction,Conductor*%
%ADD24C,1.200000*%
%TD*%
%TA.AperFunction,Conductor*%
%ADD25C,0.800000*%
%TD*%
%TA.AperFunction,Conductor*%
%ADD26C,2.000000*%
%TD*%
G04 APERTURE END LIST*
D10*
D11*
X168367761Y-96879114D02*
X166939190Y-96879114D01*
X166939190Y-96879114D02*
X166653476Y-96783875D01*
X166653476Y-96783875D02*
X166463000Y-96593399D01*
X166463000Y-96593399D02*
X166367761Y-96307685D01*
X166367761Y-96307685D02*
X166367761Y-96117209D01*
X166463000Y-97736257D02*
X166367761Y-98021971D01*
X166367761Y-98021971D02*
X166367761Y-98498162D01*
X166367761Y-98498162D02*
X166463000Y-98688638D01*
X166463000Y-98688638D02*
X166558238Y-98783876D01*
X166558238Y-98783876D02*
X166748714Y-98879114D01*
X166748714Y-98879114D02*
X166939190Y-98879114D01*
X166939190Y-98879114D02*
X167129666Y-98783876D01*
X167129666Y-98783876D02*
X167224904Y-98688638D01*
X167224904Y-98688638D02*
X167320142Y-98498162D01*
X167320142Y-98498162D02*
X167415380Y-98117209D01*
X167415380Y-98117209D02*
X167510619Y-97926733D01*
X167510619Y-97926733D02*
X167605857Y-97831495D01*
X167605857Y-97831495D02*
X167796333Y-97736257D01*
X167796333Y-97736257D02*
X167986809Y-97736257D01*
X167986809Y-97736257D02*
X168177285Y-97831495D01*
X168177285Y-97831495D02*
X168272523Y-97926733D01*
X168272523Y-97926733D02*
X168367761Y-98117209D01*
X168367761Y-98117209D02*
X168367761Y-98593400D01*
X168367761Y-98593400D02*
X168272523Y-98879114D01*
X168367761Y-100117209D02*
X168367761Y-100498162D01*
X168367761Y-100498162D02*
X168272523Y-100688638D01*
X168272523Y-100688638D02*
X168082047Y-100879114D01*
X168082047Y-100879114D02*
X167701095Y-100974352D01*
X167701095Y-100974352D02*
X167034428Y-100974352D01*
X167034428Y-100974352D02*
X166653476Y-100879114D01*
X166653476Y-100879114D02*
X166463000Y-100688638D01*
X166463000Y-100688638D02*
X166367761Y-100498162D01*
X166367761Y-100498162D02*
X166367761Y-100117209D01*
X166367761Y-100117209D02*
X166463000Y-99926733D01*
X166463000Y-99926733D02*
X166653476Y-99736257D01*
X166653476Y-99736257D02*
X167034428Y-99641019D01*
X167034428Y-99641019D02*
X167701095Y-99641019D01*
X167701095Y-99641019D02*
X168082047Y-99736257D01*
X168082047Y-99736257D02*
X168272523Y-99926733D01*
X168272523Y-99926733D02*
X168367761Y-100117209D01*
X166367761Y-102974352D02*
X167320142Y-102307685D01*
X166367761Y-101831495D02*
X168367761Y-101831495D01*
X168367761Y-101831495D02*
X168367761Y-102593400D01*
X168367761Y-102593400D02*
X168272523Y-102783876D01*
X168272523Y-102783876D02*
X168177285Y-102879114D01*
X168177285Y-102879114D02*
X167986809Y-102974352D01*
X167986809Y-102974352D02*
X167701095Y-102974352D01*
X167701095Y-102974352D02*
X167510619Y-102879114D01*
X167510619Y-102879114D02*
X167415380Y-102783876D01*
X167415380Y-102783876D02*
X167320142Y-102593400D01*
X167320142Y-102593400D02*
X167320142Y-101831495D01*
X163127761Y-96879114D02*
X165127761Y-96879114D01*
X165127761Y-96879114D02*
X163127761Y-98021971D01*
X163127761Y-98021971D02*
X165127761Y-98021971D01*
X163318238Y-100117209D02*
X163223000Y-100021971D01*
X163223000Y-100021971D02*
X163127761Y-99736257D01*
X163127761Y-99736257D02*
X163127761Y-99545781D01*
X163127761Y-99545781D02*
X163223000Y-99260066D01*
X163223000Y-99260066D02*
X163413476Y-99069590D01*
X163413476Y-99069590D02*
X163603952Y-98974352D01*
X163603952Y-98974352D02*
X163984904Y-98879114D01*
X163984904Y-98879114D02*
X164270619Y-98879114D01*
X164270619Y-98879114D02*
X164651571Y-98974352D01*
X164651571Y-98974352D02*
X164842047Y-99069590D01*
X164842047Y-99069590D02*
X165032523Y-99260066D01*
X165032523Y-99260066D02*
X165127761Y-99545781D01*
X165127761Y-99545781D02*
X165127761Y-99736257D01*
X165127761Y-99736257D02*
X165032523Y-100021971D01*
X165032523Y-100021971D02*
X164937285Y-100117209D01*
X163127761Y-100974352D02*
X165127761Y-100974352D01*
X165127761Y-100974352D02*
X163699190Y-101641019D01*
X163699190Y-101641019D02*
X165127761Y-102307685D01*
X165127761Y-102307685D02*
X163127761Y-102307685D01*
X159887761Y-95926733D02*
X161887761Y-95926733D01*
X161887761Y-95926733D02*
X160459190Y-96593400D01*
X160459190Y-96593400D02*
X161887761Y-97260066D01*
X161887761Y-97260066D02*
X159887761Y-97260066D01*
X160459190Y-98117209D02*
X160459190Y-99069590D01*
X159887761Y-97926733D02*
X161887761Y-98593399D01*
X161887761Y-98593399D02*
X159887761Y-99260066D01*
X159887761Y-99926733D02*
X161887761Y-99926733D01*
X161887761Y-99926733D02*
X160459190Y-100593400D01*
X160459190Y-100593400D02*
X161887761Y-101260066D01*
X161887761Y-101260066D02*
X159887761Y-101260066D01*
X160935380Y-102879114D02*
X160840142Y-103164828D01*
X160840142Y-103164828D02*
X160744904Y-103260066D01*
X160744904Y-103260066D02*
X160554428Y-103355304D01*
X160554428Y-103355304D02*
X160268714Y-103355304D01*
X160268714Y-103355304D02*
X160078238Y-103260066D01*
X160078238Y-103260066D02*
X159983000Y-103164828D01*
X159983000Y-103164828D02*
X159887761Y-102974352D01*
X159887761Y-102974352D02*
X159887761Y-102212447D01*
X159887761Y-102212447D02*
X161887761Y-102212447D01*
X161887761Y-102212447D02*
X161887761Y-102879114D01*
X161887761Y-102879114D02*
X161792523Y-103069590D01*
X161792523Y-103069590D02*
X161697285Y-103164828D01*
X161697285Y-103164828D02*
X161506809Y-103260066D01*
X161506809Y-103260066D02*
X161316333Y-103260066D01*
X161316333Y-103260066D02*
X161125857Y-103164828D01*
X161125857Y-103164828D02*
X161030619Y-103069590D01*
X161030619Y-103069590D02*
X160935380Y-102879114D01*
X160935380Y-102879114D02*
X160935380Y-102212447D01*
X157695380Y-98450543D02*
X157695380Y-97783876D01*
X156647761Y-97783876D02*
X158647761Y-97783876D01*
X158647761Y-97783876D02*
X158647761Y-98736257D01*
X156743000Y-99402924D02*
X156647761Y-99688638D01*
X156647761Y-99688638D02*
X156647761Y-100164829D01*
X156647761Y-100164829D02*
X156743000Y-100355305D01*
X156743000Y-100355305D02*
X156838238Y-100450543D01*
X156838238Y-100450543D02*
X157028714Y-100545781D01*
X157028714Y-100545781D02*
X157219190Y-100545781D01*
X157219190Y-100545781D02*
X157409666Y-100450543D01*
X157409666Y-100450543D02*
X157504904Y-100355305D01*
X157504904Y-100355305D02*
X157600142Y-100164829D01*
X157600142Y-100164829D02*
X157695380Y-99783876D01*
X157695380Y-99783876D02*
X157790619Y-99593400D01*
X157790619Y-99593400D02*
X157885857Y-99498162D01*
X157885857Y-99498162D02*
X158076333Y-99402924D01*
X158076333Y-99402924D02*
X158266809Y-99402924D01*
X158266809Y-99402924D02*
X158457285Y-99498162D01*
X158457285Y-99498162D02*
X158552523Y-99593400D01*
X158552523Y-99593400D02*
X158647761Y-99783876D01*
X158647761Y-99783876D02*
X158647761Y-100260067D01*
X158647761Y-100260067D02*
X158552523Y-100545781D01*
X156647761Y-101402924D02*
X158647761Y-101402924D01*
D10*
D11*
X193699543Y-58040838D02*
X193794781Y-57945600D01*
X193794781Y-57945600D02*
X194080495Y-57850361D01*
X194080495Y-57850361D02*
X194270971Y-57850361D01*
X194270971Y-57850361D02*
X194556686Y-57945600D01*
X194556686Y-57945600D02*
X194747162Y-58136076D01*
X194747162Y-58136076D02*
X194842400Y-58326552D01*
X194842400Y-58326552D02*
X194937638Y-58707504D01*
X194937638Y-58707504D02*
X194937638Y-58993219D01*
X194937638Y-58993219D02*
X194842400Y-59374171D01*
X194842400Y-59374171D02*
X194747162Y-59564647D01*
X194747162Y-59564647D02*
X194556686Y-59755123D01*
X194556686Y-59755123D02*
X194270971Y-59850361D01*
X194270971Y-59850361D02*
X194080495Y-59850361D01*
X194080495Y-59850361D02*
X193794781Y-59755123D01*
X193794781Y-59755123D02*
X193699543Y-59659885D01*
X192842400Y-57850361D02*
X192842400Y-59850361D01*
X192842400Y-58897980D02*
X191699543Y-58897980D01*
X191699543Y-57850361D02*
X191699543Y-59850361D01*
X190366210Y-59850361D02*
X189985257Y-59850361D01*
X189985257Y-59850361D02*
X189794781Y-59755123D01*
X189794781Y-59755123D02*
X189604305Y-59564647D01*
X189604305Y-59564647D02*
X189509067Y-59183695D01*
X189509067Y-59183695D02*
X189509067Y-58517028D01*
X189509067Y-58517028D02*
X189604305Y-58136076D01*
X189604305Y-58136076D02*
X189794781Y-57945600D01*
X189794781Y-57945600D02*
X189985257Y-57850361D01*
X189985257Y-57850361D02*
X190366210Y-57850361D01*
X190366210Y-57850361D02*
X190556686Y-57945600D01*
X190556686Y-57945600D02*
X190747162Y-58136076D01*
X190747162Y-58136076D02*
X190842400Y-58517028D01*
X190842400Y-58517028D02*
X190842400Y-59183695D01*
X190842400Y-59183695D02*
X190747162Y-59564647D01*
X190747162Y-59564647D02*
X190556686Y-59755123D01*
X190556686Y-59755123D02*
X190366210Y-59850361D01*
X187509067Y-58040838D02*
X187604305Y-57945600D01*
X187604305Y-57945600D02*
X187890019Y-57850361D01*
X187890019Y-57850361D02*
X188080495Y-57850361D01*
X188080495Y-57850361D02*
X188366210Y-57945600D01*
X188366210Y-57945600D02*
X188556686Y-58136076D01*
X188556686Y-58136076D02*
X188651924Y-58326552D01*
X188651924Y-58326552D02*
X188747162Y-58707504D01*
X188747162Y-58707504D02*
X188747162Y-58993219D01*
X188747162Y-58993219D02*
X188651924Y-59374171D01*
X188651924Y-59374171D02*
X188556686Y-59564647D01*
X188556686Y-59564647D02*
X188366210Y-59755123D01*
X188366210Y-59755123D02*
X188080495Y-59850361D01*
X188080495Y-59850361D02*
X187890019Y-59850361D01*
X187890019Y-59850361D02*
X187604305Y-59755123D01*
X187604305Y-59755123D02*
X187509067Y-59659885D01*
X186270972Y-59850361D02*
X185890019Y-59850361D01*
X185890019Y-59850361D02*
X185699543Y-59755123D01*
X185699543Y-59755123D02*
X185509067Y-59564647D01*
X185509067Y-59564647D02*
X185413829Y-59183695D01*
X185413829Y-59183695D02*
X185413829Y-58517028D01*
X185413829Y-58517028D02*
X185509067Y-58136076D01*
X185509067Y-58136076D02*
X185699543Y-57945600D01*
X185699543Y-57945600D02*
X185890019Y-57850361D01*
X185890019Y-57850361D02*
X186270972Y-57850361D01*
X186270972Y-57850361D02*
X186461448Y-57945600D01*
X186461448Y-57945600D02*
X186651924Y-58136076D01*
X186651924Y-58136076D02*
X186747162Y-58517028D01*
X186747162Y-58517028D02*
X186747162Y-59183695D01*
X186747162Y-59183695D02*
X186651924Y-59564647D01*
X186651924Y-59564647D02*
X186461448Y-59755123D01*
X186461448Y-59755123D02*
X186270972Y-59850361D01*
X183604305Y-57850361D02*
X184556686Y-57850361D01*
X184556686Y-57850361D02*
X184556686Y-59850361D01*
X183032876Y-58421790D02*
X182080495Y-58421790D01*
X183223352Y-57850361D02*
X182556686Y-59850361D01*
X182556686Y-59850361D02*
X181890019Y-57850361D01*
X180270971Y-57850361D02*
X181223352Y-57850361D01*
X181223352Y-57850361D02*
X181223352Y-59850361D01*
X179699542Y-58421790D02*
X178747161Y-58421790D01*
X179890018Y-57850361D02*
X179223352Y-59850361D01*
X179223352Y-59850361D02*
X178556685Y-57850361D01*
D12*
%TO.P,Encoder1,1,Pin_1*%
%TO.N,+6V*%
X140970000Y-91980000D03*
D13*
%TO.P,Encoder1,2,Pin_2*%
%TO.N,GND*%
X140970000Y-93980000D03*
%TO.P,Encoder1,3,Pin_3*%
%TO.N,Encoder*%
X140970000Y-95980000D03*
%TD*%
D12*
%TO.P,J5,1,Pin_1*%
%TO.N,GND*%
X203403200Y-67970400D03*
%TD*%
%TO.P,Nema17,1,Pin_1*%
%TO.N,Net-(Nema17-Pin_1)*%
X218440000Y-105870000D03*
D13*
%TO.P,Nema17,2,Pin_2*%
%TO.N,Net-(Nema17-Pin_2)*%
X218440000Y-103870000D03*
%TO.P,Nema17,3,Pin_3*%
%TO.N,Net-(Nema17-Pin_3)*%
X218440000Y-101870000D03*
%TO.P,Nema17,4,Pin_4*%
%TO.N,Net-(Nema17-Pin_4)*%
X218440000Y-99870000D03*
%TD*%
D12*
%TO.P,Temp1,1,Pin_1*%
%TO.N,Temp*%
X132080000Y-88900000D03*
D13*
%TO.P,Temp1,2,Pin_2*%
%TO.N,GND*%
X134080000Y-88900000D03*
%TO.P,Temp1,3,Pin_3*%
%TO.N,+6V*%
X136080000Y-88900000D03*
%TD*%
D14*
%TO.P,Pot1,1,Pin_1*%
%TO.N,GND*%
X208280000Y-68660000D03*
D15*
%TO.P,Pot1,2,Pin_2*%
%TO.N,12V*%
X208280000Y-73660000D03*
%TD*%
D16*
%TO.P,U2,1,EN1\u002C2*%
%TO.N,unconnected-(U2-EN1\u002C2-Pad1)*%
X194295000Y-64780000D03*
D17*
%TO.P,U2,2,1A*%
%TO.N,unconnected-(U2-1A-Pad2)*%
X191755000Y-64780000D03*
%TO.P,U2,3,1Y*%
%TO.N,unconnected-(U2-1Y-Pad3)*%
X189215000Y-64780000D03*
%TO.P,U2,4,GND*%
%TO.N,unconnected-(U2-GND-Pad4)*%
X186675000Y-64780000D03*
%TO.P,U2,5,GND*%
%TO.N,unconnected-(U2-GND-Pad5)*%
X184135000Y-64780000D03*
%TO.P,U2,6,2Y*%
%TO.N,unconnected-(U2-2Y-Pad6)*%
X181595000Y-64780000D03*
%TO.P,U2,7,2A*%
%TO.N,unconnected-(U2-2A-Pad7)*%
X179055000Y-64780000D03*
%TO.P,U2,8,VCC2*%
%TO.N,+6V*%
X176515000Y-64780000D03*
%TO.P,U2,9,EN3\u002C4*%
%TO.N,unconnected-(U2-EN3\u002C4-Pad9)*%
X176515000Y-72400000D03*
%TO.P,U2,10,3A*%
%TO.N,GND*%
X179055000Y-72400000D03*
%TO.P,U2,11,3Y*%
%TO.N,Neg Bomba*%
X181595000Y-72400000D03*
%TO.P,U2,12,GND*%
%TO.N,GND*%
X184135000Y-72400000D03*
%TO.P,U2,13,GND*%
X186675000Y-72400000D03*
%TO.P,U2,14,4Y*%
%TO.N,Pos Bomba*%
X189215000Y-72400000D03*
%TO.P,U2,15,4A*%
%TO.N,PWM Bomba*%
X191755000Y-72400000D03*
%TO.P,U2,16,VCC1*%
%TO.N,+6V*%
X194295000Y-72400000D03*
%TD*%
D12*
%TO.P,J3,1,Pin_1*%
%TO.N,PWM Bomba*%
X187807600Y-75336400D03*
%TD*%
%TO.P,GND,1,Pin_1*%
%TO.N,GND*%
X179171600Y-75488800D03*
%TD*%
D18*
%TO.P,U6,1,3V3*%
%TO.N,3.3VE*%
X153645000Y-112320000D03*
D19*
%TO.P,U6,2,GND*%
%TO.N,GND*%
X156185000Y-112320000D03*
%TO.P,U6,3,D15*%
%TO.N,unconnected-(U6-D15-Pad3)*%
X158725000Y-112320000D03*
%TO.P,U6,4,D2*%
%TO.N,unconnected-(U6-D2-Pad4)*%
X161265000Y-112320000D03*
%TO.P,U6,5,D4*%
%TO.N,unconnected-(U6-D4-Pad5)*%
X163805000Y-112320000D03*
%TO.P,U6,6,RX2*%
%TO.N,unconnected-(U6-RX2-Pad6)*%
X166345000Y-112320000D03*
%TO.P,U6,7,TX2*%
%TO.N,unconnected-(U6-TX2-Pad7)*%
X168885000Y-112320000D03*
%TO.P,U6,8,D5*%
%TO.N,M1*%
X171425000Y-112320000D03*
%TO.P,U6,9,D18*%
%TO.N,M2*%
X173965000Y-112320000D03*
%TO.P,U6,10,D19*%
%TO.N,M3*%
X176505000Y-112320000D03*
%TO.P,U6,11,D21*%
%TO.N,SDA*%
X179045000Y-112320000D03*
%TO.P,U6,12,RX0*%
%TO.N,unconnected-(U6-RX0-Pad12)*%
X181585000Y-112320000D03*
%TO.P,U6,13,TX0*%
%TO.N,unconnected-(U6-TX0-Pad13)*%
X184125000Y-112320000D03*
%TO.P,U6,14,D22*%
%TO.N,SCL*%
X186665000Y-112320000D03*
%TO.P,U6,15,D23*%
%TO.N,unconnected-(U6-D23-Pad15)*%
X189205000Y-112320000D03*
%TO.P,U6,16,EN*%
%TO.N,unconnected-(U6-EN-Pad16)*%
X189205000Y-86920000D03*
%TO.P,U6,17,VP*%
%TO.N,unconnected-(U6-VP-Pad17)*%
X186665000Y-86920000D03*
%TO.P,U6,18,VN*%
%TO.N,unconnected-(U6-VN-Pad18)*%
X184125000Y-86920000D03*
%TO.P,U6,19,D34*%
%TO.N,unconnected-(U6-D34-Pad19)*%
X181585000Y-86920000D03*
%TO.P,U6,20,D35*%
%TO.N,unconnected-(U6-D35-Pad20)*%
X179045000Y-86920000D03*
%TO.P,U6,21,D32*%
%TO.N,Dir*%
X176505000Y-86920000D03*
%TO.P,U6,22,D33*%
%TO.N,Step*%
X173965000Y-86920000D03*
%TO.P,U6,23,D25*%
%TO.N,unconnected-(U6-D25-Pad23)*%
X171425000Y-86920000D03*
%TO.P,U6,24,D26*%
%TO.N,unconnected-(U6-D26-Pad24)*%
X168885000Y-86920000D03*
%TO.P,U6,25,D27*%
%TO.N,unconnected-(U6-D27-Pad25)*%
X166345000Y-86920000D03*
%TO.P,U6,26,D14*%
%TO.N,unconnected-(U6-D14-Pad26)*%
X163805000Y-86920000D03*
%TO.P,U6,27,D12*%
%TO.N,unconnected-(U6-D12-Pad27)*%
X161265000Y-86920000D03*
%TO.P,U6,28,D13*%
%TO.N,Encoder*%
X158725000Y-86920000D03*
%TO.P,U6,29,GND*%
%TO.N,GND*%
X156185000Y-86920000D03*
%TO.P,U6,30,VIN*%
%TO.N,+6V*%
X153645000Y-86920000D03*
%TD*%
D12*
%TO.P,GND,1,Pin_1*%
%TO.N,GND*%
X165201600Y-82296000D03*
%TD*%
D20*
%TO.P,U5,1,Vin*%
%TO.N,12V*%
X170180000Y-76454000D03*
D21*
%TO.P,U5,2,GND*%
%TO.N,GND*%
X170180000Y-58674000D03*
%TO.P,U5,3,GND*%
X129540000Y-58674000D03*
%TO.P,U5,4,Vout*%
%TO.N,+6V*%
X129540000Y-76454000D03*
%TD*%
D12*
%TO.P,HX711,1,Pin_1*%
%TO.N,3.3V*%
X91440000Y-66040000D03*
D13*
%TO.P,HX711,2,Pin_2*%
%TO.N,SCK*%
X91440000Y-64040000D03*
%TO.P,HX711,3,Pin_3*%
%TO.N,DT*%
X91440000Y-62040000D03*
%TO.P,HX711,4,Pin_4*%
%TO.N,GND*%
X91440000Y-60040000D03*
%TD*%
D18*
%TO.P,U1,1,3V3*%
%TO.N,3.3V*%
X97028000Y-66781000D03*
D19*
%TO.P,U1,2,GND*%
%TO.N,GND*%
X97028000Y-69321000D03*
%TO.P,U1,3,D15*%
%TO.N,unconnected-(U1-D15-Pad3)*%
X97028000Y-71861000D03*
%TO.P,U1,4,D2*%
%TO.N,unconnected-(U1-D2-Pad4)*%
X97028000Y-74401000D03*
%TO.P,U1,5,D4*%
%TO.N,unconnected-(U1-D4-Pad5)*%
X97028000Y-76941000D03*
%TO.P,U1,6,RX2*%
%TO.N,unconnected-(U1-RX2-Pad6)*%
X97028000Y-79481000D03*
%TO.P,U1,7,TX2*%
%TO.N,unconnected-(U1-TX2-Pad7)*%
X97028000Y-82021000D03*
%TO.P,U1,8,D5*%
%TO.N,unconnected-(U1-D5-Pad8)*%
X97028000Y-84561000D03*
%TO.P,U1,9,D18*%
%TO.N,unconnected-(U1-D18-Pad9)*%
X97028000Y-87101000D03*
%TO.P,U1,10,D19*%
%TO.N,unconnected-(U1-D19-Pad10)*%
X97028000Y-89641000D03*
%TO.P,U1,11,D21*%
%TO.N,SDA*%
X97028000Y-92181000D03*
%TO.P,U1,12,RX0*%
%TO.N,unconnected-(U1-RX0-Pad12)*%
X97028000Y-94721000D03*
%TO.P,U1,13,TX0*%
%TO.N,unconnected-(U1-TX0-Pad13)*%
X97028000Y-97261000D03*
%TO.P,U1,14,D22*%
%TO.N,SCL*%
X97028000Y-99801000D03*
%TO.P,U1,15,D23*%
%TO.N,unconnected-(U1-D23-Pad15)*%
X97028000Y-102341000D03*
%TO.P,U1,16,EN*%
%TO.N,unconnected-(U1-EN-Pad16)*%
X122428000Y-102341000D03*
%TO.P,U1,17,VP*%
%TO.N,unconnected-(U1-VP-Pad17)*%
X122428000Y-99801000D03*
%TO.P,U1,18,VN*%
%TO.N,unconnected-(U1-VN-Pad18)*%
X122428000Y-97261000D03*
%TO.P,U1,19,D34*%
%TO.N,unconnected-(U1-D34-Pad19)*%
X122428000Y-94721000D03*
%TO.P,U1,20,D35*%
%TO.N,unconnected-(U1-D35-Pad20)*%
X122428000Y-92181000D03*
%TO.P,U1,21,D32*%
%TO.N,Temp*%
X122428000Y-89641000D03*
%TO.P,U1,22,D33*%
%TO.N,PWM Bomba*%
X122428000Y-87101000D03*
%TO.P,U1,23,D25*%
%TO.N,unconnected-(U1-D25-Pad23)*%
X122428000Y-84561000D03*
%TO.P,U1,24,D26*%
%TO.N,DT*%
X122428000Y-82021000D03*
%TO.P,U1,25,D27*%
%TO.N,SCK*%
X122428000Y-79481000D03*
%TO.P,U1,26,D14*%
%TO.N,unconnected-(U1-D14-Pad26)*%
X122428000Y-76941000D03*
%TO.P,U1,27,D12*%
%TO.N,unconnected-(U1-D12-Pad27)*%
X122428000Y-74401000D03*
%TO.P,U1,28,D13*%
%TO.N,unconnected-(U1-D13-Pad28)*%
X122428000Y-71861000D03*
%TO.P,U1,29,GND*%
%TO.N,GND*%
X122428000Y-69321000D03*
%TO.P,U1,30,VIN*%
%TO.N,+6V*%
X122428000Y-66781000D03*
%TD*%
D12*
%TO.P,GND,1,Pin_1*%
%TO.N,GND*%
X133451600Y-103428800D03*
%TD*%
%TO.P,GND,1,Pin_1*%
%TO.N,GND*%
X203403200Y-62280800D03*
%TD*%
D14*
%TO.P,Bomba1,1,Pin_1*%
%TO.N,Neg Bomba*%
X208280000Y-81828000D03*
D15*
%TO.P,Bomba1,2,Pin_2*%
%TO.N,Pos Bomba*%
X208280000Y-86828000D03*
%TD*%
D12*
%TO.P,GND,1,Pin_1*%
%TO.N,GND*%
X131927600Y-95148400D03*
%TD*%
D22*
%TO.P,U3,1,~{ENABLE}*%
%TO.N,unconnected-(U3-~{ENABLE}-Pad1)*%
X199390000Y-95250000D03*
D23*
%TO.P,U3,2,MS1*%
%TO.N,M1*%
X199390000Y-97790000D03*
%TO.P,U3,3,MS2*%
%TO.N,M2*%
X199390000Y-100330000D03*
%TO.P,U3,4,MS3*%
%TO.N,M3*%
X199390000Y-102870000D03*
%TO.P,U3,5,~{RESET}*%
%TO.N,Net-(U3-~{RESET})*%
X199390000Y-105410000D03*
%TO.P,U3,6,~{SLEEP}*%
X199390000Y-107950000D03*
%TO.P,U3,7,STEP*%
%TO.N,Step*%
X199390000Y-110490000D03*
%TO.P,U3,8,DIR*%
%TO.N,Dir*%
X199390000Y-113030000D03*
%TO.P,U3,9,GND*%
%TO.N,GND*%
X212090000Y-113030000D03*
%TO.P,U3,10,VDD*%
%TO.N,+6V*%
X212090000Y-110490000D03*
%TO.P,U3,11,1B*%
%TO.N,Net-(Nema17-Pin_1)*%
X212090000Y-107950000D03*
%TO.P,U3,12,1A*%
%TO.N,Net-(Nema17-Pin_2)*%
X212090000Y-105410000D03*
%TO.P,U3,13,2A*%
%TO.N,Net-(Nema17-Pin_3)*%
X212090000Y-102870000D03*
%TO.P,U3,14,2B*%
%TO.N,Net-(Nema17-Pin_4)*%
X212090000Y-100330000D03*
%TO.P,U3,15,GND*%
%TO.N,GND*%
X212090000Y-97790000D03*
%TO.P,U3,16,VMOT*%
%TO.N,12V*%
X212090000Y-95250000D03*
%TD*%
D12*
%TO.P,PWM,1,Pin_1*%
%TO.N,PWM Bomba*%
X129692400Y-84124800D03*
%TD*%
D24*
%TO.N,Net-(Nema17-Pin_1)*%
X216360000Y-107950000D02*
X218440000Y-105870000D01*
X212090000Y-107950000D02*
X216360000Y-107950000D01*
%TO.N,Net-(Nema17-Pin_2)*%
X214595200Y-103870000D02*
X218440000Y-103870000D01*
X213055200Y-105410000D02*
X214595200Y-103870000D01*
X212090000Y-105410000D02*
X213055200Y-105410000D01*
%TO.N,Net-(Nema17-Pin_3)*%
X213090000Y-101870000D02*
X218440000Y-101870000D01*
X212090000Y-102870000D02*
X213090000Y-101870000D01*
%TO.N,Net-(Nema17-Pin_4)*%
X213766400Y-98653600D02*
X212090000Y-100330000D01*
X217223600Y-98653600D02*
X213766400Y-98653600D01*
X218440000Y-99870000D02*
X217223600Y-98653600D01*
%TO.N,+6V*%
X143205200Y-81280000D02*
X143205200Y-83584800D01*
X143205200Y-83584800D02*
X137890000Y-88900000D01*
D25*
X137890000Y-93250000D02*
X122969000Y-108171000D01*
D24*
X205525076Y-93765076D02*
X194310000Y-82550000D01*
D25*
X122969000Y-108171000D02*
X120963887Y-108171000D01*
D24*
X140970000Y-91980000D02*
X148585000Y-91980000D01*
X194295000Y-72400000D02*
X194295000Y-75580000D01*
X153645000Y-86920000D02*
X153645000Y-77445000D01*
X129540000Y-76454000D02*
X134366000Y-81280000D01*
D25*
X119380000Y-68580000D02*
X121179000Y-66781000D01*
D24*
X134366000Y-81280000D02*
X143205200Y-81280000D01*
X211008127Y-110490000D02*
X205525076Y-105006949D01*
X172700000Y-64780000D02*
X176515000Y-64780000D01*
D25*
X120963887Y-108171000D02*
X119408000Y-106615113D01*
X121179000Y-66781000D02*
X122428000Y-66781000D01*
D24*
X205525076Y-105006949D02*
X205525076Y-93765076D01*
D25*
X137890000Y-88900000D02*
X137890000Y-93250000D01*
X119380000Y-100330000D02*
X119380000Y-68580000D01*
D24*
X143205200Y-81280000D02*
X147320000Y-81280000D01*
X170170000Y-67310000D02*
X172700000Y-64780000D01*
X170170000Y-68580000D02*
X166370000Y-68580000D01*
X170170000Y-71110000D02*
X170170000Y-67310000D01*
X171536000Y-82550000D02*
X163830000Y-74844000D01*
X194310000Y-82550000D02*
X171536000Y-82550000D01*
X137890000Y-88900000D02*
X140970000Y-91980000D01*
X148585000Y-91980000D02*
X153645000Y-86920000D01*
X191965000Y-77910000D02*
X176970000Y-77910000D01*
X176970000Y-77910000D02*
X170170000Y-71110000D01*
X152400000Y-76200000D02*
X158750000Y-76200000D01*
X194295000Y-75580000D02*
X191965000Y-77910000D01*
X212090000Y-110490000D02*
X211008127Y-110490000D01*
X153645000Y-77445000D02*
X152400000Y-76200000D01*
X163830000Y-71120000D02*
X158750000Y-76200000D01*
X166370000Y-68580000D02*
X163830000Y-71120000D01*
X137890000Y-88900000D02*
X136080000Y-88900000D01*
X163830000Y-74844000D02*
X163830000Y-71120000D01*
D25*
X119408000Y-100358000D02*
X119380000Y-100330000D01*
D24*
X147320000Y-81280000D02*
X152400000Y-76200000D01*
D25*
X119408000Y-106615113D02*
X119408000Y-100358000D01*
%TO.N,PWM Bomba*%
X187807600Y-75336400D02*
X188818600Y-75336400D01*
X122428000Y-87101000D02*
X126716200Y-87101000D01*
X188818600Y-75336400D02*
X191755000Y-72400000D01*
X126716200Y-87101000D02*
X129692400Y-84124800D01*
%TO.N,SDA*%
X97028000Y-92181000D02*
X94721000Y-92181000D01*
X115438478Y-114300000D02*
X117724478Y-116586000D01*
X91440000Y-95462000D02*
X91440000Y-103157113D01*
X117724478Y-116586000D02*
X192024000Y-116586000D01*
X180450787Y-109500000D02*
X179045000Y-110905787D01*
X91440000Y-103157113D02*
X102582887Y-114300000D01*
X102582887Y-114300000D02*
X115438478Y-114300000D01*
X192024000Y-116586000D02*
X195580000Y-113030000D01*
X193629113Y-109500000D02*
X180450787Y-109500000D01*
X195580000Y-113030000D02*
X195580000Y-111450887D01*
X195580000Y-111450887D02*
X193629113Y-109500000D01*
X179045000Y-110905787D02*
X179045000Y-112320000D01*
X94721000Y-92181000D02*
X91440000Y-95462000D01*
%TO.N,SCL*%
X99918000Y-108143792D02*
X102294208Y-110520000D01*
X99918000Y-101276787D02*
X99918000Y-108143792D01*
X184434000Y-115286000D02*
X186665000Y-113055000D01*
X186665000Y-113055000D02*
X186665000Y-112320000D01*
X140910887Y-110520000D02*
X145676887Y-115286000D01*
X97028000Y-99801000D02*
X98442213Y-99801000D01*
X102294208Y-110520000D02*
X140910887Y-110520000D01*
X145676887Y-115286000D02*
X184434000Y-115286000D01*
X98442213Y-99801000D02*
X99918000Y-101276787D01*
D26*
%TO.N,GND*%
X97028000Y-69321000D02*
X99801000Y-69321000D01*
D25*
X156185000Y-112320000D02*
X156185000Y-109601400D01*
D26*
X99801000Y-69321000D02*
X100330000Y-69850000D01*
X97028000Y-69321000D02*
X94509000Y-69321000D01*
X94509000Y-69321000D02*
X93980000Y-69850000D01*
D25*
%TO.N,DT*%
X122428000Y-82021000D02*
X123842213Y-82021000D01*
X93980000Y-57150000D02*
X95250000Y-55880000D01*
X123842213Y-82021000D02*
X127000000Y-78863213D01*
X127000000Y-58420000D02*
X124460000Y-55880000D01*
X127000000Y-78863213D02*
X127000000Y-58420000D01*
X93980000Y-60454594D02*
X93980000Y-57150000D01*
X91440000Y-62040000D02*
X92394594Y-62040000D01*
X124460000Y-55880000D02*
X95250000Y-55880000D01*
X92394594Y-62040000D02*
X93980000Y-60454594D01*
%TO.N,SCK*%
X95250000Y-62230000D02*
X93440000Y-64040000D01*
X93440000Y-64040000D02*
X91440000Y-64040000D01*
X120650000Y-62230000D02*
X95250000Y-62230000D01*
X123842213Y-79481000D02*
X125700000Y-77623213D01*
X125700000Y-67280000D02*
X120650000Y-62230000D01*
X125700000Y-77623213D02*
X125700000Y-67280000D01*
X122428000Y-79481000D02*
X123842213Y-79481000D01*
%TO.N,3.3V*%
X96287000Y-66040000D02*
X97028000Y-66781000D01*
X91440000Y-66040000D02*
X96287000Y-66040000D01*
%TO.N,Pos Bomba*%
X210480000Y-75270000D02*
X205740000Y-80010000D01*
X210480000Y-72080000D02*
X210480000Y-75270000D01*
X190915000Y-70700000D02*
X205320000Y-70700000D01*
X205320000Y-70700000D02*
X206080000Y-71460000D01*
X209860000Y-71460000D02*
X210480000Y-72080000D01*
X206080000Y-71460000D02*
X209860000Y-71460000D01*
X205740000Y-80010000D02*
X205740000Y-84288000D01*
X205740000Y-84288000D02*
X208280000Y-86828000D01*
X189215000Y-72400000D02*
X190915000Y-70700000D01*
%TO.N,Neg Bomba*%
X184150000Y-68580000D02*
X181595000Y-71135000D01*
X208280000Y-81828000D02*
X212090000Y-78018000D01*
X200660000Y-64770000D02*
X196850000Y-68580000D01*
X212090000Y-68580000D02*
X208280000Y-64770000D01*
X181595000Y-71135000D02*
X181595000Y-72400000D01*
X196850000Y-68580000D02*
X184150000Y-68580000D01*
X212090000Y-78018000D02*
X212090000Y-68580000D01*
X208280000Y-64770000D02*
X200660000Y-64770000D01*
%TO.N,Dir*%
X176530000Y-90170000D02*
X177800000Y-91440000D01*
X177800000Y-91440000D02*
X201078680Y-91440000D01*
X176530000Y-86945000D02*
X176530000Y-90170000D01*
X201078680Y-91440000D02*
X203200000Y-93561320D01*
X203200000Y-109220000D02*
X199390000Y-113030000D01*
X203200000Y-93561320D02*
X203200000Y-109220000D01*
%TO.N,Step*%
X173965000Y-86920000D02*
X173965000Y-89443478D01*
X201385202Y-93585000D02*
X201900000Y-94099798D01*
X201900000Y-107980000D02*
X199390000Y-110490000D01*
X178106522Y-93585000D02*
X201385202Y-93585000D01*
X173965000Y-89443478D02*
X178106522Y-93585000D01*
X201900000Y-94099798D02*
X201900000Y-107980000D01*
%TO.N,Encoder*%
X158725000Y-88334213D02*
X158725000Y-86920000D01*
X140970000Y-95980000D02*
X151079213Y-95980000D01*
X151079213Y-95980000D02*
X158725000Y-88334213D01*
D26*
%TO.N,12V*%
X193810000Y-80010000D02*
X195580000Y-78240000D01*
X212090000Y-95250000D02*
X195580000Y-78740000D01*
X203700000Y-78240000D02*
X208280000Y-73660000D01*
X195580000Y-78740000D02*
X195580000Y-78240000D01*
X195580000Y-78240000D02*
X203700000Y-78240000D01*
X173990000Y-80010000D02*
X193810000Y-80010000D01*
X170434000Y-76454000D02*
X173990000Y-80010000D01*
D25*
%TO.N,Temp*%
X131339000Y-89641000D02*
X132080000Y-88900000D01*
X122428000Y-89641000D02*
X131339000Y-89641000D01*
%TO.N,M1*%
X171425000Y-110905787D02*
X184540787Y-97790000D01*
X171425000Y-112320000D02*
X171425000Y-110905787D01*
X184540787Y-97790000D02*
X199390000Y-97790000D01*
%TO.N,M2*%
X173965000Y-110905787D02*
X184540787Y-100330000D01*
X184540787Y-100330000D02*
X199390000Y-100330000D01*
X173965000Y-112320000D02*
X173965000Y-110905787D01*
%TO.N,M3*%
X184540787Y-102870000D02*
X199390000Y-102870000D01*
X176505000Y-110905787D02*
X184540787Y-102870000D01*
X176505000Y-112320000D02*
X176505000Y-110905787D01*
%TO.N,Net-(U3-~{RESET})*%
X199390000Y-107950000D02*
X199390000Y-105410000D01*
%TD*%
%TA.AperFunction,Conductor*%
%TO.N,GND*%
G36*
X221588288Y-53166954D02*
G01*
X221669070Y-53220930D01*
X221723046Y-53301712D01*
X221742000Y-53397000D01*
X221742000Y-117305000D01*
X221723046Y-117400288D01*
X221669070Y-117481070D01*
X221588288Y-117535046D01*
X221493000Y-117554000D01*
X193072060Y-117554000D01*
X192976772Y-117535046D01*
X192895990Y-117481070D01*
X192842014Y-117400288D01*
X192823060Y-117305000D01*
X192842014Y-117209712D01*
X192895990Y-117128930D01*
X194555944Y-115468976D01*
X196276313Y-113748606D01*
X196280750Y-113744281D01*
X196343053Y-113685059D01*
X196374040Y-113640536D01*
X196385417Y-113625447D01*
X196419697Y-113583408D01*
X196430112Y-113563467D01*
X196446442Y-113536513D01*
X196459295Y-113518049D01*
X196480693Y-113468183D01*
X196488795Y-113451125D01*
X196513909Y-113403049D01*
X196520095Y-113381425D01*
X196530668Y-113351729D01*
X196539540Y-113331058D01*
X196550456Y-113277930D01*
X196554963Y-113259566D01*
X196569886Y-113207418D01*
X196571593Y-113184989D01*
X196575972Y-113153774D01*
X196580500Y-113131742D01*
X196580500Y-113077507D01*
X196581219Y-113058599D01*
X196585337Y-113004524D01*
X196582495Y-112982209D01*
X196580500Y-112950751D01*
X196580500Y-111466752D01*
X196580580Y-111460446D01*
X196580746Y-111453906D01*
X196582757Y-111374524D01*
X196573190Y-111321147D01*
X196570562Y-111302409D01*
X196565074Y-111248449D01*
X196558339Y-111226981D01*
X196550827Y-111196381D01*
X196546858Y-111174234D01*
X196526735Y-111123858D01*
X196520398Y-111106059D01*
X196504159Y-111054299D01*
X196493241Y-111034630D01*
X196479718Y-111006153D01*
X196471377Y-110985270D01*
X196441529Y-110939981D01*
X196431726Y-110923800D01*
X196418705Y-110900341D01*
X196405409Y-110876385D01*
X196390751Y-110859310D01*
X196371774Y-110834141D01*
X196359403Y-110815370D01*
X196321048Y-110777015D01*
X196308186Y-110763135D01*
X196272867Y-110721992D01*
X196255078Y-110708223D01*
X196231423Y-110687390D01*
X194347775Y-108803742D01*
X194343372Y-108799225D01*
X194284172Y-108736947D01*
X194239657Y-108705964D01*
X194224549Y-108694572D01*
X194182521Y-108660303D01*
X194182520Y-108660302D01*
X194171317Y-108654450D01*
X194162573Y-108649882D01*
X194135622Y-108633553D01*
X194117162Y-108620705D01*
X194067315Y-108599313D01*
X194050229Y-108591198D01*
X194002163Y-108566090D01*
X193980539Y-108559903D01*
X193950845Y-108549331D01*
X193930171Y-108540459D01*
X193877037Y-108529539D01*
X193858667Y-108525030D01*
X193806533Y-108510113D01*
X193784093Y-108508404D01*
X193752886Y-108504027D01*
X193730855Y-108499500D01*
X193730854Y-108499500D01*
X193676623Y-108499500D01*
X193657716Y-108498781D01*
X193603637Y-108494662D01*
X193581321Y-108497505D01*
X193549863Y-108499500D01*
X180927347Y-108499500D01*
X180832059Y-108480546D01*
X180751277Y-108426570D01*
X180697301Y-108345788D01*
X180678347Y-108250500D01*
X180697301Y-108155212D01*
X180751277Y-108074430D01*
X184882277Y-103943430D01*
X184963059Y-103889454D01*
X185058347Y-103870500D01*
X198366789Y-103870500D01*
X198447640Y-103883992D01*
X198519729Y-103923005D01*
X198546067Y-103943505D01*
X198605971Y-104010778D01*
X198638020Y-104094961D01*
X198638020Y-104185039D01*
X198605971Y-104269223D01*
X198546067Y-104336495D01*
X198462004Y-104401923D01*
X198308732Y-104568420D01*
X198184963Y-104757866D01*
X198094060Y-104965099D01*
X198038507Y-105184475D01*
X198019820Y-105410000D01*
X198038507Y-105635524D01*
X198094060Y-105854900D01*
X198152375Y-105987842D01*
X198184963Y-106062134D01*
X198233872Y-106136995D01*
X198308734Y-106251582D01*
X198323693Y-106267831D01*
X198372466Y-106345961D01*
X198389500Y-106436476D01*
X198389500Y-106923524D01*
X198372466Y-107014039D01*
X198323693Y-107092169D01*
X198308734Y-107108417D01*
X198184963Y-107297866D01*
X198094060Y-107505099D01*
X198038507Y-107724475D01*
X198019820Y-107950000D01*
X198038507Y-108175524D01*
X198094060Y-108394900D01*
X198151142Y-108525030D01*
X198184963Y-108602134D01*
X198222966Y-108660302D01*
X198308732Y-108791579D01*
X198319929Y-108803742D01*
X198454939Y-108950402D01*
X198462004Y-108958076D01*
X198546067Y-109023505D01*
X198605971Y-109090777D01*
X198638020Y-109174961D01*
X198638020Y-109265039D01*
X198605971Y-109349223D01*
X198546067Y-109416495D01*
X198462004Y-109481923D01*
X198308732Y-109648420D01*
X198184963Y-109837866D01*
X198094060Y-110045099D01*
X198038507Y-110264475D01*
X198019820Y-110490000D01*
X198038507Y-110715524D01*
X198094060Y-110934900D01*
X198139715Y-111038980D01*
X198184963Y-111142134D01*
X198213071Y-111185157D01*
X198308732Y-111331579D01*
X198351266Y-111377783D01*
X198454406Y-111489823D01*
X198462004Y-111498076D01*
X198546067Y-111563505D01*
X198605971Y-111630777D01*
X198638020Y-111714961D01*
X198638020Y-111805039D01*
X198605971Y-111889223D01*
X198546067Y-111956495D01*
X198462004Y-112021923D01*
X198308732Y-112188420D01*
X198184963Y-112377866D01*
X198094060Y-112585099D01*
X198038507Y-112804475D01*
X198023605Y-112984314D01*
X198019820Y-113030000D01*
X198023775Y-113077727D01*
X198038507Y-113255524D01*
X198094060Y-113474900D01*
X198158955Y-113622842D01*
X198184963Y-113682134D01*
X198228180Y-113748283D01*
X198308732Y-113871579D01*
X198462003Y-114038075D01*
X198640584Y-114177070D01*
X198814049Y-114270944D01*
X198839605Y-114284774D01*
X199053641Y-114358253D01*
X199276851Y-114395500D01*
X199503149Y-114395500D01*
X199726359Y-114358253D01*
X199940395Y-114284774D01*
X200139417Y-114177069D01*
X200248755Y-114091968D01*
X211387240Y-114091968D01*
X211451070Y-114136662D01*
X211652946Y-114230798D01*
X211868102Y-114288449D01*
X212090000Y-114307863D01*
X212311897Y-114288449D01*
X212527054Y-114230798D01*
X212728935Y-114136660D01*
X212792758Y-114091970D01*
X212792758Y-114091969D01*
X212089999Y-113389210D01*
X211387240Y-114091968D01*
X200248755Y-114091968D01*
X200317998Y-114038074D01*
X200471265Y-113871582D01*
X200595037Y-113682134D01*
X200685940Y-113474897D01*
X200741493Y-113255524D01*
X200748600Y-113169746D01*
X200770837Y-113085598D01*
X200809671Y-113029999D01*
X210812136Y-113029999D01*
X210831550Y-113251897D01*
X210889201Y-113467053D01*
X210983336Y-113668928D01*
X211028030Y-113732758D01*
X211730789Y-113030000D01*
X211730788Y-113029999D01*
X212449210Y-113029999D01*
X213151969Y-113732758D01*
X213151970Y-113732758D01*
X213196660Y-113668935D01*
X213290798Y-113467054D01*
X213348449Y-113251897D01*
X213367863Y-113029999D01*
X213348449Y-112808102D01*
X213290798Y-112592948D01*
X213196660Y-112391067D01*
X213151968Y-112327240D01*
X212449210Y-113029999D01*
X211730788Y-113029999D01*
X211028029Y-112327240D01*
X210983338Y-112391067D01*
X210889201Y-112592946D01*
X210831550Y-112808102D01*
X210812136Y-113029999D01*
X200809671Y-113029999D01*
X200820676Y-113014243D01*
X203896314Y-109938605D01*
X203900750Y-109934281D01*
X203963053Y-109875059D01*
X203994051Y-109830521D01*
X204005410Y-109815457D01*
X204039698Y-109773407D01*
X204050113Y-109753467D01*
X204066448Y-109726507D01*
X204074755Y-109714572D01*
X204079295Y-109708049D01*
X204100685Y-109658201D01*
X204108799Y-109641118D01*
X204122138Y-109615583D01*
X204133909Y-109593049D01*
X204140095Y-109571425D01*
X204150666Y-109541735D01*
X204159540Y-109521058D01*
X204170458Y-109467924D01*
X204174959Y-109449585D01*
X204189887Y-109397418D01*
X204191595Y-109374973D01*
X204195971Y-109343775D01*
X204200500Y-109321741D01*
X204200500Y-109267509D01*
X204201219Y-109248602D01*
X204205337Y-109194523D01*
X204202495Y-109172207D01*
X204200500Y-109140749D01*
X204200500Y-105987842D01*
X204218727Y-105894328D01*
X204270740Y-105814505D01*
X204348924Y-105760058D01*
X204441832Y-105738960D01*
X204535863Y-105754299D01*
X204617250Y-105803829D01*
X204691541Y-105871554D01*
X204699861Y-105879497D01*
X210135577Y-111315213D01*
X210143501Y-111323512D01*
X210195891Y-111380981D01*
X210257955Y-111427849D01*
X210266930Y-111434957D01*
X210326774Y-111484652D01*
X210336058Y-111489823D01*
X210364947Y-111508646D01*
X210373438Y-111515058D01*
X210443042Y-111549717D01*
X210453215Y-111555079D01*
X210521142Y-111592915D01*
X210531228Y-111596295D01*
X210563082Y-111609489D01*
X210572599Y-111614229D01*
X210647408Y-111635513D01*
X210658372Y-111638908D01*
X210732094Y-111663618D01*
X210742627Y-111665087D01*
X210776355Y-111672202D01*
X210786591Y-111675115D01*
X210864036Y-111682290D01*
X210875446Y-111683614D01*
X210952446Y-111694356D01*
X210952446Y-111694355D01*
X210952447Y-111694356D01*
X211030098Y-111690766D01*
X211041598Y-111690500D01*
X211139785Y-111690500D01*
X211220852Y-111704066D01*
X211293085Y-111743286D01*
X211348615Y-111803886D01*
X211381389Y-111879263D01*
X211387837Y-111961204D01*
X211387239Y-111968028D01*
X212090000Y-112670789D01*
X212792758Y-111968030D01*
X212788177Y-111915670D01*
X212769061Y-111870345D01*
X212766723Y-111777822D01*
X212798338Y-111690837D01*
X212859538Y-111621408D01*
X212884749Y-111601786D01*
X213017998Y-111498074D01*
X213171265Y-111331582D01*
X213295037Y-111142134D01*
X213385940Y-110934897D01*
X213441493Y-110715524D01*
X213460180Y-110490000D01*
X213441493Y-110264476D01*
X213385940Y-110045103D01*
X213385939Y-110045099D01*
X213346845Y-109955976D01*
X213295037Y-109837866D01*
X213210224Y-109708049D01*
X213171267Y-109648420D01*
X213141038Y-109615583D01*
X213097366Y-109568142D01*
X213047371Y-109486809D01*
X213031657Y-109392639D01*
X213052534Y-109299478D01*
X213106935Y-109221021D01*
X213186861Y-109168803D01*
X213280562Y-109150500D01*
X216326529Y-109150500D01*
X216338029Y-109150766D01*
X216415676Y-109154356D01*
X216415677Y-109154355D01*
X216415681Y-109154356D01*
X216492722Y-109143608D01*
X216504071Y-109142292D01*
X216581536Y-109135115D01*
X216591772Y-109132202D01*
X216625520Y-109125084D01*
X216636033Y-109123618D01*
X216691853Y-109104909D01*
X216709746Y-109098912D01*
X216720739Y-109095508D01*
X216787272Y-109076578D01*
X216795528Y-109074229D01*
X216805038Y-109069492D01*
X216836914Y-109056290D01*
X216838943Y-109055610D01*
X216846985Y-109052915D01*
X216914940Y-109015062D01*
X216925072Y-109009722D01*
X216994689Y-108975058D01*
X217003164Y-108968657D01*
X217032067Y-108949824D01*
X217041353Y-108944652D01*
X217101187Y-108894964D01*
X217110192Y-108887833D01*
X217134487Y-108869487D01*
X217172236Y-108840981D01*
X217224628Y-108783508D01*
X217232527Y-108775234D01*
X218789333Y-107218428D01*
X218870115Y-107164453D01*
X218965403Y-107145499D01*
X219154360Y-107145499D01*
X219271762Y-107130044D01*
X219417841Y-107069536D01*
X219543282Y-106973282D01*
X219639536Y-106847841D01*
X219700044Y-106701762D01*
X219715500Y-106584361D01*
X219715499Y-105155640D01*
X219700044Y-105038238D01*
X219639536Y-104892159D01*
X219563407Y-104792946D01*
X219526053Y-104723965D01*
X219512013Y-104646785D01*
X219522681Y-104569067D01*
X219541333Y-104530726D01*
X219539628Y-104529931D01*
X219573353Y-104457607D01*
X219643156Y-104307913D01*
X219700920Y-104092334D01*
X219720372Y-103870000D01*
X219718327Y-103846631D01*
X219700920Y-103647665D01*
X219681013Y-103573370D01*
X219643156Y-103432087D01*
X219548835Y-103229814D01*
X219420822Y-103046993D01*
X219419899Y-103046070D01*
X219414124Y-103037427D01*
X219408327Y-103029148D01*
X219408507Y-103029021D01*
X219365923Y-102965288D01*
X219346969Y-102870000D01*
X219365923Y-102774712D01*
X219408507Y-102710978D01*
X219408327Y-102710852D01*
X219414124Y-102702572D01*
X219419899Y-102693930D01*
X219419898Y-102693930D01*
X219420822Y-102693007D01*
X219548835Y-102510186D01*
X219643156Y-102307913D01*
X219700920Y-102092334D01*
X219720372Y-101870000D01*
X219708055Y-101729223D01*
X219700920Y-101647665D01*
X219676080Y-101554961D01*
X219643156Y-101432087D01*
X219548835Y-101229814D01*
X219420822Y-101046993D01*
X219419899Y-101046070D01*
X219414124Y-101037427D01*
X219408327Y-101029148D01*
X219408507Y-101029021D01*
X219365923Y-100965288D01*
X219346969Y-100870000D01*
X219365923Y-100774712D01*
X219408507Y-100710978D01*
X219408327Y-100710852D01*
X219414124Y-100702572D01*
X219419899Y-100693930D01*
X219419899Y-100693929D01*
X219420822Y-100693007D01*
X219548835Y-100510186D01*
X219643156Y-100307913D01*
X219700920Y-100092334D01*
X219720372Y-99870000D01*
X219700920Y-99647666D01*
X219643156Y-99432087D01*
X219548835Y-99229814D01*
X219420822Y-99046993D01*
X219263007Y-98889178D01*
X219222626Y-98860903D01*
X219080183Y-98761163D01*
X219023933Y-98734933D01*
X218953096Y-98685333D01*
X218096148Y-97828385D01*
X218088205Y-97820065D01*
X218060797Y-97790000D01*
X218035836Y-97762619D01*
X217973770Y-97715750D01*
X217964769Y-97708619D01*
X217904955Y-97658950D01*
X217904956Y-97658950D01*
X217904953Y-97658948D01*
X217895659Y-97653771D01*
X217866776Y-97634951D01*
X217858286Y-97628540D01*
X217788700Y-97593890D01*
X217778525Y-97588527D01*
X217710585Y-97550684D01*
X217700496Y-97547303D01*
X217668649Y-97534111D01*
X217659129Y-97529371D01*
X217584342Y-97508092D01*
X217573358Y-97504691D01*
X217499631Y-97479981D01*
X217489100Y-97478512D01*
X217455376Y-97471398D01*
X217445137Y-97468485D01*
X217367681Y-97461307D01*
X217356258Y-97459981D01*
X217279282Y-97449243D01*
X217201629Y-97452834D01*
X217190129Y-97453100D01*
X213799892Y-97453100D01*
X213788393Y-97452834D01*
X213783172Y-97452592D01*
X213710717Y-97449242D01*
X213633718Y-97459983D01*
X213622295Y-97461309D01*
X213527525Y-97470091D01*
X213451592Y-97465456D01*
X213380603Y-97438112D01*
X213321183Y-97390610D01*
X213278878Y-97327384D01*
X213196661Y-97151069D01*
X213151969Y-97087240D01*
X212090000Y-98149210D01*
X211387240Y-98851968D01*
X211391820Y-98904324D01*
X211410938Y-98949649D01*
X211413277Y-99042172D01*
X211381663Y-99129158D01*
X211320464Y-99198589D01*
X211162004Y-99321923D01*
X211008732Y-99488420D01*
X210884963Y-99677866D01*
X210794060Y-99885099D01*
X210738507Y-100104475D01*
X210721134Y-100314135D01*
X210719820Y-100330000D01*
X210726792Y-100414142D01*
X210738507Y-100555524D01*
X210794060Y-100774900D01*
X210862237Y-100930324D01*
X210884963Y-100982134D01*
X210926734Y-101046070D01*
X211008732Y-101171579D01*
X211162004Y-101338076D01*
X211246067Y-101403505D01*
X211305971Y-101470777D01*
X211338020Y-101554961D01*
X211338020Y-101645039D01*
X211305971Y-101729223D01*
X211246067Y-101796495D01*
X211162004Y-101861923D01*
X211008732Y-102028420D01*
X210884963Y-102217866D01*
X210794060Y-102425099D01*
X210738507Y-102644475D01*
X210719820Y-102869999D01*
X210738507Y-103095524D01*
X210794060Y-103314900D01*
X210845465Y-103432089D01*
X210884963Y-103522134D01*
X210918437Y-103573370D01*
X211008732Y-103711579D01*
X211077061Y-103785804D01*
X211154568Y-103869999D01*
X211162004Y-103878076D01*
X211246067Y-103943505D01*
X211305971Y-104010777D01*
X211338020Y-104094961D01*
X211338020Y-104185039D01*
X211305971Y-104269223D01*
X211246067Y-104336495D01*
X211162004Y-104401923D01*
X211008732Y-104568420D01*
X210884963Y-104757866D01*
X210794060Y-104965099D01*
X210738507Y-105184475D01*
X210719820Y-105410000D01*
X210738507Y-105635524D01*
X210794060Y-105854900D01*
X210852375Y-105987842D01*
X210884963Y-106062134D01*
X210932715Y-106135225D01*
X211008732Y-106251579D01*
X211162004Y-106418076D01*
X211246067Y-106483505D01*
X211305971Y-106550777D01*
X211338020Y-106634961D01*
X211338020Y-106725039D01*
X211305971Y-106809223D01*
X211246067Y-106876495D01*
X211162004Y-106941923D01*
X211008732Y-107108420D01*
X210884963Y-107297866D01*
X210794060Y-107505099D01*
X210738507Y-107724475D01*
X210721794Y-107926176D01*
X210696585Y-108016512D01*
X210639747Y-108091115D01*
X210559344Y-108139401D01*
X210466783Y-108154519D01*
X210375195Y-108134325D01*
X210297574Y-108081684D01*
X206798506Y-104582616D01*
X206744530Y-104501834D01*
X206725576Y-104406546D01*
X206725576Y-97790000D01*
X210812136Y-97790000D01*
X210831550Y-98011897D01*
X210889201Y-98227053D01*
X210983336Y-98428928D01*
X211028030Y-98492758D01*
X211730789Y-97790000D01*
X211028029Y-97087240D01*
X210983338Y-97151067D01*
X210889201Y-97352946D01*
X210831550Y-97568102D01*
X210812136Y-97790000D01*
X206725576Y-97790000D01*
X206725576Y-93798568D01*
X206725842Y-93787068D01*
X206729433Y-93709399D01*
X206729432Y-93709398D01*
X206729433Y-93709395D01*
X206718683Y-93632336D01*
X206717366Y-93620982D01*
X206710191Y-93543540D01*
X206707282Y-93533316D01*
X206700164Y-93499572D01*
X206698696Y-93489049D01*
X206698695Y-93489047D01*
X206698695Y-93489044D01*
X206673975Y-93415291D01*
X206670585Y-93404341D01*
X206667542Y-93393647D01*
X206649305Y-93329548D01*
X206644566Y-93320033D01*
X206631365Y-93288159D01*
X206631326Y-93288044D01*
X206627991Y-93278091D01*
X206627990Y-93278088D01*
X206590150Y-93210153D01*
X206584786Y-93199977D01*
X206562431Y-93155083D01*
X206550134Y-93130387D01*
X206543736Y-93121915D01*
X206524906Y-93093019D01*
X206519729Y-93083723D01*
X206519725Y-93083718D01*
X206519724Y-93083716D01*
X206470043Y-93023887D01*
X206462901Y-93014871D01*
X206416059Y-92952842D01*
X206358609Y-92900469D01*
X206350291Y-92892527D01*
X195182548Y-81724785D01*
X195174605Y-81716465D01*
X195139666Y-81678139D01*
X195122236Y-81659019D01*
X195060170Y-81612150D01*
X195051169Y-81605019D01*
X194991355Y-81555350D01*
X194991356Y-81555350D01*
X194991353Y-81555348D01*
X194985668Y-81552181D01*
X194912795Y-81490694D01*
X194868373Y-81406323D01*
X194858919Y-81311443D01*
X194885818Y-81219966D01*
X194933005Y-81160565D01*
X194932494Y-81160129D01*
X194944774Y-81145749D01*
X194945124Y-81145308D01*
X194945224Y-81145224D01*
X194979847Y-81104684D01*
X194993094Y-81090353D01*
X195153931Y-80929517D01*
X195234711Y-80875542D01*
X195329999Y-80856588D01*
X195425287Y-80875542D01*
X195506069Y-80929518D01*
X211002740Y-96426189D01*
X211146341Y-96548836D01*
X211146343Y-96548837D01*
X211146344Y-96548838D01*
X211280575Y-96631095D01*
X211326543Y-96667332D01*
X212090000Y-97430789D01*
X212853454Y-96667334D01*
X212899416Y-96631100D01*
X213033659Y-96548836D01*
X213225224Y-96385224D01*
X213388836Y-96193659D01*
X213520466Y-95978859D01*
X213616873Y-95746111D01*
X213675683Y-95501148D01*
X213695449Y-95250000D01*
X213675683Y-94998852D01*
X213616873Y-94753889D01*
X213594511Y-94699901D01*
X213520468Y-94521144D01*
X213461364Y-94424696D01*
X213388836Y-94306341D01*
X213266189Y-94162740D01*
X208251921Y-89148472D01*
X208199098Y-89070425D01*
X208179065Y-88978332D01*
X208194694Y-88885389D01*
X208243746Y-88804914D01*
X208319195Y-88748433D01*
X208410226Y-88724040D01*
X208551160Y-88713961D01*
X208816801Y-88656175D01*
X209071513Y-88561172D01*
X209310113Y-88430887D01*
X209527742Y-88267971D01*
X209719971Y-88075742D01*
X209882887Y-87858113D01*
X210013172Y-87619513D01*
X210108175Y-87364801D01*
X210165961Y-87099160D01*
X210185355Y-86828000D01*
X210165961Y-86556840D01*
X210108175Y-86291199D01*
X210013172Y-86036487D01*
X209882887Y-85797887D01*
X209719971Y-85580258D01*
X209527742Y-85388029D01*
X209310113Y-85225113D01*
X209085825Y-85102643D01*
X209071515Y-85094829D01*
X209071514Y-85094828D01*
X209071513Y-85094828D01*
X208816801Y-84999825D01*
X208673090Y-84968563D01*
X208551161Y-84942039D01*
X208280000Y-84922645D01*
X208008837Y-84942039D01*
X207977524Y-84948851D01*
X207895035Y-84952779D01*
X207815799Y-84929512D01*
X207748530Y-84881610D01*
X207020489Y-84153569D01*
X206966513Y-84072787D01*
X206947559Y-83977499D01*
X206966513Y-83882211D01*
X207020489Y-83801429D01*
X207101271Y-83747453D01*
X207196554Y-83728499D01*
X209619360Y-83728499D01*
X209736762Y-83713044D01*
X209882841Y-83652536D01*
X210008282Y-83556282D01*
X210104536Y-83430841D01*
X210165044Y-83284762D01*
X210180500Y-83167361D01*
X210180499Y-81445559D01*
X210188983Y-81381114D01*
X210213859Y-81321060D01*
X210253425Y-81269494D01*
X212786314Y-78736605D01*
X212790750Y-78732281D01*
X212853053Y-78673059D01*
X212884051Y-78628521D01*
X212895410Y-78613457D01*
X212929698Y-78571407D01*
X212940113Y-78551467D01*
X212956448Y-78524507D01*
X212962398Y-78515957D01*
X212969295Y-78506049D01*
X212990685Y-78456201D01*
X212998799Y-78439118D01*
X213023909Y-78391049D01*
X213030095Y-78369425D01*
X213040666Y-78339735D01*
X213049540Y-78319058D01*
X213060458Y-78265924D01*
X213064959Y-78247585D01*
X213079887Y-78195418D01*
X213081595Y-78172973D01*
X213085971Y-78141775D01*
X213090500Y-78119741D01*
X213090500Y-78065509D01*
X213091219Y-78046602D01*
X213095337Y-77992523D01*
X213092495Y-77970207D01*
X213090500Y-77938749D01*
X213090500Y-68595865D01*
X213090580Y-68589559D01*
X213090863Y-68578373D01*
X213092757Y-68503637D01*
X213083184Y-68450229D01*
X213080562Y-68431537D01*
X213075074Y-68377562D01*
X213068340Y-68356102D01*
X213060824Y-68325479D01*
X213056858Y-68303348D01*
X213036739Y-68252981D01*
X213030396Y-68235162D01*
X213022276Y-68209282D01*
X213014159Y-68183412D01*
X213003241Y-68163742D01*
X212989725Y-68135282D01*
X212981378Y-68114383D01*
X212951533Y-68069100D01*
X212941730Y-68052920D01*
X212938191Y-68046544D01*
X212915409Y-68005498D01*
X212900748Y-67988420D01*
X212881780Y-67963263D01*
X212869401Y-67944480D01*
X212831048Y-67906127D01*
X212818200Y-67892264D01*
X212782866Y-67851105D01*
X212765076Y-67837335D01*
X212741423Y-67816503D01*
X208998662Y-64073742D01*
X208994259Y-64069225D01*
X208935059Y-64006947D01*
X208935058Y-64006946D01*
X208890539Y-63975960D01*
X208875436Y-63964572D01*
X208833408Y-63930303D01*
X208833407Y-63930302D01*
X208822204Y-63924450D01*
X208813460Y-63919882D01*
X208786509Y-63903553D01*
X208768049Y-63890705D01*
X208718202Y-63869313D01*
X208701116Y-63861198D01*
X208653050Y-63836090D01*
X208631426Y-63829903D01*
X208601732Y-63819331D01*
X208581058Y-63810459D01*
X208527924Y-63799539D01*
X208509554Y-63795030D01*
X208457420Y-63780113D01*
X208434980Y-63778404D01*
X208403773Y-63774027D01*
X208381742Y-63769500D01*
X208381741Y-63769500D01*
X208327510Y-63769500D01*
X208308603Y-63768781D01*
X208254524Y-63764662D01*
X208232208Y-63767505D01*
X208200750Y-63769500D01*
X204587036Y-63769500D01*
X204500019Y-63753800D01*
X204423976Y-63708682D01*
X204368494Y-63639833D01*
X204340570Y-63555936D01*
X204343726Y-63467571D01*
X204377564Y-63385881D01*
X204437816Y-63321165D01*
X204441103Y-63318703D01*
X204528646Y-63201760D01*
X204579695Y-63064894D01*
X204586200Y-63004392D01*
X204586200Y-62534801D01*
X204586199Y-62534800D01*
X202220201Y-62534800D01*
X202220200Y-62534801D01*
X202220200Y-63004392D01*
X202226704Y-63064894D01*
X202277753Y-63201760D01*
X202365296Y-63318703D01*
X202368584Y-63321165D01*
X202428836Y-63385881D01*
X202462674Y-63467571D01*
X202465830Y-63555936D01*
X202437906Y-63639833D01*
X202382424Y-63708682D01*
X202306381Y-63753800D01*
X202219364Y-63769500D01*
X200675865Y-63769500D01*
X200669559Y-63769420D01*
X200654348Y-63769034D01*
X200583637Y-63767243D01*
X200583636Y-63767243D01*
X200530241Y-63776812D01*
X200511513Y-63779439D01*
X200457559Y-63784926D01*
X200436090Y-63791662D01*
X200405493Y-63799172D01*
X200383349Y-63803141D01*
X200332976Y-63823261D01*
X200315166Y-63829602D01*
X200263407Y-63845842D01*
X200243738Y-63856759D01*
X200215287Y-63870271D01*
X200194382Y-63878622D01*
X200149088Y-63908472D01*
X200132916Y-63918270D01*
X200085497Y-63944590D01*
X200068417Y-63959253D01*
X200043264Y-63978218D01*
X200024480Y-63990598D01*
X199986121Y-64028956D01*
X199972251Y-64041810D01*
X199931101Y-64077136D01*
X199917329Y-64094928D01*
X199896503Y-64118575D01*
X196508510Y-67506570D01*
X196456940Y-67546140D01*
X196396886Y-67571016D01*
X196332440Y-67579500D01*
X184165865Y-67579500D01*
X184159559Y-67579420D01*
X184144348Y-67579034D01*
X184073637Y-67577243D01*
X184073636Y-67577243D01*
X184020241Y-67586812D01*
X184001513Y-67589439D01*
X183947559Y-67594926D01*
X183926090Y-67601662D01*
X183895493Y-67609172D01*
X183873349Y-67613141D01*
X183822976Y-67633261D01*
X183805166Y-67639602D01*
X183753407Y-67655842D01*
X183733738Y-67666759D01*
X183705287Y-67680271D01*
X183684382Y-67688622D01*
X183639088Y-67718472D01*
X183622916Y-67728270D01*
X183575497Y-67754590D01*
X183558417Y-67769253D01*
X183533264Y-67788218D01*
X183514480Y-67800598D01*
X183476121Y-67838956D01*
X183462251Y-67851810D01*
X183421101Y-67887136D01*
X183407329Y-67904928D01*
X183386503Y-67928575D01*
X180898739Y-70416339D01*
X180894224Y-70420740D01*
X180831947Y-70479939D01*
X180800962Y-70524457D01*
X180789575Y-70539559D01*
X180755301Y-70581592D01*
X180744879Y-70601544D01*
X180728556Y-70628485D01*
X180715705Y-70646949D01*
X180694315Y-70696792D01*
X180686203Y-70713873D01*
X180661092Y-70761947D01*
X180654904Y-70783572D01*
X180644336Y-70813254D01*
X180635459Y-70833939D01*
X180624541Y-70887068D01*
X180620034Y-70905430D01*
X180605113Y-70957582D01*
X180605113Y-70957583D01*
X180603404Y-70980021D01*
X180599027Y-71011226D01*
X180594500Y-71033257D01*
X180594500Y-71087490D01*
X180593781Y-71106397D01*
X180589662Y-71160475D01*
X180592505Y-71182792D01*
X180594500Y-71214250D01*
X180594500Y-71321847D01*
X180577466Y-71412361D01*
X180528695Y-71490490D01*
X180486020Y-71536847D01*
X180475607Y-71552785D01*
X180408092Y-71621866D01*
X180319367Y-71660055D01*
X180222785Y-71661606D01*
X180132880Y-71626284D01*
X180063182Y-71559406D01*
X180060811Y-71556020D01*
X179898975Y-71394184D01*
X179711501Y-71262913D01*
X179504066Y-71166185D01*
X179309000Y-71113917D01*
X179309000Y-73686082D01*
X179504066Y-73633814D01*
X179711501Y-73537086D01*
X179898975Y-73405815D01*
X180060811Y-73243979D01*
X180063179Y-73240598D01*
X180132877Y-73173717D01*
X180222783Y-73138393D01*
X180319367Y-73139944D01*
X180408093Y-73178134D01*
X180475609Y-73247217D01*
X180486021Y-73263154D01*
X180643214Y-73433911D01*
X180643216Y-73433913D01*
X180826374Y-73576470D01*
X181030497Y-73686936D01*
X181030500Y-73686937D01*
X181223948Y-73753348D01*
X181250019Y-73762298D01*
X181478951Y-73800500D01*
X181711049Y-73800500D01*
X181939981Y-73762298D01*
X182159503Y-73686936D01*
X182363626Y-73576470D01*
X182546784Y-73433913D01*
X182703979Y-73263153D01*
X182710644Y-73252951D01*
X182714389Y-73247220D01*
X182781902Y-73178137D01*
X182870626Y-73139946D01*
X182967207Y-73138393D01*
X183057113Y-73173712D01*
X183126812Y-73240588D01*
X183129182Y-73243973D01*
X183291024Y-73405815D01*
X183478498Y-73537086D01*
X183685933Y-73633814D01*
X183880999Y-73686082D01*
X183881000Y-73686082D01*
X184389000Y-73686082D01*
X184584066Y-73633814D01*
X184791501Y-73537086D01*
X184978975Y-73405815D01*
X185140812Y-73243978D01*
X185201030Y-73157978D01*
X185269384Y-73091969D01*
X185357488Y-73056373D01*
X185452512Y-73056373D01*
X185540616Y-73091969D01*
X185608970Y-73157978D01*
X185669187Y-73243978D01*
X185831024Y-73405815D01*
X186018498Y-73537086D01*
X186225933Y-73633814D01*
X186420999Y-73686082D01*
X186421000Y-73686082D01*
X186421000Y-72654001D01*
X186420999Y-72654000D01*
X184389001Y-72654000D01*
X184389000Y-72654001D01*
X184389000Y-73686082D01*
X183881000Y-73686082D01*
X183881000Y-72145999D01*
X184389000Y-72145999D01*
X184389001Y-72146000D01*
X186420999Y-72146000D01*
X186421000Y-72145999D01*
X186421000Y-71113918D01*
X186420999Y-71113917D01*
X186225933Y-71166185D01*
X186018498Y-71262913D01*
X185831024Y-71394184D01*
X185669184Y-71556024D01*
X185608969Y-71642021D01*
X185540615Y-71708030D01*
X185452511Y-71743626D01*
X185357489Y-71743626D01*
X185269385Y-71708030D01*
X185201031Y-71642021D01*
X185140815Y-71556024D01*
X184978975Y-71394184D01*
X184791501Y-71262913D01*
X184584066Y-71166185D01*
X184389000Y-71113917D01*
X184389000Y-72145999D01*
X183881000Y-72145999D01*
X183881000Y-71113918D01*
X183880999Y-71113917D01*
X183685930Y-71166186D01*
X183640668Y-71187292D01*
X183557138Y-71209673D01*
X183470991Y-71202135D01*
X183392617Y-71165588D01*
X183331469Y-71104439D01*
X183294923Y-71026065D01*
X183287387Y-70939917D01*
X183309769Y-70856388D01*
X183359370Y-70785550D01*
X183612695Y-70532226D01*
X184207974Y-69936947D01*
X184491492Y-69653430D01*
X184572273Y-69599454D01*
X184667561Y-69580500D01*
X190010755Y-69580500D01*
X190095543Y-69595380D01*
X190170196Y-69638242D01*
X190225794Y-69703964D01*
X190255690Y-69784689D01*
X190256311Y-69870770D01*
X190227584Y-69951919D01*
X190199808Y-69985730D01*
X190201600Y-69987117D01*
X190172334Y-70024923D01*
X190151506Y-70048571D01*
X189273511Y-70926569D01*
X189221941Y-70966140D01*
X189161887Y-70991015D01*
X189104596Y-70998557D01*
X188870016Y-71037702D01*
X188650500Y-71113062D01*
X188446373Y-71223530D01*
X188263214Y-71366088D01*
X188106020Y-71536846D01*
X188095607Y-71552785D01*
X188028092Y-71621866D01*
X187939367Y-71660055D01*
X187842785Y-71661606D01*
X187752880Y-71626284D01*
X187683182Y-71559406D01*
X187680811Y-71556020D01*
X187518975Y-71394184D01*
X187331501Y-71262913D01*
X187124066Y-71166185D01*
X186929000Y-71113917D01*
X186929000Y-73686082D01*
X186933572Y-73689590D01*
X186991995Y-73753348D01*
X187025088Y-73833242D01*
X187028860Y-73919636D01*
X187002856Y-74002110D01*
X186950212Y-74070717D01*
X186877278Y-74117181D01*
X186829758Y-74136864D01*
X186704317Y-74233117D01*
X186608065Y-74358556D01*
X186608063Y-74358559D01*
X186608064Y-74358559D01*
X186547556Y-74504638D01*
X186536969Y-74585059D01*
X186532100Y-74622040D01*
X186532100Y-76050759D01*
X186543842Y-76139950D01*
X186547556Y-76168162D01*
X186570334Y-76223154D01*
X186614267Y-76329216D01*
X186645488Y-76390824D01*
X186654487Y-76482203D01*
X186629756Y-76570630D01*
X186574657Y-76644082D01*
X186496682Y-76692570D01*
X186406435Y-76709500D01*
X180543877Y-76709500D01*
X180450234Y-76691220D01*
X180370339Y-76639066D01*
X180315925Y-76560693D01*
X180294979Y-76467610D01*
X180310577Y-76373483D01*
X180348095Y-76272893D01*
X180354600Y-76212392D01*
X180354600Y-75742801D01*
X180354599Y-75742800D01*
X177988601Y-75742800D01*
X177988600Y-75742801D01*
X177988600Y-76212392D01*
X177995104Y-76272893D01*
X178032623Y-76373483D01*
X178048221Y-76467610D01*
X178027275Y-76560693D01*
X177972861Y-76639066D01*
X177892966Y-76691220D01*
X177799323Y-76709500D01*
X177570403Y-76709500D01*
X177475115Y-76690546D01*
X177394333Y-76636570D01*
X175992562Y-75234799D01*
X177988600Y-75234799D01*
X177988601Y-75234800D01*
X178917599Y-75234800D01*
X178917600Y-75234799D01*
X179425600Y-75234799D01*
X179425601Y-75234800D01*
X180354599Y-75234800D01*
X180354600Y-75234799D01*
X180354600Y-74765208D01*
X180348095Y-74704705D01*
X180297046Y-74567839D01*
X180209503Y-74450896D01*
X180092560Y-74363353D01*
X179955694Y-74312304D01*
X179895192Y-74305800D01*
X179425601Y-74305800D01*
X179425600Y-74305801D01*
X179425600Y-75234799D01*
X178917600Y-75234799D01*
X178917600Y-74305801D01*
X178917599Y-74305800D01*
X178448008Y-74305800D01*
X178387505Y-74312304D01*
X178250639Y-74363353D01*
X178133696Y-74450896D01*
X178046153Y-74567839D01*
X177995104Y-74704705D01*
X177988600Y-74765208D01*
X177988600Y-75234799D01*
X175992562Y-75234799D01*
X173157762Y-72399999D01*
X175109700Y-72399999D01*
X175128866Y-72631309D01*
X175185842Y-72856298D01*
X175279076Y-73068849D01*
X175406021Y-73263153D01*
X175548364Y-73417780D01*
X175563216Y-73433913D01*
X175746374Y-73576470D01*
X175950497Y-73686936D01*
X175950500Y-73686937D01*
X176143948Y-73753348D01*
X176170019Y-73762298D01*
X176398951Y-73800500D01*
X176631049Y-73800500D01*
X176859981Y-73762298D01*
X177079503Y-73686936D01*
X177283626Y-73576470D01*
X177466784Y-73433913D01*
X177623979Y-73263153D01*
X177630644Y-73252951D01*
X177634389Y-73247220D01*
X177701902Y-73178137D01*
X177790626Y-73139946D01*
X177887207Y-73138393D01*
X177977113Y-73173712D01*
X178046812Y-73240588D01*
X178049182Y-73243973D01*
X178211024Y-73405815D01*
X178398498Y-73537086D01*
X178605933Y-73633814D01*
X178800999Y-73686082D01*
X178801000Y-73686082D01*
X178801000Y-71113918D01*
X178800999Y-71113917D01*
X178605933Y-71166185D01*
X178398498Y-71262913D01*
X178211024Y-71394184D01*
X178049182Y-71556026D01*
X178046812Y-71559412D01*
X177977113Y-71626288D01*
X177887207Y-71661607D01*
X177790626Y-71660054D01*
X177701902Y-71621863D01*
X177634389Y-71552780D01*
X177623978Y-71536845D01*
X177466785Y-71366088D01*
X177422392Y-71331536D01*
X177283626Y-71223530D01*
X177079503Y-71113064D01*
X177079502Y-71113063D01*
X177079499Y-71113062D01*
X176859983Y-71037702D01*
X176631049Y-70999500D01*
X176398951Y-70999500D01*
X176170016Y-71037702D01*
X175950500Y-71113062D01*
X175746373Y-71223530D01*
X175563214Y-71366088D01*
X175406021Y-71536846D01*
X175279076Y-71731150D01*
X175185842Y-71943701D01*
X175128866Y-72168690D01*
X175109700Y-72399999D01*
X173157762Y-72399999D01*
X171443430Y-70685667D01*
X171389454Y-70604885D01*
X171370500Y-70509597D01*
X171370500Y-67910403D01*
X171389454Y-67815115D01*
X171443430Y-67734333D01*
X173124333Y-66053430D01*
X173205115Y-65999454D01*
X173300403Y-65980500D01*
X175727722Y-65980500D01*
X175788848Y-65988119D01*
X175846231Y-66010510D01*
X175950497Y-66066936D01*
X176170019Y-66142298D01*
X176398951Y-66180500D01*
X176631049Y-66180500D01*
X176859981Y-66142298D01*
X177079503Y-66066936D01*
X177283626Y-65956470D01*
X177466784Y-65813913D01*
X177601805Y-65667241D01*
X177666489Y-65616895D01*
X177744016Y-65590280D01*
X177825984Y-65590280D01*
X177903511Y-65616895D01*
X177968195Y-65667241D01*
X178080700Y-65789454D01*
X178103216Y-65813913D01*
X178286374Y-65956470D01*
X178490497Y-66066936D01*
X178710019Y-66142298D01*
X178938951Y-66180500D01*
X179171049Y-66180500D01*
X179399981Y-66142298D01*
X179619503Y-66066936D01*
X179823626Y-65956470D01*
X180006784Y-65813913D01*
X180141805Y-65667241D01*
X180206489Y-65616895D01*
X180284016Y-65590280D01*
X180365984Y-65590280D01*
X180443511Y-65616895D01*
X180508195Y-65667241D01*
X180620700Y-65789454D01*
X180643216Y-65813913D01*
X180826374Y-65956470D01*
X181030497Y-66066936D01*
X181250019Y-66142298D01*
X181478951Y-66180500D01*
X181711049Y-66180500D01*
X181939981Y-66142298D01*
X182159503Y-66066936D01*
X182363626Y-65956470D01*
X182546784Y-65813913D01*
X182681805Y-65667241D01*
X182746489Y-65616895D01*
X182824016Y-65590280D01*
X182905984Y-65590280D01*
X182983511Y-65616895D01*
X183048195Y-65667241D01*
X183160700Y-65789454D01*
X183183216Y-65813913D01*
X183366374Y-65956470D01*
X183570497Y-66066936D01*
X183790019Y-66142298D01*
X184018951Y-66180500D01*
X184251049Y-66180500D01*
X184479981Y-66142298D01*
X184699503Y-66066936D01*
X184903626Y-65956470D01*
X185086784Y-65813913D01*
X185221805Y-65667241D01*
X185286489Y-65616895D01*
X185364016Y-65590280D01*
X185445984Y-65590280D01*
X185523511Y-65616895D01*
X185588195Y-65667241D01*
X185700700Y-65789454D01*
X185723216Y-65813913D01*
X185906374Y-65956470D01*
X186110497Y-66066936D01*
X186330019Y-66142298D01*
X186558951Y-66180500D01*
X186791049Y-66180500D01*
X187019981Y-66142298D01*
X187239503Y-66066936D01*
X187443626Y-65956470D01*
X187626784Y-65813913D01*
X187761805Y-65667241D01*
X187826489Y-65616895D01*
X187904016Y-65590280D01*
X187985984Y-65590280D01*
X188063511Y-65616895D01*
X188128195Y-65667241D01*
X188240700Y-65789454D01*
X188263216Y-65813913D01*
X188446374Y-65956470D01*
X188650497Y-66066936D01*
X188870019Y-66142298D01*
X189098951Y-66180500D01*
X189331049Y-66180500D01*
X189559981Y-66142298D01*
X189779503Y-66066936D01*
X189983626Y-65956470D01*
X190166784Y-65813913D01*
X190301805Y-65667241D01*
X190366489Y-65616895D01*
X190444016Y-65590280D01*
X190525984Y-65590280D01*
X190603511Y-65616895D01*
X190668195Y-65667241D01*
X190780700Y-65789454D01*
X190803216Y-65813913D01*
X190986374Y-65956470D01*
X191190497Y-66066936D01*
X191410019Y-66142298D01*
X191638951Y-66180500D01*
X191871049Y-66180500D01*
X192099981Y-66142298D01*
X192319503Y-66066936D01*
X192523626Y-65956470D01*
X192640903Y-65865189D01*
X192709430Y-65827431D01*
X192786293Y-65812801D01*
X192863902Y-65822747D01*
X192934593Y-65856286D01*
X192991382Y-65910102D01*
X193066718Y-66008282D01*
X193066720Y-66008284D01*
X193170783Y-66088134D01*
X193192159Y-66104536D01*
X193338238Y-66165044D01*
X193455639Y-66180500D01*
X195134360Y-66180499D01*
X195251762Y-66165044D01*
X195397841Y-66104536D01*
X195523282Y-66008282D01*
X195619536Y-65882841D01*
X195680044Y-65736762D01*
X195695500Y-65619361D01*
X195695499Y-63940640D01*
X195680044Y-63823238D01*
X195619536Y-63677159D01*
X195619535Y-63677158D01*
X195619535Y-63677157D01*
X195523282Y-63551717D01*
X195397843Y-63455465D01*
X195397841Y-63455464D01*
X195251762Y-63394956D01*
X195134361Y-63379500D01*
X195134359Y-63379500D01*
X193455640Y-63379500D01*
X193338237Y-63394956D01*
X193192157Y-63455464D01*
X193066719Y-63551716D01*
X192991385Y-63649894D01*
X192934592Y-63703713D01*
X192863902Y-63737252D01*
X192786293Y-63747198D01*
X192709430Y-63732568D01*
X192640902Y-63694808D01*
X192523629Y-63603532D01*
X192523627Y-63603531D01*
X192523626Y-63603530D01*
X192319503Y-63493064D01*
X192319502Y-63493063D01*
X192319499Y-63493062D01*
X192099983Y-63417702D01*
X191871049Y-63379500D01*
X191638951Y-63379500D01*
X191410016Y-63417702D01*
X191190500Y-63493062D01*
X190986373Y-63603530D01*
X190803217Y-63746085D01*
X190668195Y-63892759D01*
X190603511Y-63943104D01*
X190525984Y-63969719D01*
X190444016Y-63969719D01*
X190366489Y-63943104D01*
X190301805Y-63892759D01*
X190180842Y-63761358D01*
X190166784Y-63746087D01*
X190166783Y-63746086D01*
X190166782Y-63746085D01*
X189983626Y-63603530D01*
X189951937Y-63586381D01*
X189779503Y-63493064D01*
X189779502Y-63493063D01*
X189779499Y-63493062D01*
X189559983Y-63417702D01*
X189331049Y-63379500D01*
X189098951Y-63379500D01*
X188870016Y-63417702D01*
X188650500Y-63493062D01*
X188446373Y-63603530D01*
X188263217Y-63746085D01*
X188128195Y-63892759D01*
X188063511Y-63943104D01*
X187985984Y-63969719D01*
X187904016Y-63969719D01*
X187826489Y-63943104D01*
X187761805Y-63892759D01*
X187640842Y-63761358D01*
X187626784Y-63746087D01*
X187626783Y-63746086D01*
X187626782Y-63746085D01*
X187443626Y-63603530D01*
X187411937Y-63586381D01*
X187239503Y-63493064D01*
X187239502Y-63493063D01*
X187239499Y-63493062D01*
X187019983Y-63417702D01*
X186791049Y-63379500D01*
X186558951Y-63379500D01*
X186330016Y-63417702D01*
X186110500Y-63493062D01*
X185906373Y-63603530D01*
X185723217Y-63746085D01*
X185588195Y-63892759D01*
X185523511Y-63943104D01*
X185445984Y-63969719D01*
X185364016Y-63969719D01*
X185286489Y-63943104D01*
X185221805Y-63892759D01*
X185100842Y-63761358D01*
X185086784Y-63746087D01*
X185086783Y-63746086D01*
X185086782Y-63746085D01*
X184903626Y-63603530D01*
X184871937Y-63586381D01*
X184699503Y-63493064D01*
X184699502Y-63493063D01*
X184699499Y-63493062D01*
X184479983Y-63417702D01*
X184251049Y-63379500D01*
X184018951Y-63379500D01*
X183790016Y-63417702D01*
X183570500Y-63493062D01*
X183366373Y-63603530D01*
X183183217Y-63746085D01*
X183048195Y-63892759D01*
X182983511Y-63943104D01*
X182905984Y-63969719D01*
X182824016Y-63969719D01*
X182746489Y-63943104D01*
X182681805Y-63892759D01*
X182560842Y-63761358D01*
X182546784Y-63746087D01*
X182546783Y-63746086D01*
X182546782Y-63746085D01*
X182363626Y-63603530D01*
X182331937Y-63586381D01*
X182159503Y-63493064D01*
X182159502Y-63493063D01*
X182159499Y-63493062D01*
X181939983Y-63417702D01*
X181711049Y-63379500D01*
X181478951Y-63379500D01*
X181250016Y-63417702D01*
X181030500Y-63493062D01*
X180826373Y-63603530D01*
X180643217Y-63746085D01*
X180508195Y-63892759D01*
X180443511Y-63943104D01*
X180365984Y-63969719D01*
X180284016Y-63969719D01*
X180206489Y-63943104D01*
X180141805Y-63892759D01*
X180020842Y-63761358D01*
X180006784Y-63746087D01*
X180006783Y-63746086D01*
X180006782Y-63746085D01*
X179823626Y-63603530D01*
X179791937Y-63586381D01*
X179619503Y-63493064D01*
X179619502Y-63493063D01*
X179619499Y-63493062D01*
X179399983Y-63417702D01*
X179171049Y-63379500D01*
X178938951Y-63379500D01*
X178710016Y-63417702D01*
X178490500Y-63493062D01*
X178286373Y-63603530D01*
X178103217Y-63746085D01*
X177968195Y-63892759D01*
X177903511Y-63943104D01*
X177825984Y-63969719D01*
X177744016Y-63969719D01*
X177666489Y-63943104D01*
X177601805Y-63892759D01*
X177480842Y-63761358D01*
X177466784Y-63746087D01*
X177466783Y-63746086D01*
X177466782Y-63746085D01*
X177283626Y-63603530D01*
X177251937Y-63586381D01*
X177079503Y-63493064D01*
X177079502Y-63493063D01*
X177079499Y-63493062D01*
X176859983Y-63417702D01*
X176631049Y-63379500D01*
X176398951Y-63379500D01*
X176170016Y-63417702D01*
X175950500Y-63493062D01*
X175846233Y-63549489D01*
X175788848Y-63571881D01*
X175727722Y-63579500D01*
X172733471Y-63579500D01*
X172721970Y-63579234D01*
X172644317Y-63575643D01*
X172567339Y-63586381D01*
X172555918Y-63587707D01*
X172478460Y-63594885D01*
X172468219Y-63597799D01*
X172434500Y-63604912D01*
X172423967Y-63606381D01*
X172350248Y-63631088D01*
X172339272Y-63634487D01*
X172274927Y-63652796D01*
X172264472Y-63655771D01*
X172264471Y-63655771D01*
X172264469Y-63655772D01*
X172254945Y-63660514D01*
X172223104Y-63673703D01*
X172213014Y-63677084D01*
X172145080Y-63714923D01*
X172134912Y-63720282D01*
X172065309Y-63754941D01*
X172056812Y-63761358D01*
X172027946Y-63780167D01*
X172018645Y-63785347D01*
X171958821Y-63835025D01*
X171949808Y-63842165D01*
X171887763Y-63889019D01*
X171835382Y-63946477D01*
X171827442Y-63954793D01*
X169344793Y-66437442D01*
X169336477Y-66445382D01*
X169279019Y-66497763D01*
X169232165Y-66559808D01*
X169225025Y-66568821D01*
X169175347Y-66628645D01*
X169170167Y-66637946D01*
X169151358Y-66666812D01*
X169144941Y-66675309D01*
X169110282Y-66744912D01*
X169104923Y-66755080D01*
X169067084Y-66823014D01*
X169063703Y-66833104D01*
X169050514Y-66864945D01*
X169045772Y-66874469D01*
X169024487Y-66949272D01*
X169021088Y-66960248D01*
X168996381Y-67033967D01*
X168994912Y-67044500D01*
X168987799Y-67078219D01*
X168984885Y-67088460D01*
X168978860Y-67153478D01*
X168953817Y-67241491D01*
X168898671Y-67314514D01*
X168820870Y-67362686D01*
X168730922Y-67379500D01*
X166403471Y-67379500D01*
X166391970Y-67379234D01*
X166314317Y-67375643D01*
X166237339Y-67386381D01*
X166225918Y-67387707D01*
X166148460Y-67394885D01*
X166138219Y-67397799D01*
X166104499Y-67404912D01*
X166093968Y-67406381D01*
X166020260Y-67431085D01*
X166009277Y-67434486D01*
X165934471Y-67455770D01*
X165924943Y-67460515D01*
X165893096Y-67473707D01*
X165883013Y-67477086D01*
X165815080Y-67514923D01*
X165804914Y-67520281D01*
X165735312Y-67554940D01*
X165726824Y-67561350D01*
X165697943Y-67580169D01*
X165688644Y-67585348D01*
X165628809Y-67635034D01*
X165619797Y-67642173D01*
X165557763Y-67689019D01*
X165505382Y-67746477D01*
X165497442Y-67754793D01*
X163004804Y-70247432D01*
X162996488Y-70255372D01*
X162939020Y-70307762D01*
X162932612Y-70316248D01*
X162909981Y-70342254D01*
X158325667Y-74926570D01*
X158274097Y-74966140D01*
X158214043Y-74991016D01*
X158149597Y-74999500D01*
X152500607Y-74999500D01*
X152466205Y-74997112D01*
X152455678Y-74995643D01*
X152411499Y-74997686D01*
X152388501Y-74997686D01*
X152344317Y-74995643D01*
X152300504Y-75001754D01*
X152277614Y-75003875D01*
X152233432Y-75005918D01*
X152223079Y-75008353D01*
X152189067Y-75013902D01*
X152178466Y-75014884D01*
X152173587Y-75016272D01*
X152168216Y-75017800D01*
X152134498Y-75024912D01*
X152123968Y-75026382D01*
X152123967Y-75026382D01*
X152123962Y-75026383D01*
X152082035Y-75040435D01*
X152059923Y-75046727D01*
X152016852Y-75056858D01*
X152007122Y-75061154D01*
X151974706Y-75072858D01*
X151964474Y-75075769D01*
X151954947Y-75080513D01*
X151923113Y-75093699D01*
X151913016Y-75097083D01*
X151874371Y-75118608D01*
X151853791Y-75128856D01*
X151813329Y-75146722D01*
X151804547Y-75152738D01*
X151774837Y-75170197D01*
X151765316Y-75174938D01*
X151765310Y-75174942D01*
X151765311Y-75174942D01*
X151756828Y-75181347D01*
X151727945Y-75200168D01*
X151718644Y-75205348D01*
X151684616Y-75233605D01*
X151666268Y-75247461D01*
X151629778Y-75272458D01*
X151622253Y-75279983D01*
X151596253Y-75302608D01*
X151587763Y-75309019D01*
X151535382Y-75366477D01*
X151527442Y-75374793D01*
X146895667Y-80006570D01*
X146844097Y-80046140D01*
X146784043Y-80071016D01*
X146719597Y-80079500D01*
X143316443Y-80079500D01*
X143260703Y-80079500D01*
X134966403Y-80079500D01*
X134871115Y-80060546D01*
X134790333Y-80006570D01*
X131483837Y-76700074D01*
X131441365Y-76643337D01*
X131416597Y-76576932D01*
X131411541Y-76506244D01*
X131415278Y-76454000D01*
X131396190Y-76187120D01*
X131339316Y-75925673D01*
X131245813Y-75674981D01*
X131117584Y-75440148D01*
X130957241Y-75225954D01*
X130768046Y-75036759D01*
X130553852Y-74876416D01*
X130433189Y-74810529D01*
X130319018Y-74748186D01*
X130068327Y-74654684D01*
X130056660Y-74652146D01*
X129806880Y-74597810D01*
X129540000Y-74578722D01*
X129539999Y-74578722D01*
X129273120Y-74597810D01*
X129011672Y-74654684D01*
X128760981Y-74748186D01*
X128625750Y-74822029D01*
X128526148Y-74876416D01*
X128398716Y-74971809D01*
X128316803Y-75012205D01*
X128225831Y-75020346D01*
X128138043Y-74995135D01*
X128065252Y-74939965D01*
X128017252Y-74862260D01*
X128000500Y-74772473D01*
X128000500Y-62026799D01*
X202220200Y-62026799D01*
X202220201Y-62026800D01*
X203149199Y-62026800D01*
X203149200Y-62026799D01*
X203657200Y-62026799D01*
X203657201Y-62026800D01*
X204586199Y-62026800D01*
X204586200Y-62026799D01*
X204586200Y-61557208D01*
X204579695Y-61496705D01*
X204528646Y-61359839D01*
X204441103Y-61242896D01*
X204324160Y-61155353D01*
X204187294Y-61104304D01*
X204126792Y-61097800D01*
X203657201Y-61097800D01*
X203657200Y-61097801D01*
X203657200Y-62026799D01*
X203149200Y-62026799D01*
X203149200Y-61097801D01*
X203149199Y-61097800D01*
X202679608Y-61097800D01*
X202619105Y-61104304D01*
X202482239Y-61155353D01*
X202365296Y-61242896D01*
X202277753Y-61359839D01*
X202226704Y-61496705D01*
X202220200Y-61557208D01*
X202220200Y-62026799D01*
X128000500Y-62026799D01*
X128000500Y-60241744D01*
X128018865Y-60147891D01*
X128071250Y-60067883D01*
X128149928Y-60013520D01*
X128243294Y-59992821D01*
X128337575Y-60008841D01*
X128418865Y-60059216D01*
X128428326Y-60067995D01*
X128648508Y-60218111D01*
X128888602Y-60333735D01*
X129143245Y-60412282D01*
X129406757Y-60452000D01*
X129673243Y-60452000D01*
X129936754Y-60412282D01*
X130191397Y-60333735D01*
X130431492Y-60218111D01*
X130605954Y-60099165D01*
X169114044Y-60099165D01*
X169288508Y-60218111D01*
X169528602Y-60333735D01*
X169783245Y-60412282D01*
X170046757Y-60452000D01*
X170313243Y-60452000D01*
X170576754Y-60412282D01*
X170831397Y-60333735D01*
X171071492Y-60218111D01*
X171245954Y-60099165D01*
X170179999Y-59033210D01*
X169114044Y-60099165D01*
X130605954Y-60099165D01*
X129540000Y-59033210D01*
X129180789Y-58673999D01*
X129899210Y-58673999D01*
X130964559Y-59739348D01*
X131013171Y-59678392D01*
X131146412Y-59447613D01*
X131243773Y-59199541D01*
X131303071Y-58939741D01*
X131322985Y-58673999D01*
X168397014Y-58673999D01*
X168416928Y-58939741D01*
X168476226Y-59199541D01*
X168573587Y-59447613D01*
X168706827Y-59678391D01*
X168755439Y-59739348D01*
X169820788Y-58673999D01*
X170539210Y-58673999D01*
X171604559Y-59739348D01*
X171653171Y-59678392D01*
X171786412Y-59447613D01*
X171883773Y-59199541D01*
X171943071Y-58939741D01*
X171962985Y-58673999D01*
X171943071Y-58408258D01*
X171883773Y-58148458D01*
X171786412Y-57900386D01*
X171653174Y-57669612D01*
X171604559Y-57608650D01*
X170539210Y-58673999D01*
X169820788Y-58673999D01*
X168755439Y-57608650D01*
X168706826Y-57669609D01*
X168573587Y-57900386D01*
X168476226Y-58148458D01*
X168416928Y-58408258D01*
X168397014Y-58673999D01*
X131322985Y-58673999D01*
X131303071Y-58408258D01*
X131243773Y-58148458D01*
X131146412Y-57900386D01*
X131013174Y-57669612D01*
X130964559Y-57608650D01*
X129899210Y-58673999D01*
X129180789Y-58673999D01*
X128115439Y-57608650D01*
X128065455Y-57671328D01*
X128000033Y-57728904D01*
X127918779Y-57760409D01*
X127831644Y-57761984D01*
X127749304Y-57733438D01*
X127714286Y-57704798D01*
X127712889Y-57706604D01*
X127675082Y-57677339D01*
X127651427Y-57656506D01*
X127243755Y-57248834D01*
X128474044Y-57248834D01*
X129539999Y-58314789D01*
X130605953Y-57248834D01*
X169114044Y-57248834D01*
X170179999Y-58314789D01*
X171245954Y-57248833D01*
X171071491Y-57129888D01*
X170831397Y-57014264D01*
X170576754Y-56935717D01*
X170313243Y-56896000D01*
X170046757Y-56896000D01*
X169783245Y-56935717D01*
X169528602Y-57014264D01*
X169288510Y-57129887D01*
X169114044Y-57248834D01*
X130605953Y-57248834D01*
X130605954Y-57248833D01*
X130431491Y-57129888D01*
X130191397Y-57014264D01*
X129936754Y-56935717D01*
X129673243Y-56896000D01*
X129406757Y-56896000D01*
X129143245Y-56935717D01*
X128888602Y-57014264D01*
X128648510Y-57129887D01*
X128474044Y-57248834D01*
X127243755Y-57248834D01*
X126259307Y-56264386D01*
X177054995Y-56264386D01*
X177054995Y-61286814D01*
X196629804Y-61286814D01*
X196629805Y-61286814D01*
X196629805Y-56264386D01*
X177054995Y-56264386D01*
X126259307Y-56264386D01*
X125178679Y-55183758D01*
X125174278Y-55179243D01*
X125115061Y-55116949D01*
X125115060Y-55116948D01*
X125115059Y-55116947D01*
X125070535Y-55085957D01*
X125055436Y-55074572D01*
X125013408Y-55040303D01*
X125013407Y-55040302D01*
X125002204Y-55034450D01*
X124993460Y-55029882D01*
X124966509Y-55013553D01*
X124948049Y-55000705D01*
X124898202Y-54979313D01*
X124881116Y-54971198D01*
X124833050Y-54946090D01*
X124811426Y-54939903D01*
X124781732Y-54929331D01*
X124761058Y-54920459D01*
X124707924Y-54909539D01*
X124689554Y-54905030D01*
X124637420Y-54890113D01*
X124614980Y-54888404D01*
X124583773Y-54884027D01*
X124561742Y-54879500D01*
X124561741Y-54879500D01*
X124507510Y-54879500D01*
X124488603Y-54878781D01*
X124434524Y-54874662D01*
X124412208Y-54877505D01*
X124380750Y-54879500D01*
X95265825Y-54879500D01*
X95259519Y-54879420D01*
X95244868Y-54879048D01*
X95173637Y-54877244D01*
X95173636Y-54877244D01*
X95120257Y-54886810D01*
X95101530Y-54889437D01*
X95047562Y-54894925D01*
X95047562Y-54894926D01*
X95026089Y-54901662D01*
X94995487Y-54909173D01*
X94973347Y-54913141D01*
X94973347Y-54913142D01*
X94922980Y-54933260D01*
X94905166Y-54939602D01*
X94853411Y-54955841D01*
X94833740Y-54966759D01*
X94805281Y-54980274D01*
X94784383Y-54988622D01*
X94739095Y-55018468D01*
X94722925Y-55028264D01*
X94675500Y-55054589D01*
X94658426Y-55069246D01*
X94633267Y-55088215D01*
X94614481Y-55100596D01*
X94576114Y-55138962D01*
X94562244Y-55151816D01*
X94521102Y-55187136D01*
X94507338Y-55204917D01*
X94486510Y-55228567D01*
X93283758Y-56431320D01*
X93279245Y-56435720D01*
X93216946Y-56494941D01*
X93185962Y-56539457D01*
X93174575Y-56554559D01*
X93140301Y-56596592D01*
X93129879Y-56616544D01*
X93113556Y-56643485D01*
X93100705Y-56661949D01*
X93079315Y-56711792D01*
X93071203Y-56728873D01*
X93046092Y-56776947D01*
X93039904Y-56798572D01*
X93029336Y-56828254D01*
X93020459Y-56848939D01*
X93009541Y-56902068D01*
X93005033Y-56920438D01*
X92990113Y-56972583D01*
X92988404Y-56995021D01*
X92984027Y-57026226D01*
X92979500Y-57048257D01*
X92979500Y-57102490D01*
X92978781Y-57121397D01*
X92974662Y-57175475D01*
X92977505Y-57197792D01*
X92979500Y-57229250D01*
X92979500Y-59419027D01*
X92961478Y-59512033D01*
X92910021Y-59591576D01*
X92832577Y-59646142D01*
X92740358Y-59667832D01*
X92646711Y-59653506D01*
X92565193Y-59605238D01*
X92507604Y-59530016D01*
X92450115Y-59414563D01*
X92317989Y-59239600D01*
X92155971Y-59091900D01*
X91969568Y-58976485D01*
X91765130Y-58897286D01*
X91694000Y-58883989D01*
X91694000Y-60045000D01*
X91675046Y-60140288D01*
X91621070Y-60221070D01*
X91540288Y-60275046D01*
X91445000Y-60294000D01*
X90282318Y-60294000D01*
X90332161Y-60469181D01*
X90429884Y-60665437D01*
X90549219Y-60823463D01*
X90589204Y-60902615D01*
X90598914Y-60990759D01*
X90577119Y-61076718D01*
X90526583Y-61149587D01*
X90459177Y-61216993D01*
X90331164Y-61399815D01*
X90236843Y-61602089D01*
X90179079Y-61817665D01*
X90159627Y-62039999D01*
X90179079Y-62262334D01*
X90236843Y-62477910D01*
X90331164Y-62680184D01*
X90459177Y-62863006D01*
X90460101Y-62863930D01*
X90465875Y-62872572D01*
X90471673Y-62880852D01*
X90471492Y-62880978D01*
X90514077Y-62944712D01*
X90533031Y-63040000D01*
X90514077Y-63135288D01*
X90471492Y-63199021D01*
X90471673Y-63199148D01*
X90465875Y-63207427D01*
X90460101Y-63216070D01*
X90459177Y-63216993D01*
X90331164Y-63399815D01*
X90236843Y-63602089D01*
X90179079Y-63817665D01*
X90159627Y-64040000D01*
X90179079Y-64262334D01*
X90236842Y-64477908D01*
X90236843Y-64477911D01*
X90236844Y-64477913D01*
X90331165Y-64680186D01*
X90331167Y-64680188D01*
X90340372Y-64699929D01*
X90338666Y-64700724D01*
X90357328Y-64739100D01*
X90367986Y-64816807D01*
X90353942Y-64893975D01*
X90316591Y-64962946D01*
X90240465Y-65062156D01*
X90179956Y-65208238D01*
X90164500Y-65325640D01*
X90164500Y-66754359D01*
X90179956Y-66871762D01*
X90240464Y-67017842D01*
X90336717Y-67143282D01*
X90403091Y-67194212D01*
X90462159Y-67239536D01*
X90608238Y-67300044D01*
X90725639Y-67315500D01*
X92154360Y-67315499D01*
X92271762Y-67300044D01*
X92417841Y-67239536D01*
X92543282Y-67143282D01*
X92543283Y-67143281D01*
X92547399Y-67137918D01*
X92602123Y-67085531D01*
X92670068Y-67052024D01*
X92744943Y-67040500D01*
X95178501Y-67040500D01*
X95273789Y-67059454D01*
X95354571Y-67113430D01*
X95408547Y-67194212D01*
X95427501Y-67289500D01*
X95427501Y-67820360D01*
X95442956Y-67937762D01*
X95503464Y-68083842D01*
X95599715Y-68209279D01*
X95599716Y-68209280D01*
X95599718Y-68209282D01*
X95653732Y-68250728D01*
X95714456Y-68318169D01*
X95746979Y-68402894D01*
X95746980Y-68493648D01*
X95714457Y-68578373D01*
X95680205Y-68634266D01*
X95589373Y-68853557D01*
X95533959Y-69084370D01*
X95515336Y-69320999D01*
X95533959Y-69557629D01*
X95589373Y-69788442D01*
X95680206Y-70007735D01*
X95794896Y-70194891D01*
X95822312Y-70198136D01*
X95824810Y-70187956D01*
X95875881Y-70113907D01*
X96851930Y-69137859D01*
X96932711Y-69083883D01*
X97027999Y-69064929D01*
X97123287Y-69083883D01*
X97204069Y-69137859D01*
X98180118Y-70113908D01*
X98231188Y-70187957D01*
X98233684Y-70198136D01*
X98261102Y-70194891D01*
X98375795Y-70007731D01*
X98466626Y-69788442D01*
X98522040Y-69557629D01*
X98540663Y-69320999D01*
X98522040Y-69084370D01*
X98466626Y-68853557D01*
X98375796Y-68634271D01*
X98341543Y-68578376D01*
X98309020Y-68493649D01*
X98309020Y-68402895D01*
X98341543Y-68318169D01*
X98402267Y-68250728D01*
X98456282Y-68209282D01*
X98456285Y-68209279D01*
X98494962Y-68158873D01*
X98552536Y-68083841D01*
X98613044Y-67937762D01*
X98628500Y-67820361D01*
X98628499Y-65741640D01*
X98613044Y-65624238D01*
X98552536Y-65478159D01*
X98552535Y-65478158D01*
X98552535Y-65478157D01*
X98456282Y-65352717D01*
X98330843Y-65256465D01*
X98325199Y-65254127D01*
X98184762Y-65195956D01*
X98067361Y-65180500D01*
X98067359Y-65180500D01*
X96872348Y-65180500D01*
X96822222Y-65175402D01*
X96774149Y-65160318D01*
X96725202Y-65139312D01*
X96708116Y-65131198D01*
X96660050Y-65106090D01*
X96638426Y-65099903D01*
X96608732Y-65089331D01*
X96588058Y-65080459D01*
X96534924Y-65069539D01*
X96516554Y-65065030D01*
X96464420Y-65050113D01*
X96441980Y-65048404D01*
X96410773Y-65044027D01*
X96388742Y-65039500D01*
X96388741Y-65039500D01*
X96334510Y-65039500D01*
X96315603Y-65038781D01*
X96261524Y-65034662D01*
X96239208Y-65037505D01*
X96207750Y-65039500D01*
X94456560Y-65039500D01*
X94374321Y-65025527D01*
X94301311Y-64985176D01*
X94245726Y-64922976D01*
X94213803Y-64845908D01*
X94209126Y-64762621D01*
X94232219Y-64682463D01*
X94280490Y-64614430D01*
X94930349Y-63964572D01*
X95591490Y-63303430D01*
X95672273Y-63249454D01*
X95767561Y-63230500D01*
X120132439Y-63230500D01*
X120227727Y-63249454D01*
X120308509Y-63303430D01*
X121899830Y-64894751D01*
X121947081Y-64960691D01*
X121970630Y-65038320D01*
X121967975Y-65119399D01*
X121939400Y-65195321D01*
X121887937Y-65258029D01*
X121819048Y-65300867D01*
X121699142Y-65350533D01*
X121484338Y-65482165D01*
X121292776Y-65645775D01*
X121251356Y-65694271D01*
X121185877Y-65748565D01*
X121105943Y-65777651D01*
X121049259Y-65787810D01*
X121030530Y-65790437D01*
X120976562Y-65795925D01*
X120976562Y-65795926D01*
X120955089Y-65802662D01*
X120924487Y-65810173D01*
X120909829Y-65812801D01*
X120902347Y-65814142D01*
X120851980Y-65834260D01*
X120834166Y-65840602D01*
X120782411Y-65856841D01*
X120762740Y-65867759D01*
X120734281Y-65881274D01*
X120713383Y-65889622D01*
X120668095Y-65919468D01*
X120651925Y-65929264D01*
X120604500Y-65955589D01*
X120587426Y-65970246D01*
X120562267Y-65989215D01*
X120543481Y-66001596D01*
X120505114Y-66039962D01*
X120491244Y-66052816D01*
X120450102Y-66088136D01*
X120436338Y-66105917D01*
X120415510Y-66129567D01*
X118683758Y-67861320D01*
X118679245Y-67865720D01*
X118616946Y-67924941D01*
X118585962Y-67969457D01*
X118574575Y-67984559D01*
X118540301Y-68026592D01*
X118529879Y-68046544D01*
X118513556Y-68073485D01*
X118500705Y-68091949D01*
X118479315Y-68141792D01*
X118471203Y-68158873D01*
X118446092Y-68206947D01*
X118439904Y-68228572D01*
X118429336Y-68258254D01*
X118420459Y-68278939D01*
X118409541Y-68332068D01*
X118405034Y-68350430D01*
X118396145Y-68381500D01*
X118390113Y-68402583D01*
X118388404Y-68425021D01*
X118384027Y-68456226D01*
X118379500Y-68478257D01*
X118379500Y-68532490D01*
X118378781Y-68551397D01*
X118374662Y-68605475D01*
X118377505Y-68627792D01*
X118379500Y-68659250D01*
X118379500Y-100314135D01*
X118379420Y-100320441D01*
X118377243Y-100406362D01*
X118386812Y-100459758D01*
X118389438Y-100478485D01*
X118394925Y-100532436D01*
X118396081Y-100536120D01*
X118407500Y-100610660D01*
X118407500Y-101032000D01*
X118388546Y-101127288D01*
X118334570Y-101208070D01*
X118253788Y-101262046D01*
X118158500Y-101281000D01*
X101149052Y-101281000D01*
X101059623Y-101264386D01*
X100982128Y-101216763D01*
X100926907Y-101144484D01*
X100913201Y-101097710D01*
X100910655Y-101098509D01*
X100896339Y-101052881D01*
X100888827Y-101022281D01*
X100884858Y-101000134D01*
X100864735Y-100949758D01*
X100858398Y-100931959D01*
X100842159Y-100880199D01*
X100831241Y-100860530D01*
X100817718Y-100832053D01*
X100809377Y-100811170D01*
X100779534Y-100765889D01*
X100769730Y-100749706D01*
X100743410Y-100702286D01*
X100728756Y-100685217D01*
X100709779Y-100660048D01*
X100697402Y-100641268D01*
X100697401Y-100641267D01*
X100697400Y-100641265D01*
X100659042Y-100602907D01*
X100646194Y-100589044D01*
X100610866Y-100547892D01*
X100610865Y-100547891D01*
X100610864Y-100547890D01*
X100593082Y-100534126D01*
X100569427Y-100513293D01*
X99160874Y-99104741D01*
X99156471Y-99100224D01*
X99097272Y-99037947D01*
X99097271Y-99037946D01*
X99052752Y-99006960D01*
X99037649Y-98995572D01*
X98995621Y-98961303D01*
X98995620Y-98961302D01*
X98984417Y-98955450D01*
X98975673Y-98950882D01*
X98948722Y-98934553D01*
X98930262Y-98921705D01*
X98880415Y-98900313D01*
X98863329Y-98892198D01*
X98815263Y-98867090D01*
X98793639Y-98860903D01*
X98763945Y-98850331D01*
X98743271Y-98841459D01*
X98690137Y-98830539D01*
X98671767Y-98826030D01*
X98619633Y-98811113D01*
X98597193Y-98809404D01*
X98565986Y-98805027D01*
X98543955Y-98800500D01*
X98543954Y-98800500D01*
X98489723Y-98800500D01*
X98470816Y-98799781D01*
X98395428Y-98794039D01*
X98339789Y-98791899D01*
X98263444Y-98762407D01*
X98200790Y-98709760D01*
X98186226Y-98692708D01*
X98141961Y-98617186D01*
X98126570Y-98531002D01*
X98141960Y-98444817D01*
X98186225Y-98369292D01*
X98326836Y-98204659D01*
X98458466Y-97989859D01*
X98554873Y-97757111D01*
X98613683Y-97512148D01*
X98633449Y-97261000D01*
X98613683Y-97009852D01*
X98554873Y-96764889D01*
X98552600Y-96759402D01*
X98458468Y-96532144D01*
X98431000Y-96487321D01*
X98326836Y-96317341D01*
X98186229Y-96152711D01*
X98141961Y-96077181D01*
X98126571Y-95990998D01*
X98141962Y-95904815D01*
X98186227Y-95829290D01*
X98326836Y-95664659D01*
X98458466Y-95449859D01*
X98473117Y-95414490D01*
X98548524Y-95232438D01*
X98554873Y-95217111D01*
X98613683Y-94972148D01*
X98633449Y-94721000D01*
X98613683Y-94469852D01*
X98554873Y-94224889D01*
X98554872Y-94224886D01*
X98458468Y-93992144D01*
X98330592Y-93783471D01*
X98326836Y-93777341D01*
X98326835Y-93777340D01*
X98326834Y-93777338D01*
X98186230Y-93612712D01*
X98141961Y-93537183D01*
X98126571Y-93451000D01*
X98141961Y-93364817D01*
X98186230Y-93289288D01*
X98302103Y-93153618D01*
X98326836Y-93124659D01*
X98458466Y-92909859D01*
X98462356Y-92900469D01*
X98554872Y-92677113D01*
X98554871Y-92677113D01*
X98554873Y-92677111D01*
X98613683Y-92432148D01*
X98633449Y-92181000D01*
X98613683Y-91929852D01*
X98554873Y-91684889D01*
X98554872Y-91684886D01*
X98458468Y-91452144D01*
X98353756Y-91281271D01*
X98326836Y-91237341D01*
X98186229Y-91072711D01*
X98141961Y-90997181D01*
X98126571Y-90910998D01*
X98141962Y-90824815D01*
X98186227Y-90749290D01*
X98326836Y-90584659D01*
X98458466Y-90369859D01*
X98459829Y-90366570D01*
X98532759Y-90190500D01*
X98554873Y-90137111D01*
X98613683Y-89892148D01*
X98633449Y-89641000D01*
X98631352Y-89614361D01*
X98613683Y-89389853D01*
X98610133Y-89375066D01*
X98554873Y-89144889D01*
X98554872Y-89144886D01*
X98458468Y-88912144D01*
X98392757Y-88804914D01*
X98326836Y-88697341D01*
X98203740Y-88553214D01*
X98186229Y-88532711D01*
X98141961Y-88457181D01*
X98126571Y-88370998D01*
X98141962Y-88284815D01*
X98186227Y-88209290D01*
X98326836Y-88044659D01*
X98458466Y-87829859D01*
X98458748Y-87829180D01*
X98545546Y-87619628D01*
X98554873Y-87597111D01*
X98613683Y-87352148D01*
X98633449Y-87101000D01*
X98613683Y-86849852D01*
X98554873Y-86604889D01*
X98534970Y-86556838D01*
X98458468Y-86372144D01*
X98378453Y-86241572D01*
X98326836Y-86157341D01*
X98326835Y-86157340D01*
X98326834Y-86157338D01*
X98186230Y-85992712D01*
X98141961Y-85917183D01*
X98126571Y-85831000D01*
X98141961Y-85744817D01*
X98186230Y-85669288D01*
X98326834Y-85504661D01*
X98326836Y-85504659D01*
X98458466Y-85289859D01*
X98554873Y-85057111D01*
X98613683Y-84812148D01*
X98633449Y-84561000D01*
X98613683Y-84309852D01*
X98554873Y-84064889D01*
X98552147Y-84058307D01*
X98458468Y-83832144D01*
X98348635Y-83652914D01*
X98326836Y-83617341D01*
X98326835Y-83617340D01*
X98326834Y-83617338D01*
X98186230Y-83452712D01*
X98141961Y-83377183D01*
X98126571Y-83291000D01*
X98141961Y-83204817D01*
X98186230Y-83129288D01*
X98284533Y-83014189D01*
X98326836Y-82964659D01*
X98458466Y-82749859D01*
X98458748Y-82749180D01*
X98539829Y-82553430D01*
X98554873Y-82517111D01*
X98613683Y-82272148D01*
X98633449Y-82021000D01*
X98613683Y-81769852D01*
X98554873Y-81524889D01*
X98540709Y-81490694D01*
X98458468Y-81292144D01*
X98431000Y-81247321D01*
X98326836Y-81077341D01*
X98186229Y-80912711D01*
X98141961Y-80837181D01*
X98126571Y-80750998D01*
X98141962Y-80664815D01*
X98186227Y-80589290D01*
X98326836Y-80424659D01*
X98458466Y-80209859D01*
X98554873Y-79977111D01*
X98613683Y-79732148D01*
X98633449Y-79481000D01*
X98613683Y-79229852D01*
X98554873Y-78984889D01*
X98546616Y-78964954D01*
X98458468Y-78752144D01*
X98392650Y-78644740D01*
X98326836Y-78537341D01*
X98326835Y-78537340D01*
X98326834Y-78537338D01*
X98186230Y-78372712D01*
X98141961Y-78297183D01*
X98126571Y-78211000D01*
X98141961Y-78124817D01*
X98186230Y-78049288D01*
X98326834Y-77884661D01*
X98326836Y-77884659D01*
X98458466Y-77669859D01*
X98554873Y-77437111D01*
X98613683Y-77192148D01*
X98633449Y-76941000D01*
X98613683Y-76689852D01*
X98554873Y-76444889D01*
X98545397Y-76422012D01*
X98458468Y-76212144D01*
X98374684Y-76075421D01*
X98326836Y-75997341D01*
X98326835Y-75997340D01*
X98326834Y-75997338D01*
X98186230Y-75832712D01*
X98141961Y-75757183D01*
X98126571Y-75671000D01*
X98141961Y-75584817D01*
X98186230Y-75509288D01*
X98304568Y-75370731D01*
X98326836Y-75344659D01*
X98458466Y-75129859D01*
X98458882Y-75128856D01*
X98554872Y-74897113D01*
X98554871Y-74897113D01*
X98554873Y-74897111D01*
X98613683Y-74652148D01*
X98633449Y-74401000D01*
X98613683Y-74149852D01*
X98554873Y-73904889D01*
X98554872Y-73904886D01*
X98458468Y-73672144D01*
X98336331Y-73472836D01*
X98326836Y-73457341D01*
X98326835Y-73457340D01*
X98326834Y-73457338D01*
X98186230Y-73292712D01*
X98141961Y-73217183D01*
X98126571Y-73131000D01*
X98141961Y-73044817D01*
X98186230Y-72969288D01*
X98326834Y-72804661D01*
X98326836Y-72804659D01*
X98458466Y-72589859D01*
X98461539Y-72582442D01*
X98551847Y-72364416D01*
X98554873Y-72357111D01*
X98613683Y-72112148D01*
X98633449Y-71861000D01*
X98613683Y-71609852D01*
X98554873Y-71364889D01*
X98552182Y-71358392D01*
X98458468Y-71132144D01*
X98326834Y-70917338D01*
X98163226Y-70725778D01*
X98163224Y-70725776D01*
X98062073Y-70639385D01*
X98002672Y-70564539D01*
X97993979Y-70534835D01*
X97957867Y-70534658D01*
X97873942Y-70502283D01*
X97870967Y-70500460D01*
X97863791Y-70496062D01*
X97837421Y-70479902D01*
X97791458Y-70443667D01*
X97028000Y-69680210D01*
X96264543Y-70443665D01*
X96218576Y-70479902D01*
X96182052Y-70502284D01*
X96098128Y-70534658D01*
X96062020Y-70534835D01*
X96053327Y-70564538D01*
X95993924Y-70639386D01*
X95892776Y-70725774D01*
X95729165Y-70917338D01*
X95597531Y-71132144D01*
X95501127Y-71364886D01*
X95442316Y-71609853D01*
X95422550Y-71860999D01*
X95442316Y-72112146D01*
X95501127Y-72357113D01*
X95597531Y-72589855D01*
X95690814Y-72742078D01*
X95729164Y-72804659D01*
X95783681Y-72868490D01*
X95869770Y-72969288D01*
X95914038Y-73044817D01*
X95929428Y-73131000D01*
X95914038Y-73217183D01*
X95869770Y-73292712D01*
X95729163Y-73457342D01*
X95597531Y-73672144D01*
X95501127Y-73904886D01*
X95442316Y-74149853D01*
X95422550Y-74400999D01*
X95442316Y-74652146D01*
X95501127Y-74897113D01*
X95597531Y-75129855D01*
X95661842Y-75234800D01*
X95729164Y-75344659D01*
X95751432Y-75370731D01*
X95869770Y-75509288D01*
X95914038Y-75584817D01*
X95929428Y-75671000D01*
X95914038Y-75757183D01*
X95869770Y-75832712D01*
X95729163Y-75997342D01*
X95597531Y-76212144D01*
X95501127Y-76444886D01*
X95442316Y-76689853D01*
X95422550Y-76940999D01*
X95442316Y-77192146D01*
X95501127Y-77437113D01*
X95597531Y-77669855D01*
X95729165Y-77884661D01*
X95869769Y-78049287D01*
X95914038Y-78124816D01*
X95929428Y-78210998D01*
X95914038Y-78297181D01*
X95869770Y-78372710D01*
X95729165Y-78537338D01*
X95597531Y-78752144D01*
X95501127Y-78984886D01*
X95442316Y-79229853D01*
X95422550Y-79481000D01*
X95442316Y-79732146D01*
X95501127Y-79977113D01*
X95597531Y-80209855D01*
X95690814Y-80362078D01*
X95729164Y-80424659D01*
X95813111Y-80522949D01*
X95869770Y-80589288D01*
X95914038Y-80664817D01*
X95929428Y-80751000D01*
X95914038Y-80837183D01*
X95869770Y-80912712D01*
X95729163Y-81077342D01*
X95597531Y-81292144D01*
X95501127Y-81524886D01*
X95442316Y-81769853D01*
X95422550Y-82021000D01*
X95442316Y-82272146D01*
X95501127Y-82517113D01*
X95597531Y-82749855D01*
X95628507Y-82800402D01*
X95729164Y-82964659D01*
X95786468Y-83031753D01*
X95869770Y-83129288D01*
X95914038Y-83204817D01*
X95929428Y-83291000D01*
X95914038Y-83377183D01*
X95869770Y-83452712D01*
X95729163Y-83617342D01*
X95597531Y-83832144D01*
X95501127Y-84064886D01*
X95442316Y-84309853D01*
X95422550Y-84561000D01*
X95442316Y-84812146D01*
X95501127Y-85057113D01*
X95597531Y-85289855D01*
X95669524Y-85407336D01*
X95729164Y-85504659D01*
X95729166Y-85504661D01*
X95869770Y-85669288D01*
X95914038Y-85744817D01*
X95929428Y-85831000D01*
X95914038Y-85917183D01*
X95869770Y-85992712D01*
X95729163Y-86157342D01*
X95597531Y-86372144D01*
X95501127Y-86604886D01*
X95442316Y-86849853D01*
X95422550Y-87100999D01*
X95442316Y-87352146D01*
X95501127Y-87597113D01*
X95597531Y-87829855D01*
X95656700Y-87926409D01*
X95729164Y-88044659D01*
X95786469Y-88111754D01*
X95869770Y-88209288D01*
X95914038Y-88284817D01*
X95929428Y-88371000D01*
X95914038Y-88457183D01*
X95869770Y-88532712D01*
X95729163Y-88697342D01*
X95597531Y-88912144D01*
X95501127Y-89144886D01*
X95442316Y-89389853D01*
X95422550Y-89640999D01*
X95442316Y-89892146D01*
X95501127Y-90137113D01*
X95597531Y-90369855D01*
X95729165Y-90584661D01*
X95869770Y-90749288D01*
X95914038Y-90824816D01*
X95929429Y-90910998D01*
X95914040Y-90997180D01*
X95869773Y-91072709D01*
X95867597Y-91075256D01*
X95852262Y-91093210D01*
X95798539Y-91140327D01*
X95733642Y-91170246D01*
X95662921Y-91180500D01*
X94736865Y-91180500D01*
X94730559Y-91180420D01*
X94715348Y-91180034D01*
X94644637Y-91178243D01*
X94644636Y-91178243D01*
X94591241Y-91187812D01*
X94572513Y-91190439D01*
X94518559Y-91195926D01*
X94497090Y-91202662D01*
X94466493Y-91210172D01*
X94444349Y-91214141D01*
X94393976Y-91234261D01*
X94376166Y-91240602D01*
X94324407Y-91256842D01*
X94304738Y-91267759D01*
X94276287Y-91281271D01*
X94255382Y-91289622D01*
X94210088Y-91319472D01*
X94193916Y-91329270D01*
X94146497Y-91355590D01*
X94129417Y-91370253D01*
X94104264Y-91389218D01*
X94085480Y-91401598D01*
X94047121Y-91439956D01*
X94033251Y-91452810D01*
X93992101Y-91488136D01*
X93978329Y-91505928D01*
X93957503Y-91529575D01*
X90743739Y-94743339D01*
X90739224Y-94747740D01*
X90676947Y-94806939D01*
X90645962Y-94851457D01*
X90634575Y-94866559D01*
X90600301Y-94908592D01*
X90589879Y-94928544D01*
X90573556Y-94955485D01*
X90560705Y-94973949D01*
X90539315Y-95023792D01*
X90531203Y-95040873D01*
X90506092Y-95088947D01*
X90499904Y-95110572D01*
X90489336Y-95140254D01*
X90480459Y-95160939D01*
X90469541Y-95214068D01*
X90465033Y-95232438D01*
X90450113Y-95284583D01*
X90448404Y-95307021D01*
X90444027Y-95338226D01*
X90439500Y-95360257D01*
X90439500Y-95414490D01*
X90438781Y-95433397D01*
X90434662Y-95487475D01*
X90437505Y-95509792D01*
X90439500Y-95541250D01*
X90439500Y-103141248D01*
X90439420Y-103147554D01*
X90437243Y-103233475D01*
X90446812Y-103286871D01*
X90449438Y-103305598D01*
X90454925Y-103359550D01*
X90461661Y-103381020D01*
X90469173Y-103411624D01*
X90473142Y-103433766D01*
X90493257Y-103484124D01*
X90499601Y-103501944D01*
X90515840Y-103553699D01*
X90526758Y-103573370D01*
X90540276Y-103601836D01*
X90548621Y-103622727D01*
X90578467Y-103668014D01*
X90588268Y-103684192D01*
X90614591Y-103731616D01*
X90629242Y-103748682D01*
X90648215Y-103773843D01*
X90655648Y-103785121D01*
X90660600Y-103792635D01*
X90698952Y-103830987D01*
X90711810Y-103844861D01*
X90747134Y-103886008D01*
X90758566Y-103894857D01*
X90764917Y-103899773D01*
X90788571Y-103920605D01*
X101864223Y-114996256D01*
X101868626Y-115000773D01*
X101927828Y-115063053D01*
X101972342Y-115094035D01*
X101987448Y-115105425D01*
X102029480Y-115139698D01*
X102049420Y-115150114D01*
X102076370Y-115166441D01*
X102094838Y-115179295D01*
X102123818Y-115191731D01*
X102144682Y-115200685D01*
X102161771Y-115208801D01*
X102182933Y-115219854D01*
X102209838Y-115233909D01*
X102231473Y-115240099D01*
X102261142Y-115250662D01*
X102281829Y-115259540D01*
X102334972Y-115270461D01*
X102353302Y-115274959D01*
X102405469Y-115289887D01*
X102427909Y-115291595D01*
X102459113Y-115295972D01*
X102481146Y-115300500D01*
X102535377Y-115300500D01*
X102554284Y-115301219D01*
X102608362Y-115305337D01*
X102608362Y-115305336D01*
X102608363Y-115305337D01*
X102621576Y-115303654D01*
X102630679Y-115302495D01*
X102662137Y-115300500D01*
X114920917Y-115300500D01*
X115016205Y-115319454D01*
X115096987Y-115373430D01*
X116852488Y-117128930D01*
X116900759Y-117196963D01*
X116923852Y-117277121D01*
X116919175Y-117360408D01*
X116887252Y-117437476D01*
X116831667Y-117499676D01*
X116758657Y-117540027D01*
X116676418Y-117554000D01*
X88397000Y-117554000D01*
X88301712Y-117535046D01*
X88220930Y-117481070D01*
X88166954Y-117400288D01*
X88148000Y-117305000D01*
X88148000Y-59786000D01*
X90282318Y-59786000D01*
X91185999Y-59786000D01*
X91186000Y-59785999D01*
X91186000Y-58883990D01*
X91185999Y-58883989D01*
X91114869Y-58897286D01*
X90910431Y-58976485D01*
X90724028Y-59091900D01*
X90562010Y-59239600D01*
X90429882Y-59414565D01*
X90332161Y-59610818D01*
X90282318Y-59786000D01*
X88148000Y-59786000D01*
X88148000Y-53397000D01*
X88166954Y-53301712D01*
X88220930Y-53220930D01*
X88301712Y-53166954D01*
X88397000Y-53148000D01*
X221493000Y-53148000D01*
X221588288Y-53166954D01*
G37*
%TD.AperFunction*%
%TA.AperFunction,Conductor*%
G36*
X162475788Y-74389357D02*
G01*
X162556570Y-74443333D01*
X162610546Y-74524115D01*
X162629500Y-74619403D01*
X162629500Y-74810529D01*
X162629234Y-74822029D01*
X162625643Y-74899682D01*
X162636381Y-74976658D01*
X162637707Y-74988081D01*
X162644885Y-75065537D01*
X162647798Y-75075776D01*
X162654912Y-75109500D01*
X162656381Y-75120031D01*
X162681091Y-75193758D01*
X162684492Y-75204742D01*
X162705771Y-75279529D01*
X162710511Y-75289049D01*
X162723703Y-75320896D01*
X162727084Y-75330985D01*
X162764927Y-75398925D01*
X162770290Y-75409100D01*
X162804940Y-75478686D01*
X162811351Y-75487176D01*
X162830171Y-75516059D01*
X162835348Y-75525353D01*
X162852915Y-75546508D01*
X162885019Y-75585169D01*
X162892150Y-75594170D01*
X162939019Y-75656236D01*
X162991315Y-75703910D01*
X162996465Y-75708605D01*
X163004785Y-75716548D01*
X170663450Y-83375213D01*
X170671374Y-83383512D01*
X170723764Y-83440981D01*
X170785807Y-83487833D01*
X170794810Y-83494965D01*
X170854643Y-83544650D01*
X170854647Y-83544653D01*
X170863943Y-83549830D01*
X170892839Y-83568660D01*
X170901311Y-83575058D01*
X170940372Y-83594508D01*
X170970901Y-83609710D01*
X170981077Y-83615074D01*
X171049012Y-83652914D01*
X171049015Y-83652915D01*
X171059086Y-83656290D01*
X171090957Y-83669490D01*
X171100472Y-83674229D01*
X171175282Y-83695514D01*
X171186215Y-83698899D01*
X171259968Y-83723619D01*
X171270502Y-83725088D01*
X171304238Y-83732205D01*
X171314464Y-83735115D01*
X171391911Y-83742290D01*
X171403289Y-83743610D01*
X171480319Y-83754356D01*
X171480321Y-83754355D01*
X171480322Y-83754356D01*
X171528670Y-83752120D01*
X171557980Y-83750765D01*
X171569477Y-83750500D01*
X193709597Y-83750500D01*
X193774043Y-83758984D01*
X193834097Y-83783860D01*
X193885667Y-83823430D01*
X200076666Y-90014430D01*
X200130642Y-90095212D01*
X200149596Y-90190500D01*
X200130642Y-90285788D01*
X200076666Y-90366570D01*
X199995884Y-90420546D01*
X199900596Y-90439500D01*
X178317560Y-90439500D01*
X178222272Y-90420546D01*
X178141491Y-90366570D01*
X177603431Y-89828511D01*
X177563860Y-89776941D01*
X177538984Y-89716887D01*
X177530500Y-89652441D01*
X177530500Y-88271414D01*
X177548226Y-88179145D01*
X177598882Y-88100014D01*
X177675254Y-88045286D01*
X177766468Y-88022755D01*
X177859539Y-88035628D01*
X177941210Y-88082071D01*
X178101341Y-88218836D01*
X178244283Y-88306431D01*
X178316144Y-88350468D01*
X178548886Y-88446872D01*
X178548887Y-88446872D01*
X178548889Y-88446873D01*
X178793852Y-88505683D01*
X179045000Y-88525449D01*
X179296148Y-88505683D01*
X179541111Y-88446873D01*
X179674794Y-88391500D01*
X179773855Y-88350468D01*
X179773856Y-88350466D01*
X179773859Y-88350466D01*
X179988659Y-88218836D01*
X180097726Y-88125684D01*
X180153288Y-88078230D01*
X180228817Y-88033961D01*
X180315000Y-88018571D01*
X180401183Y-88033961D01*
X180476712Y-88078230D01*
X180641338Y-88218834D01*
X180641340Y-88218835D01*
X180641341Y-88218836D01*
X180727140Y-88271414D01*
X180856144Y-88350468D01*
X181088886Y-88446872D01*
X181088887Y-88446872D01*
X181088889Y-88446873D01*
X181333852Y-88505683D01*
X181585000Y-88525449D01*
X181836148Y-88505683D01*
X182081111Y-88446873D01*
X182214794Y-88391500D01*
X182313855Y-88350468D01*
X182313856Y-88350466D01*
X182313859Y-88350466D01*
X182528659Y-88218836D01*
X182637726Y-88125684D01*
X182693288Y-88078230D01*
X182768817Y-88033961D01*
X182855000Y-88018571D01*
X182941183Y-88033961D01*
X183016712Y-88078230D01*
X183181338Y-88218834D01*
X183181340Y-88218835D01*
X183181341Y-88218836D01*
X183267140Y-88271414D01*
X183396144Y-88350468D01*
X183628886Y-88446872D01*
X183628887Y-88446872D01*
X183628889Y-88446873D01*
X183873852Y-88505683D01*
X184125000Y-88525449D01*
X184376148Y-88505683D01*
X184621111Y-88446873D01*
X184754794Y-88391500D01*
X184853855Y-88350468D01*
X184853856Y-88350466D01*
X184853859Y-88350466D01*
X185068659Y-88218836D01*
X185177726Y-88125684D01*
X185233288Y-88078230D01*
X185308817Y-88033961D01*
X185395000Y-88018571D01*
X185481183Y-88033961D01*
X185556712Y-88078230D01*
X185721338Y-88218834D01*
X185721340Y-88218835D01*
X185721341Y-88218836D01*
X185807140Y-88271414D01*
X185936144Y-88350468D01*
X186168886Y-88446872D01*
X186168887Y-88446872D01*
X186168889Y-88446873D01*
X186413852Y-88505683D01*
X186665000Y-88525449D01*
X186916148Y-88505683D01*
X187161111Y-88446873D01*
X187294794Y-88391500D01*
X187393855Y-88350468D01*
X187393856Y-88350466D01*
X187393859Y-88350466D01*
X187608659Y-88218836D01*
X187717726Y-88125684D01*
X187773288Y-88078230D01*
X187848817Y-88033961D01*
X187935000Y-88018571D01*
X188021183Y-88033961D01*
X188096712Y-88078230D01*
X188261338Y-88218834D01*
X188261340Y-88218835D01*
X188261341Y-88218836D01*
X188347140Y-88271414D01*
X188476144Y-88350468D01*
X188708886Y-88446872D01*
X188708887Y-88446872D01*
X188708889Y-88446873D01*
X188953852Y-88505683D01*
X189205000Y-88525449D01*
X189456148Y-88505683D01*
X189701111Y-88446873D01*
X189834794Y-88391500D01*
X189933855Y-88350468D01*
X189933856Y-88350466D01*
X189933859Y-88350466D01*
X190148659Y-88218836D01*
X190340224Y-88055224D01*
X190349264Y-88044638D01*
X190415388Y-87989975D01*
X190496143Y-87960997D01*
X190581939Y-87961150D01*
X190662590Y-87990413D01*
X190728522Y-88045313D01*
X190771906Y-88119332D01*
X190810632Y-88223161D01*
X190947773Y-88474314D01*
X190947774Y-88474315D01*
X191119261Y-88703395D01*
X191321605Y-88905739D01*
X191515178Y-89050646D01*
X191550685Y-89077226D01*
X191801840Y-89214368D01*
X192069948Y-89314367D01*
X192069949Y-89314367D01*
X192069954Y-89314369D01*
X192349572Y-89375196D01*
X192563552Y-89390500D01*
X192706443Y-89390500D01*
X192706448Y-89390500D01*
X192920428Y-89375196D01*
X193200046Y-89314369D01*
X193293128Y-89279650D01*
X193468159Y-89214368D01*
X193553097Y-89167988D01*
X193719315Y-89077226D01*
X193948395Y-88905739D01*
X194150739Y-88703395D01*
X194322226Y-88474315D01*
X194459367Y-88223161D01*
X194464542Y-88209288D01*
X194529935Y-88033961D01*
X194559369Y-87955046D01*
X194620196Y-87675428D01*
X194640610Y-87390000D01*
X194620196Y-87104572D01*
X194559369Y-86824954D01*
X194559367Y-86824948D01*
X194459368Y-86556840D01*
X194322226Y-86305685D01*
X194236482Y-86191144D01*
X194150739Y-86076605D01*
X193948395Y-85874261D01*
X193804972Y-85766896D01*
X193719314Y-85702773D01*
X193468159Y-85565631D01*
X193200051Y-85465632D01*
X192932067Y-85407336D01*
X192920428Y-85404804D01*
X192706448Y-85389500D01*
X192563552Y-85389500D01*
X192349572Y-85404803D01*
X192349572Y-85404804D01*
X192069948Y-85465632D01*
X191801840Y-85565631D01*
X191550685Y-85702773D01*
X191321607Y-85874259D01*
X191119258Y-86076608D01*
X191034549Y-86189766D01*
X190962883Y-86254325D01*
X190872058Y-86286804D01*
X190775705Y-86282329D01*
X190688282Y-86241572D01*
X190622908Y-86170648D01*
X190513868Y-85992712D01*
X190503836Y-85976341D01*
X190503835Y-85976340D01*
X190503834Y-85976338D01*
X190340224Y-85784775D01*
X190148661Y-85621165D01*
X189933855Y-85489531D01*
X189701113Y-85393127D01*
X189456146Y-85334316D01*
X189205000Y-85314550D01*
X188953853Y-85334316D01*
X188708886Y-85393127D01*
X188476144Y-85489531D01*
X188261342Y-85621163D01*
X188096712Y-85761770D01*
X188021183Y-85806038D01*
X187935000Y-85821428D01*
X187848817Y-85806038D01*
X187773288Y-85761770D01*
X187665005Y-85669288D01*
X187608659Y-85621164D01*
X187477465Y-85540768D01*
X187393855Y-85489531D01*
X187161113Y-85393127D01*
X186916146Y-85334316D01*
X186665000Y-85314550D01*
X186413853Y-85334316D01*
X186168886Y-85393127D01*
X185936144Y-85489531D01*
X185721342Y-85621163D01*
X185556712Y-85761770D01*
X185481183Y-85806038D01*
X185395000Y-85821428D01*
X185308817Y-85806038D01*
X185233288Y-85761770D01*
X185125005Y-85669288D01*
X185068659Y-85621164D01*
X184937465Y-85540768D01*
X184853855Y-85489531D01*
X184621113Y-85393127D01*
X184376146Y-85334316D01*
X184125000Y-85314550D01*
X183873853Y-85334316D01*
X183628886Y-85393127D01*
X183396144Y-85489531D01*
X183181342Y-85621163D01*
X183016712Y-85761770D01*
X182941183Y-85806038D01*
X182855000Y-85821428D01*
X182768817Y-85806038D01*
X182693288Y-85761770D01*
X182585005Y-85669288D01*
X182528659Y-85621164D01*
X182397465Y-85540768D01*
X182313855Y-85489531D01*
X182081113Y-85393127D01*
X181836146Y-85334316D01*
X181585000Y-85314550D01*
X181333853Y-85334316D01*
X181088886Y-85393127D01*
X180856144Y-85489531D01*
X180641342Y-85621163D01*
X180476712Y-85761770D01*
X180401183Y-85806038D01*
X180315000Y-85821428D01*
X180228817Y-85806038D01*
X180153288Y-85761770D01*
X180045005Y-85669288D01*
X179988659Y-85621164D01*
X179857465Y-85540768D01*
X179773855Y-85489531D01*
X179541113Y-85393127D01*
X179296146Y-85334316D01*
X179045000Y-85314550D01*
X178793853Y-85334316D01*
X178548886Y-85393127D01*
X178316144Y-85489531D01*
X178101342Y-85621163D01*
X177936712Y-85761770D01*
X177861183Y-85806038D01*
X177775000Y-85821428D01*
X177688817Y-85806038D01*
X177613288Y-85761770D01*
X177505005Y-85669288D01*
X177448659Y-85621164D01*
X177317465Y-85540768D01*
X177233855Y-85489531D01*
X177001113Y-85393127D01*
X176756146Y-85334316D01*
X176505000Y-85314550D01*
X176253853Y-85334316D01*
X176008886Y-85393127D01*
X175776144Y-85489531D01*
X175561342Y-85621163D01*
X175396712Y-85761770D01*
X175321183Y-85806038D01*
X175235000Y-85821428D01*
X175148817Y-85806038D01*
X175073288Y-85761770D01*
X174965005Y-85669288D01*
X174908659Y-85621164D01*
X174777465Y-85540768D01*
X174693855Y-85489531D01*
X174461113Y-85393127D01*
X174216146Y-85334316D01*
X173965000Y-85314550D01*
X173713853Y-85334316D01*
X173468886Y-85393127D01*
X173236144Y-85489531D01*
X173021342Y-85621163D01*
X172856712Y-85761770D01*
X172781183Y-85806038D01*
X172695000Y-85821428D01*
X172608817Y-85806038D01*
X172533288Y-85761770D01*
X172425005Y-85669288D01*
X172368659Y-85621164D01*
X172237465Y-85540768D01*
X172153855Y-85489531D01*
X171921113Y-85393127D01*
X171676146Y-85334316D01*
X171425000Y-85314550D01*
X171173853Y-85334316D01*
X170928886Y-85393127D01*
X170696144Y-85489531D01*
X170481342Y-85621163D01*
X170316712Y-85761770D01*
X170241183Y-85806038D01*
X170155000Y-85821428D01*
X170068817Y-85806038D01*
X169993288Y-85761770D01*
X169885005Y-85669288D01*
X169828659Y-85621164D01*
X169697465Y-85540768D01*
X169613855Y-85489531D01*
X169381113Y-85393127D01*
X169136146Y-85334316D01*
X168885000Y-85314550D01*
X168633853Y-85334316D01*
X168388886Y-85393127D01*
X168156144Y-85489531D01*
X167941342Y-85621163D01*
X167776712Y-85761770D01*
X167701183Y-85806038D01*
X167615000Y-85821428D01*
X167528817Y-85806038D01*
X167453288Y-85761770D01*
X167345005Y-85669288D01*
X167288659Y-85621164D01*
X167157465Y-85540768D01*
X167073855Y-85489531D01*
X166841113Y-85393127D01*
X166596146Y-85334316D01*
X166345000Y-85314550D01*
X166093853Y-85334316D01*
X165848886Y-85393127D01*
X165616144Y-85489531D01*
X165401342Y-85621163D01*
X165236712Y-85761770D01*
X165161183Y-85806038D01*
X165075000Y-85821428D01*
X164988817Y-85806038D01*
X164913288Y-85761770D01*
X164805005Y-85669288D01*
X164748659Y-85621164D01*
X164617465Y-85540768D01*
X164533855Y-85489531D01*
X164301113Y-85393127D01*
X164056146Y-85334316D01*
X163805000Y-85314550D01*
X163553853Y-85334316D01*
X163308886Y-85393127D01*
X163076144Y-85489531D01*
X162861342Y-85621163D01*
X162696712Y-85761770D01*
X162621183Y-85806038D01*
X162535000Y-85821428D01*
X162448817Y-85806038D01*
X162373288Y-85761770D01*
X162265005Y-85669288D01*
X162208659Y-85621164D01*
X162077465Y-85540768D01*
X161993855Y-85489531D01*
X161761113Y-85393127D01*
X161516146Y-85334316D01*
X161265000Y-85314550D01*
X161013853Y-85334316D01*
X160768886Y-85393127D01*
X160536144Y-85489531D01*
X160321342Y-85621163D01*
X160156712Y-85761770D01*
X160081183Y-85806038D01*
X159995000Y-85821428D01*
X159908817Y-85806038D01*
X159833288Y-85761770D01*
X159725005Y-85669288D01*
X159668659Y-85621164D01*
X159537465Y-85540768D01*
X159453855Y-85489531D01*
X159221113Y-85393127D01*
X158976146Y-85334316D01*
X158725000Y-85314550D01*
X158473853Y-85334316D01*
X158228886Y-85393127D01*
X157996144Y-85489531D01*
X157781338Y-85621165D01*
X157589774Y-85784776D01*
X157503386Y-85885924D01*
X157428538Y-85945327D01*
X157398835Y-85954019D01*
X157398658Y-85990131D01*
X157366283Y-86074056D01*
X157343902Y-86110577D01*
X157307667Y-86156540D01*
X156185002Y-87279206D01*
X156185000Y-87279210D01*
X155392090Y-88072118D01*
X155318042Y-88123188D01*
X155307861Y-88125684D01*
X155311106Y-88153101D01*
X155498268Y-88267794D01*
X155717557Y-88358626D01*
X155948370Y-88414040D01*
X156185000Y-88432663D01*
X156421627Y-88414040D01*
X156627220Y-88364681D01*
X156718773Y-88360054D01*
X156805795Y-88388870D01*
X156876493Y-88447222D01*
X156921285Y-88527203D01*
X156934099Y-88617972D01*
X156913200Y-88707227D01*
X156861420Y-88782871D01*
X150737723Y-94906570D01*
X150686153Y-94946140D01*
X150626099Y-94971016D01*
X150561653Y-94979500D01*
X142196003Y-94979500D01*
X142113247Y-94965345D01*
X142039899Y-94924491D01*
X141984299Y-94861582D01*
X141952768Y-94783770D01*
X141948890Y-94699901D01*
X141973107Y-94619511D01*
X142077839Y-94409179D01*
X142127682Y-94234000D01*
X139812318Y-94234000D01*
X139862161Y-94409181D01*
X139959884Y-94605437D01*
X140079219Y-94763463D01*
X140119204Y-94842615D01*
X140128914Y-94930759D01*
X140107119Y-95016718D01*
X140056583Y-95089587D01*
X139989177Y-95156993D01*
X139861164Y-95339815D01*
X139766843Y-95542089D01*
X139709079Y-95757665D01*
X139689627Y-95979999D01*
X139709079Y-96202334D01*
X139758085Y-96385224D01*
X139766844Y-96417913D01*
X139861165Y-96620186D01*
X139898052Y-96672866D01*
X139980604Y-96790763D01*
X139989178Y-96803007D01*
X140146993Y-96960822D01*
X140329814Y-97088835D01*
X140532087Y-97183156D01*
X140675806Y-97221665D01*
X140747665Y-97240920D01*
X140970000Y-97260372D01*
X141192334Y-97240920D01*
X141407913Y-97183156D01*
X141610186Y-97088835D01*
X141700593Y-97025530D01*
X141768538Y-96992025D01*
X141843414Y-96980500D01*
X151063348Y-96980500D01*
X151069654Y-96980580D01*
X151155576Y-96982757D01*
X151208983Y-96973184D01*
X151227675Y-96970562D01*
X151281651Y-96965074D01*
X151303113Y-96958339D01*
X151333722Y-96950827D01*
X151336816Y-96950272D01*
X151355866Y-96946858D01*
X151406227Y-96926740D01*
X151424055Y-96920394D01*
X151431242Y-96918139D01*
X151475801Y-96904159D01*
X151495475Y-96893238D01*
X151523938Y-96879721D01*
X151544830Y-96871377D01*
X151590121Y-96841527D01*
X151606286Y-96831733D01*
X151653715Y-96805409D01*
X151670786Y-96790753D01*
X151695947Y-96771781D01*
X151714732Y-96759402D01*
X151753089Y-96721044D01*
X151766951Y-96708196D01*
X151808108Y-96672866D01*
X151821880Y-96655073D01*
X151842698Y-96631434D01*
X154334803Y-94139329D01*
X155061786Y-94139329D01*
X155061786Y-105047471D01*
X169804213Y-105047471D01*
X169804214Y-105047471D01*
X169804214Y-94139329D01*
X155061786Y-94139329D01*
X154334803Y-94139329D01*
X159421314Y-89052818D01*
X159425750Y-89048494D01*
X159488053Y-88989272D01*
X159519051Y-88944734D01*
X159530410Y-88929670D01*
X159564698Y-88887620D01*
X159575113Y-88867680D01*
X159591448Y-88840720D01*
X159597398Y-88832170D01*
X159604295Y-88822262D01*
X159625685Y-88772414D01*
X159633799Y-88755331D01*
X159658909Y-88707262D01*
X159665095Y-88685638D01*
X159675666Y-88655948D01*
X159684540Y-88635271D01*
X159695458Y-88582137D01*
X159699959Y-88563798D01*
X159714887Y-88511631D01*
X159716595Y-88489186D01*
X159720971Y-88457988D01*
X159725500Y-88435954D01*
X159725500Y-88381722D01*
X159726219Y-88362815D01*
X159731960Y-88287421D01*
X159734098Y-88231798D01*
X159763589Y-88155448D01*
X159816236Y-88092793D01*
X159833293Y-88078224D01*
X159908813Y-88033961D01*
X159994997Y-88018570D01*
X160081181Y-88033960D01*
X160156710Y-88078227D01*
X160321341Y-88218836D01*
X160464283Y-88306431D01*
X160536144Y-88350468D01*
X160768886Y-88446872D01*
X160768887Y-88446872D01*
X160768889Y-88446873D01*
X161013852Y-88505683D01*
X161265000Y-88525449D01*
X161516148Y-88505683D01*
X161761111Y-88446873D01*
X161894794Y-88391500D01*
X161993855Y-88350468D01*
X161993856Y-88350466D01*
X161993859Y-88350466D01*
X162208659Y-88218836D01*
X162317726Y-88125684D01*
X162373288Y-88078230D01*
X162448817Y-88033961D01*
X162535000Y-88018571D01*
X162621183Y-88033961D01*
X162696712Y-88078230D01*
X162861338Y-88218834D01*
X162861340Y-88218835D01*
X162861341Y-88218836D01*
X162947140Y-88271414D01*
X163076144Y-88350468D01*
X163308886Y-88446872D01*
X163308887Y-88446872D01*
X163308889Y-88446873D01*
X163553852Y-88505683D01*
X163805000Y-88525449D01*
X164056148Y-88505683D01*
X164301111Y-88446873D01*
X164434794Y-88391500D01*
X164533855Y-88350468D01*
X164533856Y-88350466D01*
X164533859Y-88350466D01*
X164748659Y-88218836D01*
X164857726Y-88125684D01*
X164913288Y-88078230D01*
X164988817Y-88033961D01*
X165075000Y-88018571D01*
X165161183Y-88033961D01*
X165236712Y-88078230D01*
X165401338Y-88218834D01*
X165401340Y-88218835D01*
X165401341Y-88218836D01*
X165487140Y-88271414D01*
X165616144Y-88350468D01*
X165848886Y-88446872D01*
X165848887Y-88446872D01*
X165848889Y-88446873D01*
X166093852Y-88505683D01*
X166345000Y-88525449D01*
X166596148Y-88505683D01*
X166841111Y-88446873D01*
X166974794Y-88391500D01*
X167073855Y-88350468D01*
X167073856Y-88350466D01*
X167073859Y-88350466D01*
X167288659Y-88218836D01*
X167397726Y-88125684D01*
X167453288Y-88078230D01*
X167528817Y-88033961D01*
X167615000Y-88018571D01*
X167701183Y-88033961D01*
X167776712Y-88078230D01*
X167941338Y-88218834D01*
X167941340Y-88218835D01*
X167941341Y-88218836D01*
X168027140Y-88271414D01*
X168156144Y-88350468D01*
X168388886Y-88446872D01*
X168388887Y-88446872D01*
X168388889Y-88446873D01*
X168633852Y-88505683D01*
X168885000Y-88525449D01*
X169136148Y-88505683D01*
X169381111Y-88446873D01*
X169514794Y-88391500D01*
X169613855Y-88350468D01*
X169613856Y-88350466D01*
X169613859Y-88350466D01*
X169828659Y-88218836D01*
X169937726Y-88125684D01*
X169993288Y-88078230D01*
X170068817Y-88033961D01*
X170155000Y-88018571D01*
X170241183Y-88033961D01*
X170316712Y-88078230D01*
X170481338Y-88218834D01*
X170481340Y-88218835D01*
X170481341Y-88218836D01*
X170567140Y-88271414D01*
X170696144Y-88350468D01*
X170928886Y-88446872D01*
X170928887Y-88446872D01*
X170928889Y-88446873D01*
X171173852Y-88505683D01*
X171425000Y-88525449D01*
X171676148Y-88505683D01*
X171921111Y-88446873D01*
X172054794Y-88391500D01*
X172153855Y-88350468D01*
X172153856Y-88350466D01*
X172153859Y-88350466D01*
X172368659Y-88218836D01*
X172533292Y-88078225D01*
X172608817Y-88033960D01*
X172695001Y-88018570D01*
X172781185Y-88033961D01*
X172856709Y-88078227D01*
X172877216Y-88095742D01*
X172924330Y-88149465D01*
X172954246Y-88214360D01*
X172964500Y-88285079D01*
X172964500Y-89427613D01*
X172964420Y-89433919D01*
X172962243Y-89519840D01*
X172971812Y-89573236D01*
X172974438Y-89591963D01*
X172979925Y-89645915D01*
X172986661Y-89667385D01*
X172994173Y-89697989D01*
X172998142Y-89720131D01*
X173018257Y-89770489D01*
X173024601Y-89788309D01*
X173040840Y-89840064D01*
X173051758Y-89859735D01*
X173065276Y-89888201D01*
X173073621Y-89909092D01*
X173103467Y-89954379D01*
X173113268Y-89970557D01*
X173139591Y-90017981D01*
X173154242Y-90035047D01*
X173173215Y-90060208D01*
X173181206Y-90072333D01*
X173185600Y-90079000D01*
X173223951Y-90117351D01*
X173236810Y-90131226D01*
X173272135Y-90172375D01*
X173289910Y-90186133D01*
X173313569Y-90206968D01*
X177387877Y-94281276D01*
X177392280Y-94285793D01*
X177451463Y-94348053D01*
X177495974Y-94379034D01*
X177511078Y-94390422D01*
X177553115Y-94424698D01*
X177573055Y-94435114D01*
X177600005Y-94451441D01*
X177618473Y-94464295D01*
X177631425Y-94469853D01*
X177668317Y-94485685D01*
X177685406Y-94493801D01*
X177685686Y-94493947D01*
X177733473Y-94518909D01*
X177755108Y-94525099D01*
X177784777Y-94535662D01*
X177805464Y-94544540D01*
X177858607Y-94555461D01*
X177876937Y-94559959D01*
X177929104Y-94574887D01*
X177951544Y-94576595D01*
X177982748Y-94580972D01*
X178004781Y-94585500D01*
X178059013Y-94585500D01*
X178077920Y-94586219D01*
X178131998Y-94590337D01*
X178131998Y-94590336D01*
X178131999Y-94590337D01*
X178145212Y-94588654D01*
X178154315Y-94587495D01*
X178185773Y-94585500D01*
X197775500Y-94585500D01*
X197870788Y-94604454D01*
X197951570Y-94658430D01*
X198005546Y-94739212D01*
X198024500Y-94834500D01*
X198024500Y-96054359D01*
X198027505Y-96077183D01*
X198039956Y-96171762D01*
X198100464Y-96317841D01*
X198155005Y-96388921D01*
X198196511Y-96470822D01*
X198205511Y-96562202D01*
X198180780Y-96650630D01*
X198125681Y-96724082D01*
X198047706Y-96772570D01*
X197957459Y-96789500D01*
X184556652Y-96789500D01*
X184550346Y-96789420D01*
X184464424Y-96787243D01*
X184411029Y-96796812D01*
X184392302Y-96799438D01*
X184338348Y-96804925D01*
X184316868Y-96811664D01*
X184286278Y-96819172D01*
X184279966Y-96820303D01*
X184264132Y-96823142D01*
X184213766Y-96843260D01*
X184195953Y-96849602D01*
X184144198Y-96865841D01*
X184124527Y-96876759D01*
X184096068Y-96890274D01*
X184075169Y-96898622D01*
X184029879Y-96928470D01*
X184013707Y-96938268D01*
X183966283Y-96964591D01*
X183949205Y-96979252D01*
X183924054Y-96998216D01*
X183905269Y-97010597D01*
X183866907Y-97048957D01*
X183853039Y-97061809D01*
X183811888Y-97097136D01*
X183798116Y-97114928D01*
X183777290Y-97138575D01*
X170728739Y-110187126D01*
X170724224Y-110191527D01*
X170661947Y-110250726D01*
X170630962Y-110295244D01*
X170619575Y-110310346D01*
X170585301Y-110352379D01*
X170574879Y-110372331D01*
X170558556Y-110399272D01*
X170545705Y-110417736D01*
X170524315Y-110467579D01*
X170516203Y-110484660D01*
X170491092Y-110532734D01*
X170484904Y-110554359D01*
X170474336Y-110584041D01*
X170465459Y-110604726D01*
X170454541Y-110657855D01*
X170450034Y-110676217D01*
X170436938Y-110721992D01*
X170435113Y-110728370D01*
X170433404Y-110750808D01*
X170429027Y-110782013D01*
X170424500Y-110804044D01*
X170424500Y-110858277D01*
X170423781Y-110877184D01*
X170418040Y-110952565D01*
X170415900Y-111008209D01*
X170386407Y-111084554D01*
X170333757Y-111147212D01*
X170316712Y-111161769D01*
X170241186Y-111206038D01*
X170155002Y-111221429D01*
X170068818Y-111206039D01*
X169993288Y-111161770D01*
X169828661Y-111021165D01*
X169613855Y-110889531D01*
X169381113Y-110793127D01*
X169136146Y-110734316D01*
X168885000Y-110714550D01*
X168633853Y-110734316D01*
X168388886Y-110793127D01*
X168156144Y-110889531D01*
X167941342Y-111021163D01*
X167776712Y-111161770D01*
X167701183Y-111206038D01*
X167615000Y-111221428D01*
X167528817Y-111206038D01*
X167453288Y-111161770D01*
X167342140Y-111066841D01*
X167288659Y-111021164D01*
X167208767Y-110972206D01*
X167073855Y-110889531D01*
X166841113Y-110793127D01*
X166596146Y-110734316D01*
X166345000Y-110714550D01*
X166093853Y-110734316D01*
X165848886Y-110793127D01*
X165616144Y-110889531D01*
X165401342Y-111021163D01*
X165236712Y-111161770D01*
X165161183Y-111206038D01*
X165075000Y-111221428D01*
X164988817Y-111206038D01*
X164913288Y-111161770D01*
X164802140Y-111066841D01*
X164748659Y-111021164D01*
X164668767Y-110972206D01*
X164533855Y-110889531D01*
X164301113Y-110793127D01*
X164056146Y-110734316D01*
X163805000Y-110714550D01*
X163553853Y-110734316D01*
X163308886Y-110793127D01*
X163076144Y-110889531D01*
X162861342Y-111021163D01*
X162696712Y-111161770D01*
X162621183Y-111206038D01*
X162535000Y-111221428D01*
X162448817Y-111206038D01*
X162373288Y-111161770D01*
X162262140Y-111066841D01*
X162208659Y-111021164D01*
X162128767Y-110972206D01*
X161993855Y-110889531D01*
X161761113Y-110793127D01*
X161516146Y-110734316D01*
X161265000Y-110714550D01*
X161013853Y-110734316D01*
X160768886Y-110793127D01*
X160536144Y-110889531D01*
X160321342Y-111021163D01*
X160156712Y-111161770D01*
X160081183Y-111206038D01*
X159995000Y-111221428D01*
X159908817Y-111206038D01*
X159833288Y-111161770D01*
X159722140Y-111066841D01*
X159668659Y-111021164D01*
X159588767Y-110972206D01*
X159453855Y-110889531D01*
X159221113Y-110793127D01*
X158976146Y-110734316D01*
X158725000Y-110714550D01*
X158473853Y-110734316D01*
X158228886Y-110793127D01*
X157996144Y-110889531D01*
X157781338Y-111021165D01*
X157589774Y-111184776D01*
X157503386Y-111285924D01*
X157428538Y-111345327D01*
X157398835Y-111354019D01*
X157398658Y-111390132D01*
X157366283Y-111474057D01*
X157343900Y-111510581D01*
X157307665Y-111556543D01*
X156544210Y-112320000D01*
X157307667Y-113083458D01*
X157343902Y-113129421D01*
X157366283Y-113165942D01*
X157398658Y-113249867D01*
X157398835Y-113285979D01*
X157428539Y-113294672D01*
X157503385Y-113354073D01*
X157571616Y-113433961D01*
X157589778Y-113455226D01*
X157781338Y-113618834D01*
X157781340Y-113618835D01*
X157781341Y-113618836D01*
X157996141Y-113750466D01*
X157996146Y-113750468D01*
X158131308Y-113806454D01*
X158203239Y-113852003D01*
X158255619Y-113919122D01*
X158282326Y-113999963D01*
X158280237Y-114085077D01*
X158249596Y-114164511D01*
X158193985Y-114228979D01*
X158119907Y-114270944D01*
X158036021Y-114285500D01*
X156561651Y-114285500D01*
X156473179Y-114269252D01*
X156396252Y-114222630D01*
X156340911Y-114151717D01*
X156314377Y-114065767D01*
X156320113Y-113975999D01*
X156357371Y-113894125D01*
X156421287Y-113830833D01*
X156503522Y-113794380D01*
X156652442Y-113758626D01*
X156871731Y-113667795D01*
X157058891Y-113553102D01*
X157062136Y-113525684D01*
X157051957Y-113523188D01*
X156977909Y-113472118D01*
X156001860Y-112496070D01*
X155956068Y-112433044D01*
X155931995Y-112358952D01*
X155931995Y-112281047D01*
X155956069Y-112206956D01*
X156001860Y-112143930D01*
X156185000Y-111960790D01*
X156977908Y-111167881D01*
X157051957Y-111116810D01*
X157062136Y-111114313D01*
X157058891Y-111086896D01*
X156871735Y-110972206D01*
X156652442Y-110881373D01*
X156421629Y-110825959D01*
X156185000Y-110807336D01*
X155948370Y-110825959D01*
X155717557Y-110881373D01*
X155498266Y-110972205D01*
X155442373Y-111006457D01*
X155357648Y-111038980D01*
X155266894Y-111038979D01*
X155182169Y-111006456D01*
X155114728Y-110945732D01*
X155073282Y-110891718D01*
X155073280Y-110891716D01*
X155073279Y-110891715D01*
X154947843Y-110795465D01*
X154903301Y-110777015D01*
X154801762Y-110734956D01*
X154684361Y-110719500D01*
X154684359Y-110719500D01*
X152605640Y-110719500D01*
X152488237Y-110734956D01*
X152342157Y-110795464D01*
X152216717Y-110891717D01*
X152120465Y-111017156D01*
X152113224Y-111034637D01*
X152059956Y-111163238D01*
X152046588Y-111264783D01*
X152044500Y-111280640D01*
X152044500Y-113359359D01*
X152059956Y-113476762D01*
X152120464Y-113622842D01*
X152216717Y-113748282D01*
X152334885Y-113838955D01*
X152394138Y-113904024D01*
X152427055Y-113985641D01*
X152429523Y-114073611D01*
X152401235Y-114156946D01*
X152345724Y-114225235D01*
X152269924Y-114269948D01*
X152183304Y-114285500D01*
X146393820Y-114285500D01*
X146308889Y-114270568D01*
X146234145Y-114227562D01*
X146178551Y-114161641D01*
X146148776Y-114080711D01*
X146148391Y-113994478D01*
X146177443Y-113913285D01*
X146232446Y-113846871D01*
X146306803Y-113803200D01*
X146518159Y-113724368D01*
X146590148Y-113685059D01*
X146769315Y-113587226D01*
X146998395Y-113415739D01*
X147200739Y-113213395D01*
X147372226Y-112984315D01*
X147509367Y-112733161D01*
X147545169Y-112637174D01*
X147609367Y-112465051D01*
X147609366Y-112465051D01*
X147609369Y-112465046D01*
X147670196Y-112185428D01*
X147690610Y-111900000D01*
X147670196Y-111614572D01*
X147609369Y-111334954D01*
X147609367Y-111334948D01*
X147509368Y-111066840D01*
X147372226Y-110815685D01*
X147363512Y-110804044D01*
X147200739Y-110586605D01*
X146998395Y-110384261D01*
X146769315Y-110212774D01*
X146769316Y-110212774D01*
X146769314Y-110212773D01*
X146518159Y-110075631D01*
X146250051Y-109975632D01*
X146069855Y-109936433D01*
X145970428Y-109914804D01*
X145756448Y-109899500D01*
X145613552Y-109899500D01*
X145399572Y-109914803D01*
X145399572Y-109914804D01*
X145119948Y-109975632D01*
X144851840Y-110075631D01*
X144600685Y-110212773D01*
X144371607Y-110384259D01*
X144169259Y-110586607D01*
X143997773Y-110815685D01*
X143860631Y-111066840D01*
X143760630Y-111334954D01*
X143746810Y-111398484D01*
X143712972Y-111480175D01*
X143652720Y-111544889D01*
X143573652Y-111584468D01*
X143485737Y-111593920D01*
X143400062Y-111572052D01*
X143327431Y-111521624D01*
X141629549Y-109823742D01*
X141625146Y-109819225D01*
X141565946Y-109756947D01*
X141540837Y-109739471D01*
X141521426Y-109725960D01*
X141506323Y-109714572D01*
X141464295Y-109680303D01*
X141464294Y-109680302D01*
X141453091Y-109674450D01*
X141444347Y-109669882D01*
X141417396Y-109653553D01*
X141398936Y-109640705D01*
X141349089Y-109619313D01*
X141332003Y-109611198D01*
X141283937Y-109586090D01*
X141262313Y-109579903D01*
X141232619Y-109569331D01*
X141211945Y-109560459D01*
X141158811Y-109549539D01*
X141140441Y-109545030D01*
X141088307Y-109530113D01*
X141065867Y-109528404D01*
X141034660Y-109524027D01*
X141012629Y-109519500D01*
X141012628Y-109519500D01*
X140958397Y-109519500D01*
X140939490Y-109518781D01*
X140885411Y-109514662D01*
X140863095Y-109517505D01*
X140831637Y-109519500D01*
X123571313Y-109519500D01*
X123482304Y-109503048D01*
X123405058Y-109455865D01*
X123349781Y-109384187D01*
X123323780Y-109297485D01*
X123330489Y-109207218D01*
X123369022Y-109125313D01*
X123434288Y-109062594D01*
X123479893Y-109032537D01*
X123496073Y-109022733D01*
X123543502Y-108996409D01*
X123560573Y-108981753D01*
X123585734Y-108962781D01*
X123604519Y-108950402D01*
X123642876Y-108912044D01*
X123656738Y-108899196D01*
X123697895Y-108863866D01*
X123711667Y-108846073D01*
X123732485Y-108822434D01*
X128402527Y-104152392D01*
X132268600Y-104152392D01*
X132275104Y-104212894D01*
X132326153Y-104349760D01*
X132413696Y-104466703D01*
X132530639Y-104554246D01*
X132667505Y-104605295D01*
X132728008Y-104611800D01*
X133197599Y-104611800D01*
X133197600Y-104611799D01*
X133705600Y-104611799D01*
X133705601Y-104611800D01*
X134175192Y-104611800D01*
X134235694Y-104605295D01*
X134372560Y-104554246D01*
X134489503Y-104466703D01*
X134577046Y-104349760D01*
X134628095Y-104212894D01*
X134634600Y-104152392D01*
X134634600Y-103682801D01*
X134634599Y-103682800D01*
X133705601Y-103682800D01*
X133705600Y-103682801D01*
X133705600Y-104611799D01*
X133197600Y-104611799D01*
X133197600Y-103682801D01*
X133197599Y-103682800D01*
X132268601Y-103682800D01*
X132268600Y-103682801D01*
X132268600Y-104152392D01*
X128402527Y-104152392D01*
X129380120Y-103174799D01*
X132268600Y-103174799D01*
X132268601Y-103174800D01*
X133197599Y-103174800D01*
X133197600Y-103174799D01*
X133705600Y-103174799D01*
X133705601Y-103174800D01*
X134634599Y-103174800D01*
X134634600Y-103174799D01*
X134634600Y-102705208D01*
X134628095Y-102644705D01*
X134577046Y-102507839D01*
X134489503Y-102390896D01*
X134372560Y-102303353D01*
X134235694Y-102252304D01*
X134175192Y-102245800D01*
X133705601Y-102245800D01*
X133705600Y-102245801D01*
X133705600Y-103174799D01*
X133197600Y-103174799D01*
X133197600Y-102245801D01*
X133197599Y-102245800D01*
X132728008Y-102245800D01*
X132667505Y-102252304D01*
X132530639Y-102303353D01*
X132413696Y-102390896D01*
X132326153Y-102507839D01*
X132275104Y-102644705D01*
X132268600Y-102705208D01*
X132268600Y-103174799D01*
X129380120Y-103174799D01*
X138586314Y-93968605D01*
X138590750Y-93964281D01*
X138653053Y-93905059D01*
X138684051Y-93860521D01*
X138695410Y-93845457D01*
X138729698Y-93803407D01*
X138740113Y-93783467D01*
X138756448Y-93756507D01*
X138762398Y-93747957D01*
X138769295Y-93738049D01*
X138790685Y-93688201D01*
X138798799Y-93671118D01*
X138823909Y-93623049D01*
X138830095Y-93601425D01*
X138840666Y-93571735D01*
X138849540Y-93551058D01*
X138860458Y-93497924D01*
X138864959Y-93479585D01*
X138879887Y-93427418D01*
X138881595Y-93404973D01*
X138885971Y-93373775D01*
X138890500Y-93351741D01*
X138890500Y-93297509D01*
X138891219Y-93278602D01*
X138895337Y-93224523D01*
X138892495Y-93202207D01*
X138890500Y-93170749D01*
X138890500Y-92199403D01*
X138909454Y-92104115D01*
X138963430Y-92023333D01*
X139044212Y-91969357D01*
X139139500Y-91950403D01*
X139234788Y-91969357D01*
X139315570Y-92023333D01*
X139621570Y-92329333D01*
X139675546Y-92410114D01*
X139694500Y-92505402D01*
X139694500Y-92694359D01*
X139709956Y-92811762D01*
X139770464Y-92957842D01*
X139833277Y-93039701D01*
X139866718Y-93083282D01*
X139867284Y-93083716D01*
X139869107Y-93085115D01*
X139926926Y-93147930D01*
X139960129Y-93226584D01*
X139964810Y-93311830D01*
X139940422Y-93393647D01*
X139862160Y-93550819D01*
X139812318Y-93726000D01*
X142127682Y-93726000D01*
X142077838Y-93550817D01*
X142072695Y-93540488D01*
X142048478Y-93460098D01*
X142052356Y-93376230D01*
X142083887Y-93298418D01*
X142139487Y-93235509D01*
X142212835Y-93194654D01*
X142295591Y-93180500D01*
X148551529Y-93180500D01*
X148563029Y-93180766D01*
X148640676Y-93184356D01*
X148640677Y-93184355D01*
X148640681Y-93184356D01*
X148717722Y-93173608D01*
X148729071Y-93172292D01*
X148806536Y-93165115D01*
X148816772Y-93162202D01*
X148850520Y-93155084D01*
X148861033Y-93153618D01*
X148878004Y-93147930D01*
X148934746Y-93128912D01*
X148945739Y-93125508D01*
X149020524Y-93104230D01*
X149020523Y-93104230D01*
X149020528Y-93104229D01*
X149030038Y-93099492D01*
X149061914Y-93086290D01*
X149065420Y-93085115D01*
X149071985Y-93082915D01*
X149139940Y-93045062D01*
X149150072Y-93039722D01*
X149219689Y-93005058D01*
X149228164Y-92998657D01*
X149257067Y-92979824D01*
X149266353Y-92974652D01*
X149326187Y-92924964D01*
X149335192Y-92917833D01*
X149363322Y-92896591D01*
X149397236Y-92870981D01*
X149449628Y-92813508D01*
X149457527Y-92805234D01*
X153680247Y-88582514D01*
X153752069Y-88532459D01*
X153836775Y-88510355D01*
X153896148Y-88505683D01*
X154141111Y-88446873D01*
X154274794Y-88391500D01*
X154373855Y-88350468D01*
X154373856Y-88350466D01*
X154373859Y-88350466D01*
X154588659Y-88218836D01*
X154780224Y-88055224D01*
X154811529Y-88018571D01*
X154866612Y-87954077D01*
X154941460Y-87894673D01*
X154971163Y-87885980D01*
X154971341Y-87849869D01*
X155003711Y-87765951D01*
X155026100Y-87729416D01*
X155062333Y-87683456D01*
X156184997Y-86560793D01*
X156185000Y-86560790D01*
X156977908Y-85767881D01*
X157051957Y-85716810D01*
X157062136Y-85714313D01*
X157058891Y-85686896D01*
X156871735Y-85572206D01*
X156652442Y-85481373D01*
X156421629Y-85425959D01*
X156185000Y-85407336D01*
X155948370Y-85425959D01*
X155717557Y-85481373D01*
X155498268Y-85572204D01*
X155295880Y-85696229D01*
X155256214Y-85730108D01*
X155174540Y-85776553D01*
X155081469Y-85789427D01*
X154990254Y-85766896D01*
X154913882Y-85712169D01*
X154863227Y-85633037D01*
X154845500Y-85540768D01*
X154845500Y-83019592D01*
X164018600Y-83019592D01*
X164025104Y-83080094D01*
X164076153Y-83216960D01*
X164163696Y-83333903D01*
X164280639Y-83421446D01*
X164417505Y-83472495D01*
X164478008Y-83479000D01*
X164947599Y-83479000D01*
X164947600Y-83478999D01*
X165455600Y-83478999D01*
X165455601Y-83479000D01*
X165925192Y-83479000D01*
X165985694Y-83472495D01*
X166122560Y-83421446D01*
X166239503Y-83333903D01*
X166327046Y-83216960D01*
X166378095Y-83080094D01*
X166384600Y-83019592D01*
X166384600Y-82550001D01*
X166384599Y-82550000D01*
X165455601Y-82550000D01*
X165455600Y-82550001D01*
X165455600Y-83478999D01*
X164947600Y-83478999D01*
X164947600Y-82550001D01*
X164947599Y-82550000D01*
X164018601Y-82550000D01*
X164018600Y-82550001D01*
X164018600Y-83019592D01*
X154845500Y-83019592D01*
X154845500Y-82041999D01*
X164018600Y-82041999D01*
X164018601Y-82042000D01*
X164947599Y-82042000D01*
X164947600Y-82041999D01*
X165455600Y-82041999D01*
X165455601Y-82042000D01*
X166384599Y-82042000D01*
X166384600Y-82041999D01*
X166384600Y-81572408D01*
X166378095Y-81511905D01*
X166327046Y-81375039D01*
X166239503Y-81258096D01*
X166122560Y-81170553D01*
X165985694Y-81119504D01*
X165925192Y-81113000D01*
X165455601Y-81113000D01*
X165455600Y-81113001D01*
X165455600Y-82041999D01*
X164947600Y-82041999D01*
X164947600Y-81113001D01*
X164947599Y-81113000D01*
X164478008Y-81113000D01*
X164417505Y-81119504D01*
X164280639Y-81170553D01*
X164163696Y-81258096D01*
X164076153Y-81375039D01*
X164025104Y-81511905D01*
X164018600Y-81572408D01*
X164018600Y-82041999D01*
X154845500Y-82041999D01*
X154845500Y-77649500D01*
X154864454Y-77554212D01*
X154918430Y-77473430D01*
X154999212Y-77419454D01*
X155094500Y-77400500D01*
X158716529Y-77400500D01*
X158728029Y-77400766D01*
X158805676Y-77404356D01*
X158805677Y-77404355D01*
X158805681Y-77404356D01*
X158882722Y-77393608D01*
X158894071Y-77392292D01*
X158971536Y-77385115D01*
X158981772Y-77382202D01*
X159015520Y-77375084D01*
X159026033Y-77373618D01*
X159029867Y-77372333D01*
X159099746Y-77348912D01*
X159110739Y-77345508D01*
X159185524Y-77324230D01*
X159185523Y-77324230D01*
X159185528Y-77324229D01*
X159195038Y-77319492D01*
X159226914Y-77306290D01*
X159236985Y-77302915D01*
X159304940Y-77265062D01*
X159315072Y-77259722D01*
X159384689Y-77225058D01*
X159393164Y-77218657D01*
X159422067Y-77199824D01*
X159431353Y-77194652D01*
X159491187Y-77144964D01*
X159500192Y-77137833D01*
X159517108Y-77125059D01*
X159562236Y-77090981D01*
X159614628Y-77033508D01*
X159622527Y-77025234D01*
X162204429Y-74443333D01*
X162285212Y-74389357D01*
X162380500Y-74370403D01*
X162475788Y-74389357D01*
G37*
%TD.AperFunction*%
%TA.AperFunction,Conductor*%
G36*
X128316803Y-77895795D02*
G01*
X128398716Y-77936190D01*
X128526148Y-78031584D01*
X128760981Y-78159813D01*
X129011673Y-78253316D01*
X129273120Y-78310190D01*
X129540000Y-78329278D01*
X129592244Y-78325541D01*
X129662932Y-78330597D01*
X129729337Y-78355365D01*
X129786074Y-78397837D01*
X133493450Y-82105213D01*
X133501374Y-82113512D01*
X133553764Y-82170981D01*
X133615807Y-82217833D01*
X133624810Y-82224965D01*
X133652614Y-82248053D01*
X133684647Y-82274653D01*
X133693943Y-82279830D01*
X133722839Y-82298660D01*
X133731311Y-82305058D01*
X133770372Y-82324508D01*
X133800901Y-82339710D01*
X133811077Y-82345074D01*
X133879012Y-82382914D01*
X133879015Y-82382915D01*
X133889086Y-82386290D01*
X133920957Y-82399490D01*
X133930472Y-82404229D01*
X134005282Y-82425514D01*
X134016215Y-82428899D01*
X134089968Y-82453619D01*
X134089971Y-82453619D01*
X134089973Y-82453620D01*
X134100496Y-82455088D01*
X134134240Y-82462206D01*
X134144464Y-82465115D01*
X134221906Y-82472290D01*
X134233260Y-82473607D01*
X134310319Y-82484357D01*
X134310322Y-82484356D01*
X134310323Y-82484357D01*
X134387992Y-82480766D01*
X134399492Y-82480500D01*
X141755700Y-82480500D01*
X141850988Y-82499454D01*
X141931770Y-82553430D01*
X141985746Y-82634212D01*
X142004700Y-82729500D01*
X142004700Y-82984397D01*
X141985746Y-83079685D01*
X141931770Y-83160467D01*
X137465667Y-87626570D01*
X137384885Y-87680546D01*
X137289597Y-87699500D01*
X136560608Y-87699500D01*
X136496163Y-87691016D01*
X136437987Y-87675428D01*
X136302329Y-87639078D01*
X136079999Y-87619627D01*
X135857665Y-87639079D01*
X135642089Y-87696843D01*
X135439815Y-87791164D01*
X135256993Y-87919177D01*
X135188139Y-87988032D01*
X135110008Y-88040892D01*
X135017820Y-88060896D01*
X134924808Y-88045171D01*
X134844319Y-87995975D01*
X134795971Y-87951900D01*
X134609568Y-87836485D01*
X134405130Y-87757286D01*
X134334000Y-87743989D01*
X134334000Y-90056010D01*
X134405130Y-90042713D01*
X134609568Y-89963514D01*
X134795967Y-89848102D01*
X134844315Y-89804026D01*
X134924804Y-89754829D01*
X135017817Y-89739103D01*
X135110006Y-89759107D01*
X135188138Y-89811966D01*
X135256993Y-89880822D01*
X135439814Y-90008835D01*
X135642087Y-90103156D01*
X135768817Y-90137113D01*
X135857665Y-90160920D01*
X136080000Y-90180372D01*
X136302329Y-90160921D01*
X136302332Y-90160920D01*
X136302334Y-90160920D01*
X136496163Y-90108983D01*
X136560608Y-90100500D01*
X136640500Y-90100500D01*
X136735788Y-90119454D01*
X136816570Y-90173430D01*
X136870546Y-90254212D01*
X136889500Y-90349500D01*
X136889500Y-92732440D01*
X136881016Y-92796886D01*
X136856140Y-92856940D01*
X136816570Y-92908510D01*
X133503927Y-96221152D01*
X133424317Y-96274639D01*
X133330396Y-96294069D01*
X133236098Y-96276558D01*
X133155414Y-96224705D01*
X133100315Y-96146203D01*
X133078973Y-96052698D01*
X133094557Y-95958063D01*
X133104095Y-95932489D01*
X133110600Y-95871992D01*
X133110600Y-95402401D01*
X133110599Y-95402400D01*
X132181601Y-95402400D01*
X132181600Y-95402401D01*
X132181600Y-96331399D01*
X132181601Y-96331400D01*
X132651192Y-96331400D01*
X132711689Y-96324895D01*
X132737263Y-96315357D01*
X132831898Y-96299773D01*
X132925403Y-96321115D01*
X133003905Y-96376214D01*
X133055759Y-96456898D01*
X133073269Y-96551196D01*
X133053839Y-96645117D01*
X133000352Y-96724727D01*
X124318585Y-105406493D01*
X124245953Y-105456921D01*
X124160278Y-105478789D01*
X124072363Y-105469337D01*
X123993294Y-105429757D01*
X123933042Y-105365042D01*
X123899206Y-105283354D01*
X123882369Y-105205954D01*
X123823258Y-105047471D01*
X123782368Y-104937840D01*
X123645226Y-104686685D01*
X123609882Y-104639471D01*
X123473739Y-104457605D01*
X123271395Y-104255261D01*
X123158233Y-104170549D01*
X123093674Y-104098883D01*
X123061195Y-104008059D01*
X123065670Y-103911705D01*
X123106428Y-103824282D01*
X123177352Y-103758908D01*
X123371659Y-103639836D01*
X123563224Y-103476224D01*
X123600919Y-103432089D01*
X123726836Y-103284659D01*
X123858466Y-103069859D01*
X123867938Y-103046993D01*
X123954872Y-102837113D01*
X123954871Y-102837113D01*
X123954873Y-102837111D01*
X124013683Y-102592148D01*
X124033449Y-102341000D01*
X124013683Y-102089852D01*
X123954873Y-101844889D01*
X123954872Y-101844886D01*
X123858468Y-101612144D01*
X123792650Y-101504740D01*
X123726836Y-101397341D01*
X123726835Y-101397340D01*
X123726834Y-101397338D01*
X123586230Y-101232712D01*
X123541961Y-101157183D01*
X123526571Y-101071000D01*
X123541961Y-100984817D01*
X123586230Y-100909288D01*
X123726834Y-100744661D01*
X123726836Y-100744659D01*
X123858466Y-100529859D01*
X123864295Y-100515788D01*
X123954872Y-100297113D01*
X123954871Y-100297113D01*
X123954873Y-100297111D01*
X124013683Y-100052148D01*
X124033449Y-99801000D01*
X124013683Y-99549852D01*
X123954873Y-99304889D01*
X123954872Y-99304886D01*
X123858468Y-99072144D01*
X123790544Y-98961303D01*
X123726836Y-98857341D01*
X123606443Y-98716379D01*
X123586229Y-98692711D01*
X123541961Y-98617181D01*
X123526571Y-98530998D01*
X123541962Y-98444815D01*
X123586227Y-98369290D01*
X123726836Y-98204659D01*
X123858466Y-97989859D01*
X123954873Y-97757111D01*
X124013683Y-97512148D01*
X124033449Y-97261000D01*
X124013683Y-97009852D01*
X123954873Y-96764889D01*
X123952600Y-96759402D01*
X123858468Y-96532144D01*
X123831000Y-96487321D01*
X123726836Y-96317341D01*
X123586229Y-96152711D01*
X123541961Y-96077181D01*
X123526571Y-95990998D01*
X123541962Y-95904815D01*
X123561199Y-95871992D01*
X130744600Y-95871992D01*
X130751104Y-95932494D01*
X130802153Y-96069360D01*
X130889696Y-96186303D01*
X131006639Y-96273846D01*
X131143505Y-96324895D01*
X131204008Y-96331400D01*
X131673599Y-96331400D01*
X131673600Y-96331399D01*
X131673600Y-95402401D01*
X131673599Y-95402400D01*
X130744601Y-95402400D01*
X130744600Y-95402401D01*
X130744600Y-95871992D01*
X123561199Y-95871992D01*
X123586227Y-95829290D01*
X123726836Y-95664659D01*
X123858466Y-95449859D01*
X123873117Y-95414490D01*
X123948524Y-95232438D01*
X123954873Y-95217111D01*
X124013683Y-94972148D01*
X124019802Y-94894399D01*
X130744600Y-94894399D01*
X130744601Y-94894400D01*
X131673599Y-94894400D01*
X131673600Y-94894399D01*
X132181600Y-94894399D01*
X132181601Y-94894400D01*
X133110599Y-94894400D01*
X133110600Y-94894399D01*
X133110600Y-94424808D01*
X133104095Y-94364305D01*
X133053046Y-94227439D01*
X132965503Y-94110496D01*
X132848560Y-94022953D01*
X132711694Y-93971904D01*
X132651192Y-93965400D01*
X132181601Y-93965400D01*
X132181600Y-93965401D01*
X132181600Y-94894399D01*
X131673600Y-94894399D01*
X131673600Y-93965401D01*
X131673599Y-93965400D01*
X131204008Y-93965400D01*
X131143505Y-93971904D01*
X131006639Y-94022953D01*
X130889696Y-94110496D01*
X130802153Y-94227439D01*
X130751104Y-94364305D01*
X130744600Y-94424808D01*
X130744600Y-94894399D01*
X124019802Y-94894399D01*
X124033449Y-94721000D01*
X124013683Y-94469852D01*
X123954873Y-94224889D01*
X123954872Y-94224886D01*
X123858468Y-93992144D01*
X123730592Y-93783471D01*
X123726836Y-93777341D01*
X123726835Y-93777340D01*
X123726834Y-93777338D01*
X123586230Y-93612712D01*
X123541961Y-93537183D01*
X123526571Y-93451000D01*
X123541961Y-93364817D01*
X123586230Y-93289288D01*
X123702103Y-93153618D01*
X123726836Y-93124659D01*
X123858466Y-92909859D01*
X123862356Y-92900469D01*
X123954872Y-92677113D01*
X123954871Y-92677113D01*
X123954873Y-92677111D01*
X124013683Y-92432148D01*
X124033449Y-92181000D01*
X124013683Y-91929852D01*
X123954873Y-91684889D01*
X123954872Y-91684886D01*
X123858468Y-91452144D01*
X123753756Y-91281271D01*
X123726836Y-91237341D01*
X123586227Y-91072709D01*
X123541960Y-90997180D01*
X123526570Y-90910995D01*
X123541963Y-90824810D01*
X123586228Y-90749288D01*
X123603747Y-90728777D01*
X123657469Y-90681668D01*
X123722362Y-90651753D01*
X123793079Y-90641500D01*
X131323135Y-90641500D01*
X131329441Y-90641580D01*
X131415363Y-90643757D01*
X131468770Y-90634184D01*
X131487462Y-90631562D01*
X131541438Y-90626074D01*
X131562900Y-90619339D01*
X131593509Y-90611827D01*
X131596603Y-90611272D01*
X131615653Y-90607858D01*
X131666014Y-90587740D01*
X131683842Y-90581394D01*
X131735588Y-90565159D01*
X131755262Y-90554238D01*
X131783725Y-90540721D01*
X131804617Y-90532377D01*
X131849908Y-90502527D01*
X131866073Y-90492733D01*
X131913502Y-90466409D01*
X131930573Y-90451753D01*
X131955734Y-90432781D01*
X131974519Y-90420402D01*
X132012869Y-90382051D01*
X132026748Y-90369189D01*
X132049683Y-90349500D01*
X132067895Y-90333866D01*
X132081668Y-90316071D01*
X132102487Y-90292432D01*
X132146492Y-90248427D01*
X132227274Y-90194452D01*
X132322561Y-90175499D01*
X132794360Y-90175499D01*
X132911762Y-90160044D01*
X133057841Y-90099536D01*
X133183282Y-90003282D01*
X133185098Y-90000914D01*
X133252786Y-89940036D01*
X133337833Y-89907558D01*
X133428870Y-89907820D01*
X133513728Y-89940788D01*
X133550434Y-89963515D01*
X133754869Y-90042713D01*
X133825999Y-90056010D01*
X133826000Y-90056011D01*
X133826000Y-87743990D01*
X133825999Y-87743989D01*
X133754869Y-87757286D01*
X133550431Y-87836485D01*
X133513726Y-87859212D01*
X133428869Y-87892179D01*
X133337833Y-87892441D01*
X133252788Y-87859964D01*
X133185101Y-87799089D01*
X133183282Y-87796718D01*
X133183280Y-87796716D01*
X133183279Y-87796715D01*
X133057843Y-87700465D01*
X133057841Y-87700464D01*
X132911762Y-87639956D01*
X132794361Y-87624500D01*
X132794359Y-87624500D01*
X131365640Y-87624500D01*
X131248237Y-87639956D01*
X131102157Y-87700464D01*
X130976717Y-87796717D01*
X130880465Y-87922156D01*
X130831283Y-88040892D01*
X130819956Y-88068238D01*
X130809263Y-88149465D01*
X130804500Y-88185641D01*
X130804500Y-88391500D01*
X130785546Y-88486788D01*
X130731570Y-88567570D01*
X130650788Y-88621546D01*
X130555500Y-88640500D01*
X123793079Y-88640500D01*
X123722360Y-88630246D01*
X123657465Y-88600330D01*
X123603742Y-88553216D01*
X123586227Y-88532709D01*
X123541961Y-88457184D01*
X123526570Y-88371000D01*
X123541961Y-88284816D01*
X123586229Y-88209288D01*
X123603742Y-88188783D01*
X123657465Y-88141670D01*
X123722360Y-88111754D01*
X123793079Y-88101500D01*
X126700335Y-88101500D01*
X126706641Y-88101580D01*
X126792563Y-88103757D01*
X126845970Y-88094184D01*
X126864662Y-88091562D01*
X126918638Y-88086074D01*
X126940100Y-88079339D01*
X126970709Y-88071827D01*
X126973803Y-88071272D01*
X126992853Y-88067858D01*
X127043214Y-88047740D01*
X127061042Y-88041394D01*
X127062642Y-88040892D01*
X127112788Y-88025159D01*
X127132462Y-88014238D01*
X127160925Y-88000721D01*
X127181817Y-87992377D01*
X127227108Y-87962527D01*
X127243273Y-87952733D01*
X127290702Y-87926409D01*
X127307773Y-87911753D01*
X127332934Y-87892781D01*
X127351719Y-87880402D01*
X127390076Y-87842044D01*
X127403938Y-87829196D01*
X127445095Y-87793866D01*
X127458867Y-87776073D01*
X127479685Y-87752434D01*
X129758890Y-85473229D01*
X129839673Y-85419253D01*
X129934961Y-85400299D01*
X130406760Y-85400299D01*
X130524162Y-85384844D01*
X130670241Y-85324336D01*
X130795682Y-85228082D01*
X130891936Y-85102641D01*
X130952444Y-84956562D01*
X130967900Y-84839161D01*
X130967899Y-83410440D01*
X130952444Y-83293038D01*
X130891936Y-83146959D01*
X130891935Y-83146958D01*
X130891935Y-83146957D01*
X130795682Y-83021517D01*
X130670243Y-82925265D01*
X130670241Y-82925264D01*
X130524162Y-82864756D01*
X130406761Y-82849300D01*
X130406759Y-82849300D01*
X128978040Y-82849300D01*
X128860637Y-82864756D01*
X128714557Y-82925264D01*
X128589117Y-83021517D01*
X128492865Y-83146956D01*
X128435784Y-83284761D01*
X128432356Y-83293038D01*
X128420443Y-83383532D01*
X128416900Y-83410441D01*
X128416900Y-83882238D01*
X128397946Y-83977526D01*
X128343970Y-84058307D01*
X126374710Y-86027569D01*
X126323140Y-86067140D01*
X126263086Y-86092016D01*
X126198640Y-86100500D01*
X123793079Y-86100500D01*
X123722360Y-86090246D01*
X123657465Y-86060330D01*
X123603742Y-86013216D01*
X123586227Y-85992709D01*
X123541961Y-85917185D01*
X123526570Y-85831001D01*
X123541960Y-85744817D01*
X123586225Y-85669292D01*
X123726836Y-85504659D01*
X123858466Y-85289859D01*
X123954873Y-85057111D01*
X124013683Y-84812148D01*
X124033449Y-84561000D01*
X124013683Y-84309852D01*
X123954873Y-84064889D01*
X123952147Y-84058307D01*
X123858468Y-83832144D01*
X123799008Y-83735115D01*
X123726836Y-83617341D01*
X123586227Y-83452710D01*
X123541960Y-83377180D01*
X123526570Y-83290995D01*
X123541963Y-83204810D01*
X123586228Y-83129288D01*
X123603747Y-83108777D01*
X123657469Y-83061668D01*
X123722362Y-83031753D01*
X123793079Y-83021500D01*
X123826348Y-83021500D01*
X123832654Y-83021580D01*
X123918576Y-83023757D01*
X123971983Y-83014184D01*
X123990675Y-83011562D01*
X124044651Y-83006074D01*
X124066113Y-82999339D01*
X124096722Y-82991827D01*
X124099816Y-82991272D01*
X124118866Y-82987858D01*
X124169227Y-82967740D01*
X124187055Y-82961394D01*
X124238801Y-82945159D01*
X124258475Y-82934238D01*
X124286938Y-82920721D01*
X124307830Y-82912377D01*
X124353121Y-82882527D01*
X124369286Y-82872733D01*
X124416715Y-82846409D01*
X124433786Y-82831753D01*
X124458947Y-82812781D01*
X124477732Y-82800402D01*
X124516089Y-82762044D01*
X124529951Y-82749196D01*
X124571108Y-82713866D01*
X124584881Y-82696071D01*
X124605698Y-82672434D01*
X127696294Y-79581837D01*
X127700730Y-79577513D01*
X127763053Y-79518272D01*
X127794039Y-79473750D01*
X127805413Y-79458665D01*
X127839698Y-79416620D01*
X127850111Y-79396683D01*
X127866450Y-79369716D01*
X127879295Y-79351262D01*
X127900685Y-79301414D01*
X127908799Y-79284331D01*
X127933909Y-79236262D01*
X127940095Y-79214638D01*
X127950668Y-79184942D01*
X127959540Y-79164271D01*
X127970456Y-79111143D01*
X127974963Y-79092779D01*
X127989886Y-79040631D01*
X127991593Y-79018202D01*
X127995972Y-78986987D01*
X128000500Y-78964955D01*
X128000500Y-78910720D01*
X128001219Y-78891812D01*
X128005337Y-78837737D01*
X128002495Y-78815422D01*
X128000500Y-78783964D01*
X128000500Y-78135527D01*
X128017252Y-78045740D01*
X128065252Y-77968035D01*
X128138043Y-77912865D01*
X128225831Y-77887654D01*
X128316803Y-77895795D01*
G37*
%TD.AperFunction*%
%TA.AperFunction,Conductor*%
G36*
X124248307Y-67261917D02*
G01*
X124314248Y-67309169D01*
X124626570Y-67621491D01*
X124680546Y-67702273D01*
X124699500Y-67797561D01*
X124699500Y-77105653D01*
X124691015Y-77170099D01*
X124666140Y-77230153D01*
X124626569Y-77281723D01*
X124416052Y-77492239D01*
X124340408Y-77544019D01*
X124251153Y-77564918D01*
X124160384Y-77552103D01*
X124080404Y-77507312D01*
X124022052Y-77436613D01*
X123993236Y-77349591D01*
X123997862Y-77258044D01*
X124013683Y-77192148D01*
X124013683Y-77192145D01*
X124013684Y-77192142D01*
X124033449Y-76940999D01*
X124013683Y-76689853D01*
X124004710Y-76652478D01*
X123954873Y-76444889D01*
X123945397Y-76422012D01*
X123858468Y-76212144D01*
X123774684Y-76075421D01*
X123726836Y-75997341D01*
X123726835Y-75997340D01*
X123726834Y-75997338D01*
X123586230Y-75832712D01*
X123541961Y-75757183D01*
X123526571Y-75671000D01*
X123541961Y-75584817D01*
X123586230Y-75509288D01*
X123704568Y-75370731D01*
X123726836Y-75344659D01*
X123858466Y-75129859D01*
X123858882Y-75128856D01*
X123954872Y-74897113D01*
X123954871Y-74897113D01*
X123954873Y-74897111D01*
X124013683Y-74652148D01*
X124033449Y-74401000D01*
X124013683Y-74149852D01*
X123954873Y-73904889D01*
X123954872Y-73904886D01*
X123858468Y-73672144D01*
X123736331Y-73472836D01*
X123726836Y-73457341D01*
X123726835Y-73457340D01*
X123726834Y-73457338D01*
X123586230Y-73292712D01*
X123541961Y-73217183D01*
X123526571Y-73131000D01*
X123541961Y-73044817D01*
X123586230Y-72969288D01*
X123726834Y-72804661D01*
X123726836Y-72804659D01*
X123858466Y-72589859D01*
X123861539Y-72582442D01*
X123951847Y-72364416D01*
X123954873Y-72357111D01*
X124013683Y-72112148D01*
X124033449Y-71861000D01*
X124013683Y-71609852D01*
X123954873Y-71364889D01*
X123952182Y-71358392D01*
X123858468Y-71132144D01*
X123726834Y-70917338D01*
X123563226Y-70725778D01*
X123563224Y-70725776D01*
X123462073Y-70639385D01*
X123402672Y-70564539D01*
X123393979Y-70534835D01*
X123357870Y-70534658D01*
X123273946Y-70502285D01*
X123237424Y-70479904D01*
X123191458Y-70443667D01*
X122428000Y-69680210D01*
X121664543Y-70443665D01*
X121618576Y-70479902D01*
X121582052Y-70502284D01*
X121498128Y-70534658D01*
X121462020Y-70534835D01*
X121453327Y-70564538D01*
X121393924Y-70639386D01*
X121292776Y-70725774D01*
X121129165Y-70917338D01*
X120997531Y-71132144D01*
X120901127Y-71364886D01*
X120871620Y-71487795D01*
X120835168Y-71570030D01*
X120771875Y-71633947D01*
X120690002Y-71671205D01*
X120600233Y-71676941D01*
X120514284Y-71650407D01*
X120443370Y-71595066D01*
X120396748Y-71518139D01*
X120380500Y-71429667D01*
X120380500Y-69097561D01*
X120399454Y-69002274D01*
X120453429Y-68921493D01*
X120512931Y-68861990D01*
X120588573Y-68810209D01*
X120677827Y-68789309D01*
X120768595Y-68802122D01*
X120848576Y-68846911D01*
X120906930Y-68917607D01*
X120935748Y-69004628D01*
X120932718Y-69064611D01*
X120935497Y-69064830D01*
X120915336Y-69320999D01*
X120933959Y-69557629D01*
X120989373Y-69788442D01*
X121080206Y-70007735D01*
X121194896Y-70194891D01*
X121222312Y-70198136D01*
X121224810Y-70187955D01*
X121275881Y-70113907D01*
X122068790Y-69320999D01*
X122787210Y-69320999D01*
X123580119Y-70113908D01*
X123631189Y-70187957D01*
X123633685Y-70198136D01*
X123661102Y-70194891D01*
X123775795Y-70007731D01*
X123866626Y-69788442D01*
X123922040Y-69557629D01*
X123940663Y-69320999D01*
X123922040Y-69084370D01*
X123866626Y-68853557D01*
X123775794Y-68634268D01*
X123661101Y-68447106D01*
X123633685Y-68443862D01*
X123631188Y-68454043D01*
X123580118Y-68528091D01*
X122787210Y-69320999D01*
X122068790Y-69320999D01*
X122427997Y-68961793D01*
X122428000Y-68961790D01*
X123191453Y-68198335D01*
X123237416Y-68162100D01*
X123273950Y-68139712D01*
X123357873Y-68107341D01*
X123393980Y-68107163D01*
X123402673Y-68077460D01*
X123462077Y-68002612D01*
X123563224Y-67916224D01*
X123583700Y-67892250D01*
X123726836Y-67724659D01*
X123858466Y-67509859D01*
X123908135Y-67389945D01*
X123950968Y-67321064D01*
X124013676Y-67269600D01*
X124089599Y-67241024D01*
X124170678Y-67238369D01*
X124248307Y-67261917D01*
G37*
%TD.AperFunction*%
%TA.AperFunction,Conductor*%
G36*
X207857727Y-65789454D02*
G01*
X207938509Y-65843430D01*
X208564470Y-66469391D01*
X208618446Y-66550173D01*
X208637400Y-66645461D01*
X208618446Y-66740749D01*
X208564470Y-66821531D01*
X208534000Y-66852001D01*
X208534000Y-68405999D01*
X208534001Y-68406000D01*
X210087999Y-68406000D01*
X210118469Y-68375530D01*
X210199251Y-68321554D01*
X210294539Y-68302600D01*
X210389827Y-68321554D01*
X210470609Y-68375530D01*
X211016570Y-68921491D01*
X211070546Y-69002273D01*
X211089500Y-69097561D01*
X211089500Y-70673441D01*
X211070546Y-70768729D01*
X211016570Y-70849511D01*
X210935788Y-70903487D01*
X210840500Y-70922441D01*
X210745212Y-70903487D01*
X210664433Y-70849513D01*
X210578641Y-70763721D01*
X210574277Y-70759244D01*
X210515059Y-70696947D01*
X210514836Y-70696792D01*
X210470539Y-70665960D01*
X210455436Y-70654572D01*
X210413408Y-70620303D01*
X210413407Y-70620302D01*
X210398925Y-70612737D01*
X210393460Y-70609882D01*
X210366509Y-70593553D01*
X210348049Y-70580705D01*
X210298202Y-70559313D01*
X210281116Y-70551198D01*
X210233050Y-70526090D01*
X210211426Y-70519903D01*
X210181724Y-70509328D01*
X210171784Y-70505062D01*
X210093811Y-70452208D01*
X210041052Y-70374172D01*
X210021056Y-70282120D01*
X210036687Y-70189228D01*
X210081495Y-70069093D01*
X210088000Y-70008592D01*
X210088000Y-68914001D01*
X210087999Y-68914000D01*
X206472001Y-68914000D01*
X206472000Y-68914001D01*
X206472000Y-69835941D01*
X206453046Y-69931229D01*
X206399070Y-70012011D01*
X206318288Y-70065987D01*
X206223000Y-70084941D01*
X206127712Y-70065987D01*
X206046933Y-70012013D01*
X206038641Y-70003721D01*
X206034277Y-69999244D01*
X205975059Y-69936947D01*
X205930539Y-69905960D01*
X205915436Y-69894572D01*
X205873408Y-69860303D01*
X205873407Y-69860302D01*
X205862204Y-69854450D01*
X205853460Y-69849882D01*
X205826509Y-69833553D01*
X205808049Y-69820705D01*
X205758202Y-69799313D01*
X205741116Y-69791198D01*
X205693050Y-69766090D01*
X205671426Y-69759903D01*
X205641732Y-69749331D01*
X205621058Y-69740459D01*
X205567924Y-69729539D01*
X205549554Y-69725030D01*
X205497420Y-69710113D01*
X205474980Y-69708404D01*
X205443773Y-69704027D01*
X205421742Y-69699500D01*
X205421741Y-69699500D01*
X205367510Y-69699500D01*
X205348603Y-69698781D01*
X205294524Y-69694662D01*
X205272208Y-69697505D01*
X205240750Y-69699500D01*
X197754246Y-69699500D01*
X197669459Y-69684620D01*
X197594805Y-69641758D01*
X197539208Y-69576038D01*
X197509312Y-69495313D01*
X197508690Y-69409232D01*
X197537416Y-69328084D01*
X197565183Y-69294280D01*
X197563392Y-69292894D01*
X197578891Y-69272868D01*
X197578895Y-69272866D01*
X197592667Y-69255073D01*
X197613485Y-69231434D01*
X198150927Y-68693992D01*
X202220200Y-68693992D01*
X202226704Y-68754494D01*
X202277753Y-68891360D01*
X202365296Y-69008303D01*
X202482239Y-69095846D01*
X202619105Y-69146895D01*
X202679608Y-69153400D01*
X203149199Y-69153400D01*
X203149200Y-69153399D01*
X203657200Y-69153399D01*
X203657201Y-69153400D01*
X204126792Y-69153400D01*
X204187294Y-69146895D01*
X204324160Y-69095846D01*
X204441103Y-69008303D01*
X204528646Y-68891360D01*
X204579695Y-68754494D01*
X204586200Y-68693992D01*
X204586200Y-68405999D01*
X206472000Y-68405999D01*
X206472001Y-68406000D01*
X208025999Y-68406000D01*
X208026000Y-68405999D01*
X208026000Y-66852001D01*
X208025999Y-66852000D01*
X206931408Y-66852000D01*
X206870905Y-66858504D01*
X206734039Y-66909553D01*
X206617096Y-66997096D01*
X206529553Y-67114039D01*
X206478504Y-67250905D01*
X206472000Y-67311408D01*
X206472000Y-68405999D01*
X204586200Y-68405999D01*
X204586200Y-68224401D01*
X204586199Y-68224400D01*
X203657201Y-68224400D01*
X203657200Y-68224401D01*
X203657200Y-69153399D01*
X203149200Y-69153399D01*
X203149200Y-68224401D01*
X203149199Y-68224400D01*
X202220201Y-68224400D01*
X202220200Y-68224401D01*
X202220200Y-68693992D01*
X198150927Y-68693992D01*
X199128520Y-67716399D01*
X202220200Y-67716399D01*
X202220201Y-67716400D01*
X203149199Y-67716400D01*
X203149200Y-67716399D01*
X203657200Y-67716399D01*
X203657201Y-67716400D01*
X204586199Y-67716400D01*
X204586200Y-67716399D01*
X204586200Y-67246808D01*
X204579695Y-67186305D01*
X204528646Y-67049439D01*
X204441103Y-66932496D01*
X204324160Y-66844953D01*
X204187294Y-66793904D01*
X204126792Y-66787400D01*
X203657201Y-66787400D01*
X203657200Y-66787401D01*
X203657200Y-67716399D01*
X203149200Y-67716399D01*
X203149200Y-66787401D01*
X203149199Y-66787400D01*
X202679608Y-66787400D01*
X202619105Y-66793904D01*
X202482239Y-66844953D01*
X202365296Y-66932496D01*
X202277753Y-67049439D01*
X202226704Y-67186305D01*
X202220200Y-67246808D01*
X202220200Y-67716399D01*
X199128520Y-67716399D01*
X201001490Y-65843430D01*
X201082273Y-65789454D01*
X201177561Y-65770500D01*
X207762439Y-65770500D01*
X207857727Y-65789454D01*
G37*
%TD.AperFunction*%
%TD*%
M02*
