M48
; DRILL file {KiCad 7.0.1} date Thu May  4 11:19:08 2023
; FORMAT={-:-/ absolute / metric / decimal}
; #@! TF.CreationDate,2023-05-04T11:19:08-05:00
; #@! TF.GenerationSoftware,Kicad,Pcbnew,7.0.1
; #@! TF.FileFunction,Plated,1,2,PTH
FMAT,2
METRIC
; #@! TA.AperFunction,Plated,PTH,ComponentDrill
T1C0.800
; #@! TA.AperFunction,Plated,PTH,ComponentDrill
T2C1.000
; #@! TA.AperFunction,Plated,PTH,ComponentDrill
T3C1.020
; #@! TA.AperFunction,Plated,PTH,ComponentDrill
T4C1.300
%
G90
G05
T1
X91.44Y-60.04
X91.44Y-62.04
X91.44Y-64.04
X91.44Y-66.04
X94.412Y-114.021
X129.692Y-84.125
X131.928Y-95.148
X132.08Y-88.9
X133.452Y-103.429
X134.08Y-88.9
X136.08Y-88.9
X140.97Y-91.98
X140.97Y-93.98
X140.97Y-95.98
X165.202Y-82.296
X176.515Y-64.78
X176.515Y-72.4
X179.055Y-64.78
X179.055Y-72.4
X179.172Y-75.489
X181.595Y-64.78
X181.595Y-72.4
X184.135Y-64.78
X184.135Y-72.4
X186.675Y-64.78
X186.675Y-72.4
X187.808Y-75.336
X189.215Y-64.78
X189.215Y-72.4
X191.755Y-64.78
X191.755Y-72.4
X194.295Y-64.78
X194.295Y-72.4
X203.403Y-62.281
X203.403Y-67.97
X218.44Y-99.87
X218.44Y-101.87
X218.44Y-103.87
X218.44Y-105.87
T2
X129.54Y-58.674
X129.54Y-76.454
X170.18Y-58.674
X170.18Y-76.454
T3
X97.028Y-66.781
X97.028Y-69.321
X97.028Y-71.861
X97.028Y-74.401
X97.028Y-76.941
X97.028Y-79.481
X97.028Y-82.021
X97.028Y-84.561
X97.028Y-87.101
X97.028Y-89.641
X97.028Y-92.181
X97.028Y-94.721
X97.028Y-97.261
X97.028Y-99.801
X97.028Y-102.341
X122.428Y-66.781
X122.428Y-69.321
X122.428Y-71.861
X122.428Y-74.401
X122.428Y-76.941
X122.428Y-79.481
X122.428Y-82.021
X122.428Y-84.561
X122.428Y-87.101
X122.428Y-89.641
X122.428Y-92.181
X122.428Y-94.721
X122.428Y-97.261
X122.428Y-99.801
X122.428Y-102.341
X153.645Y-86.92
X153.645Y-112.32
X156.185Y-86.92
X156.185Y-112.32
X158.725Y-86.92
X158.725Y-112.32
X161.265Y-86.92
X161.265Y-112.32
X163.805Y-86.92
X163.805Y-112.32
X166.345Y-86.92
X166.345Y-112.32
X168.885Y-86.92
X168.885Y-112.32
X171.425Y-86.92
X171.425Y-112.32
X173.965Y-86.92
X173.965Y-112.32
X176.505Y-86.92
X176.505Y-112.32
X179.045Y-86.92
X179.045Y-112.32
X181.585Y-86.92
X181.585Y-112.32
X184.125Y-86.92
X184.125Y-112.32
X186.665Y-86.92
X186.665Y-112.32
X189.205Y-86.92
X189.205Y-112.32
X199.39Y-95.25
X199.39Y-97.79
X199.39Y-100.33
X199.39Y-102.87
X199.39Y-105.41
X199.39Y-107.95
X199.39Y-110.49
X199.39Y-113.03
X212.09Y-95.25
X212.09Y-97.79
X212.09Y-100.33
X212.09Y-102.87
X212.09Y-105.41
X212.09Y-107.95
X212.09Y-110.49
X212.09Y-113.03
T4
X208.28Y-68.66
X208.28Y-73.66
X208.28Y-81.828
X208.28Y-86.828
T0
M30
